<mxfile host="app.diagrams.net" modified="2023-07-31T09:38:40.228Z" agent="Mozilla/5.0 (Windows NT 10.0; Win64; x64) AppleWebKit/537.36 (KHTML, like Gecko) Chrome/115.0.0.0 Safari/537.36" etag="0dgDELjMR4G4ULMqy-y6" version="21.6.5" type="github" pages="7">
  <diagram id="r5mIExqQhruA3w9a25Ks" name="MSE与Native切换">
    <mxGraphModel dx="1434" dy="758" grid="1" gridSize="10" guides="1" tooltips="1" connect="1" arrows="1" fold="1" page="1" pageScale="1" pageWidth="827" pageHeight="1169" math="0" shadow="0">
      <root>
        <mxCell id="0" />
        <mxCell id="1" parent="0" />
        <mxCell id="6YJJyLP3BQe_TjqYYZrS-2" style="edgeStyle=orthogonalEdgeStyle;rounded=0;orthogonalLoop=1;jettySize=auto;html=1;exitX=0.5;exitY=1;exitDx=0;exitDy=0;entryX=0.5;entryY=0;entryDx=0;entryDy=0;" parent="1" source="a4Z7WdKTb3kv_-mjPA5u-1" target="6YJJyLP3BQe_TjqYYZrS-1" edge="1">
          <mxGeometry relative="1" as="geometry" />
        </mxCell>
        <mxCell id="a4Z7WdKTb3kv_-mjPA5u-1" value="打开应用" style="rounded=1;whiteSpace=wrap;html=1;" parent="1" vertex="1">
          <mxGeometry x="40" y="40" width="120" height="40" as="geometry" />
        </mxCell>
        <mxCell id="a4Z7WdKTb3kv_-mjPA5u-9" style="edgeStyle=orthogonalEdgeStyle;rounded=0;orthogonalLoop=1;jettySize=auto;html=1;exitX=0.5;exitY=1;exitDx=0;exitDy=0;entryX=0.5;entryY=0;entryDx=0;entryDy=0;" parent="1" source="a4Z7WdKTb3kv_-mjPA5u-2" target="a4Z7WdKTb3kv_-mjPA5u-5" edge="1">
          <mxGeometry relative="1" as="geometry" />
        </mxCell>
        <mxCell id="a4Z7WdKTb3kv_-mjPA5u-10" value="是" style="edgeLabel;html=1;align=center;verticalAlign=middle;resizable=0;points=[];" parent="a4Z7WdKTb3kv_-mjPA5u-9" vertex="1" connectable="0">
          <mxGeometry x="-0.35" y="1" relative="1" as="geometry">
            <mxPoint x="-11" y="15" as="offset" />
          </mxGeometry>
        </mxCell>
        <mxCell id="a4Z7WdKTb3kv_-mjPA5u-13" style="edgeStyle=orthogonalEdgeStyle;rounded=0;orthogonalLoop=1;jettySize=auto;html=1;exitX=1;exitY=0.5;exitDx=0;exitDy=0;entryX=0;entryY=0.5;entryDx=0;entryDy=0;" parent="1" source="a4Z7WdKTb3kv_-mjPA5u-2" target="a4Z7WdKTb3kv_-mjPA5u-7" edge="1">
          <mxGeometry relative="1" as="geometry">
            <Array as="points" />
          </mxGeometry>
        </mxCell>
        <mxCell id="a4Z7WdKTb3kv_-mjPA5u-15" value="否" style="edgeLabel;html=1;align=center;verticalAlign=middle;resizable=0;points=[];" parent="a4Z7WdKTb3kv_-mjPA5u-13" vertex="1" connectable="0">
          <mxGeometry x="-0.1917" y="-3" relative="1" as="geometry">
            <mxPoint x="13" y="-13" as="offset" />
          </mxGeometry>
        </mxCell>
        <mxCell id="a4Z7WdKTb3kv_-mjPA5u-2" value="起播成功&lt;br&gt;与否" style="rhombus;whiteSpace=wrap;html=1;" parent="1" vertex="1">
          <mxGeometry x="60" y="400" width="80" height="80" as="geometry" />
        </mxCell>
        <mxCell id="a4Z7WdKTb3kv_-mjPA5u-28" style="edgeStyle=orthogonalEdgeStyle;rounded=0;orthogonalLoop=1;jettySize=auto;html=1;exitX=0.5;exitY=1;exitDx=0;exitDy=0;entryX=0.5;entryY=0;entryDx=0;entryDy=0;" parent="1" source="a4Z7WdKTb3kv_-mjPA5u-3" target="a4Z7WdKTb3kv_-mjPA5u-2" edge="1">
          <mxGeometry relative="1" as="geometry" />
        </mxCell>
        <mxCell id="a4Z7WdKTb3kv_-mjPA5u-3" value="MSE 播放" style="rounded=1;whiteSpace=wrap;html=1;" parent="1" vertex="1">
          <mxGeometry x="40" y="320" width="120" height="40" as="geometry" />
        </mxCell>
        <mxCell id="a4Z7WdKTb3kv_-mjPA5u-24" style="edgeStyle=orthogonalEdgeStyle;rounded=0;orthogonalLoop=1;jettySize=auto;html=1;exitX=0.5;exitY=1;exitDx=0;exitDy=0;entryX=1;entryY=0.5;entryDx=0;entryDy=0;" parent="1" source="a4Z7WdKTb3kv_-mjPA5u-4" target="a4Z7WdKTb3kv_-mjPA5u-5" edge="1">
          <mxGeometry relative="1" as="geometry" />
        </mxCell>
        <mxCell id="a4Z7WdKTb3kv_-mjPA5u-4" value="Native 播放" style="rounded=1;whiteSpace=wrap;html=1;" parent="1" vertex="1">
          <mxGeometry x="220" y="640" width="120" height="40" as="geometry" />
        </mxCell>
        <mxCell id="a4Z7WdKTb3kv_-mjPA5u-5" value="播放结束" style="rounded=1;whiteSpace=wrap;html=1;" parent="1" vertex="1">
          <mxGeometry x="40" y="720" width="120" height="40" as="geometry" />
        </mxCell>
        <mxCell id="a4Z7WdKTb3kv_-mjPA5u-27" style="edgeStyle=orthogonalEdgeStyle;rounded=0;orthogonalLoop=1;jettySize=auto;html=1;exitX=0.5;exitY=1;exitDx=0;exitDy=0;entryX=0.5;entryY=0;entryDx=0;entryDy=0;" parent="1" source="a4Z7WdKTb3kv_-mjPA5u-6" target="a4Z7WdKTb3kv_-mjPA5u-3" edge="1">
          <mxGeometry relative="1" as="geometry" />
        </mxCell>
        <mxCell id="a4Z7WdKTb3kv_-mjPA5u-6" value="开始播放" style="rounded=1;whiteSpace=wrap;html=1;" parent="1" vertex="1">
          <mxGeometry x="40" y="240" width="120" height="40" as="geometry" />
        </mxCell>
        <mxCell id="a4Z7WdKTb3kv_-mjPA5u-18" style="edgeStyle=orthogonalEdgeStyle;rounded=0;orthogonalLoop=1;jettySize=auto;html=1;exitX=0.5;exitY=1;exitDx=0;exitDy=0;entryX=0.5;entryY=0;entryDx=0;entryDy=0;" parent="1" source="a4Z7WdKTb3kv_-mjPA5u-7" target="a4Z7WdKTb3kv_-mjPA5u-17" edge="1">
          <mxGeometry relative="1" as="geometry" />
        </mxCell>
        <mxCell id="a4Z7WdKTb3kv_-mjPA5u-19" style="edgeStyle=orthogonalEdgeStyle;rounded=0;orthogonalLoop=1;jettySize=auto;html=1;exitX=0.5;exitY=1;exitDx=0;exitDy=0;entryX=0.5;entryY=0;entryDx=0;entryDy=0;" parent="1" source="a4Z7WdKTb3kv_-mjPA5u-7" target="a4Z7WdKTb3kv_-mjPA5u-16" edge="1">
          <mxGeometry relative="1" as="geometry" />
        </mxCell>
        <mxCell id="a4Z7WdKTb3kv_-mjPA5u-7" value="判断&lt;br&gt;错误类型" style="rhombus;whiteSpace=wrap;html=1;" parent="1" vertex="1">
          <mxGeometry x="240" y="400" width="80" height="80" as="geometry" />
        </mxCell>
        <mxCell id="a4Z7WdKTb3kv_-mjPA5u-21" style="edgeStyle=orthogonalEdgeStyle;rounded=0;orthogonalLoop=1;jettySize=auto;html=1;exitX=0.5;exitY=1;exitDx=0;exitDy=0;entryX=0.5;entryY=0;entryDx=0;entryDy=0;" parent="1" source="a4Z7WdKTb3kv_-mjPA5u-16" target="a4Z7WdKTb3kv_-mjPA5u-5" edge="1">
          <mxGeometry relative="1" as="geometry" />
        </mxCell>
        <mxCell id="a4Z7WdKTb3kv_-mjPA5u-16" value="网络错误&lt;br&gt;（详见右侧）" style="rounded=1;whiteSpace=wrap;html=1;" parent="1" vertex="1">
          <mxGeometry x="160" y="540" width="80" height="40" as="geometry" />
        </mxCell>
        <mxCell id="a4Z7WdKTb3kv_-mjPA5u-20" style="edgeStyle=orthogonalEdgeStyle;rounded=0;orthogonalLoop=1;jettySize=auto;html=1;exitX=0.5;exitY=1;exitDx=0;exitDy=0;entryX=0.5;entryY=0;entryDx=0;entryDy=0;" parent="1" source="a4Z7WdKTb3kv_-mjPA5u-17" target="a4Z7WdKTb3kv_-mjPA5u-4" edge="1">
          <mxGeometry relative="1" as="geometry" />
        </mxCell>
        <mxCell id="a4Z7WdKTb3kv_-mjPA5u-17" value="媒资错误&lt;br&gt;（详见右侧）" style="rounded=1;whiteSpace=wrap;html=1;" parent="1" vertex="1">
          <mxGeometry x="320" y="540" width="80" height="40" as="geometry" />
        </mxCell>
        <mxCell id="6YJJyLP3BQe_TjqYYZrS-3" style="edgeStyle=orthogonalEdgeStyle;rounded=0;orthogonalLoop=1;jettySize=auto;html=1;exitX=0.5;exitY=1;exitDx=0;exitDy=0;entryX=0.5;entryY=0;entryDx=0;entryDy=0;" parent="1" source="6YJJyLP3BQe_TjqYYZrS-1" target="a4Z7WdKTb3kv_-mjPA5u-6" edge="1">
          <mxGeometry relative="1" as="geometry" />
        </mxCell>
        <mxCell id="_vKPsbk_mfaIQuk5k7xS-2" value="是" style="edgeLabel;html=1;align=center;verticalAlign=middle;resizable=0;points=[];" parent="6YJJyLP3BQe_TjqYYZrS-3" vertex="1" connectable="0">
          <mxGeometry x="-0.1939" y="-3" relative="1" as="geometry">
            <mxPoint x="-7" y="4" as="offset" />
          </mxGeometry>
        </mxCell>
        <mxCell id="_vKPsbk_mfaIQuk5k7xS-1" style="edgeStyle=orthogonalEdgeStyle;rounded=0;orthogonalLoop=1;jettySize=auto;html=1;exitX=1;exitY=0.5;exitDx=0;exitDy=0;entryX=1;entryY=0.5;entryDx=0;entryDy=0;" parent="1" source="6YJJyLP3BQe_TjqYYZrS-1" target="a4Z7WdKTb3kv_-mjPA5u-4" edge="1">
          <mxGeometry relative="1" as="geometry">
            <Array as="points">
              <mxPoint x="440" y="160" />
              <mxPoint x="440" y="660" />
            </Array>
          </mxGeometry>
        </mxCell>
        <mxCell id="_vKPsbk_mfaIQuk5k7xS-3" value="否" style="edgeLabel;html=1;align=center;verticalAlign=middle;resizable=0;points=[];" parent="_vKPsbk_mfaIQuk5k7xS-1" vertex="1" connectable="0">
          <mxGeometry x="-0.9227" y="4" relative="1" as="geometry">
            <mxPoint x="6" y="-6" as="offset" />
          </mxGeometry>
        </mxCell>
        <mxCell id="6YJJyLP3BQe_TjqYYZrS-1" value="不在配置名单中&lt;br&gt;（详见右侧）" style="rhombus;whiteSpace=wrap;html=1;" parent="1" vertex="1">
          <mxGeometry x="40" y="120" width="120" height="80" as="geometry" />
        </mxCell>
        <mxCell id="_vKPsbk_mfaIQuk5k7xS-12" value="" style="swimlane;startSize=0;rounded=0;shadow=0;dashed=1;fontSize=12;fillColor=none;" parent="1" vertex="1">
          <mxGeometry x="480" y="40" width="340" height="640" as="geometry">
            <mxRectangle x="480" y="40" width="50" height="40" as="alternateBounds" />
          </mxGeometry>
        </mxCell>
        <mxCell id="_vKPsbk_mfaIQuk5k7xS-7" value="Configuration List" style="swimlane;startSize=23;" parent="_vKPsbk_mfaIQuk5k7xS-12" vertex="1">
          <mxGeometry x="40" y="40" width="280" height="100" as="geometry" />
        </mxCell>
        <mxCell id="_vKPsbk_mfaIQuk5k7xS-8" value="使用 Native 解决方案的场景" style="rounded=1;whiteSpace=wrap;html=1;align=center;" parent="_vKPsbk_mfaIQuk5k7xS-7" vertex="1">
          <mxGeometry x="20" y="40" width="240" height="40" as="geometry" />
        </mxCell>
        <mxCell id="_vKPsbk_mfaIQuk5k7xS-4" value="Media Error Code" style="swimlane;" parent="_vKPsbk_mfaIQuk5k7xS-12" vertex="1">
          <mxGeometry x="40" y="400" width="280" height="200" as="geometry" />
        </mxCell>
        <mxCell id="_vKPsbk_mfaIQuk5k7xS-6" value="&lt;p style=&quot;line-height: 1.2;&quot;&gt;&lt;/p&gt;&lt;div&gt;1：用户请求中止了相关资源的获取（&lt;font color=&quot;#ff3333&quot;&gt;&lt;b&gt;媒资&lt;/b&gt;&lt;/font&gt;错误）&lt;/div&gt;&lt;div&gt;2：发生了某种网络错误（&lt;font color=&quot;#ff3333&quot;&gt;&lt;b&gt;网络&lt;/b&gt;&lt;/font&gt;错误）&lt;/div&gt;&lt;div&gt;3：在尝试解码媒体资源时发生错误（&lt;font color=&quot;#ff3333&quot;&gt;&lt;b&gt;媒资&lt;/b&gt;&lt;/font&gt;错误）&lt;/div&gt;&lt;div&gt;4：已发现关联的资源或媒体提供程序对象不合适（&lt;font color=&quot;#ff3333&quot;&gt;&lt;b&gt;媒资&lt;/b&gt;&lt;/font&gt;错误）&lt;/div&gt;&lt;p&gt;&lt;/p&gt;" style="rounded=1;whiteSpace=wrap;html=1;align=left;" parent="_vKPsbk_mfaIQuk5k7xS-4" vertex="1">
          <mxGeometry x="20" y="40" width="240" height="140" as="geometry" />
        </mxCell>
      </root>
    </mxGraphModel>
  </diagram>
  <diagram id="ZmCosZS6X-OYqC3yd20Q" name="启动 URL 处理逻辑">
    <mxGraphModel dx="1687" dy="892" grid="1" gridSize="10" guides="1" tooltips="1" connect="1" arrows="1" fold="1" page="1" pageScale="1" pageWidth="827" pageHeight="1169" math="0" shadow="0">
      <root>
        <mxCell id="0" />
        <mxCell id="1" parent="0" />
        <mxCell id="IKw-rPSomzAikYHAmwpF-1" value="" style="rounded=0;whiteSpace=wrap;html=1;fillColor=none;dashed=1;strokeColor=#999999;" parent="1" vertex="1">
          <mxGeometry x="460" y="240" width="540" height="560" as="geometry" />
        </mxCell>
        <mxCell id="3z6edAKmwaeDPocG3Skz-42" value="" style="rounded=0;whiteSpace=wrap;html=1;fillColor=none;dashed=1;strokeColor=#FF8000;" parent="1" vertex="1">
          <mxGeometry x="60" y="240" width="380" height="560" as="geometry" />
        </mxCell>
        <mxCell id="3z6edAKmwaeDPocG3Skz-4" value="" style="edgeStyle=orthogonalEdgeStyle;rounded=0;orthogonalLoop=1;jettySize=auto;html=1;" parent="1" source="3z6edAKmwaeDPocG3Skz-1" target="3z6edAKmwaeDPocG3Skz-3" edge="1">
          <mxGeometry relative="1" as="geometry" />
        </mxCell>
        <mxCell id="3z6edAKmwaeDPocG3Skz-1" value="HiPlayer 启动" style="rounded=1;whiteSpace=wrap;html=1;" parent="1" vertex="1">
          <mxGeometry x="320" y="80" width="120" height="40" as="geometry" />
        </mxCell>
        <object placeholders="1" c4Name="启动 URL 处理逻辑" c4Type="ContainerScopeBoundary" c4Application="HiPlayer" label="&lt;font style=&quot;font-size: 16px&quot;&gt;&lt;b&gt;&lt;div style=&quot;text-align: left&quot;&gt;%c4Name%&lt;/div&gt;&lt;/b&gt;&lt;/font&gt;&lt;div style=&quot;text-align: left&quot;&gt;[%c4Application%]&lt;/div&gt;" id="3z6edAKmwaeDPocG3Skz-2">
          <mxCell style="rounded=1;fontSize=11;whiteSpace=wrap;html=1;dashed=1;arcSize=20;fillColor=none;strokeColor=#666666;fontColor=#333333;labelBackgroundColor=none;align=left;verticalAlign=bottom;labelBorderColor=none;spacingTop=0;spacing=10;dashPattern=8 4;metaEdit=1;rotatable=0;perimeter=rectanglePerimeter;noLabel=0;labelPadding=0;allowArrows=0;connectable=0;expand=0;recursiveResize=0;editable=1;pointerEvents=0;absoluteArcSize=1;points=[[0.25,0,0],[0.5,0,0],[0.75,0,0],[1,0.25,0],[1,0.5,0],[1,0.75,0],[0.75,1,0],[0.5,1,0],[0.25,1,0],[0,0.75,0],[0,0.5,0],[0,0.25,0]];" parent="1" vertex="1">
            <mxGeometry x="40" y="40" width="980" height="1160" as="geometry" />
          </mxCell>
        </object>
        <mxCell id="3z6edAKmwaeDPocG3Skz-18" value="" style="edgeStyle=orthogonalEdgeStyle;rounded=0;orthogonalLoop=1;jettySize=auto;html=1;" parent="1" source="3z6edAKmwaeDPocG3Skz-3" target="3z6edAKmwaeDPocG3Skz-17" edge="1">
          <mxGeometry relative="1" as="geometry" />
        </mxCell>
        <mxCell id="3z6edAKmwaeDPocG3Skz-3" value="获取启动 URL" style="whiteSpace=wrap;html=1;rounded=1;" parent="1" vertex="1">
          <mxGeometry x="320" y="160" width="120" height="40" as="geometry" />
        </mxCell>
        <mxCell id="3z6edAKmwaeDPocG3Skz-11" style="edgeStyle=orthogonalEdgeStyle;rounded=0;orthogonalLoop=1;jettySize=auto;html=1;exitX=0;exitY=0.5;exitDx=0;exitDy=0;entryX=0.5;entryY=0;entryDx=0;entryDy=0;" parent="1" source="3z6edAKmwaeDPocG3Skz-5" target="3z6edAKmwaeDPocG3Skz-9" edge="1">
          <mxGeometry relative="1" as="geometry" />
        </mxCell>
        <mxCell id="3z6edAKmwaeDPocG3Skz-38" value="是" style="edgeLabel;html=1;align=center;verticalAlign=middle;resizable=0;points=[];" parent="3z6edAKmwaeDPocG3Skz-11" vertex="1" connectable="0">
          <mxGeometry x="-0.3333" relative="1" as="geometry">
            <mxPoint x="-37" y="-10" as="offset" />
          </mxGeometry>
        </mxCell>
        <mxCell id="3z6edAKmwaeDPocG3Skz-12" style="edgeStyle=orthogonalEdgeStyle;rounded=0;orthogonalLoop=1;jettySize=auto;html=1;exitX=1;exitY=0.5;exitDx=0;exitDy=0;entryX=0.5;entryY=0;entryDx=0;entryDy=0;" parent="1" source="3z6edAKmwaeDPocG3Skz-5" target="IKw-rPSomzAikYHAmwpF-3" edge="1">
          <mxGeometry relative="1" as="geometry">
            <mxPoint x="700" y="480" as="targetPoint" />
          </mxGeometry>
        </mxCell>
        <mxCell id="3z6edAKmwaeDPocG3Skz-39" value="否" style="edgeLabel;html=1;align=center;verticalAlign=middle;resizable=0;points=[];" parent="3z6edAKmwaeDPocG3Skz-12" vertex="1" connectable="0">
          <mxGeometry x="-0.3333" y="2" relative="1" as="geometry">
            <mxPoint x="23" y="-8" as="offset" />
          </mxGeometry>
        </mxCell>
        <mxCell id="3z6edAKmwaeDPocG3Skz-5" value="存在&lt;br&gt;playUrl&lt;br&gt;字段" style="rhombus;whiteSpace=wrap;html=1;rounded=1;" parent="1" vertex="1">
          <mxGeometry x="640" y="360" width="80" height="80" as="geometry" />
        </mxCell>
        <mxCell id="3z6edAKmwaeDPocG3Skz-15" style="edgeStyle=orthogonalEdgeStyle;rounded=0;orthogonalLoop=1;jettySize=auto;html=1;exitX=0.5;exitY=1;exitDx=0;exitDy=0;entryX=0.5;entryY=0;entryDx=0;entryDy=0;" parent="1" source="3z6edAKmwaeDPocG3Skz-9" target="3z6edAKmwaeDPocG3Skz-14" edge="1">
          <mxGeometry relative="1" as="geometry">
            <mxPoint x="540" y="560" as="targetPoint" />
          </mxGeometry>
        </mxCell>
        <mxCell id="3z6edAKmwaeDPocG3Skz-9" value="解析 URL 中的 playurl" style="whiteSpace=wrap;html=1;rounded=1;" parent="1" vertex="1">
          <mxGeometry x="480" y="520" width="120" height="40" as="geometry" />
        </mxCell>
        <mxCell id="IKw-rPSomzAikYHAmwpF-22" style="edgeStyle=orthogonalEdgeStyle;rounded=0;orthogonalLoop=1;jettySize=auto;html=1;exitX=0.5;exitY=1;exitDx=0;exitDy=0;entryX=0.5;entryY=0;entryDx=0;entryDy=0;" parent="1" source="3z6edAKmwaeDPocG3Skz-14" target="IKw-rPSomzAikYHAmwpF-13" edge="1">
          <mxGeometry relative="1" as="geometry" />
        </mxCell>
        <mxCell id="3z6edAKmwaeDPocG3Skz-14" value="构造 LIVE 参数" style="whiteSpace=wrap;html=1;rounded=1;fillColor=#dae8fc;strokeColor=#6c8ebf;dashed=1;" parent="1" vertex="1">
          <mxGeometry x="480" y="720" width="120" height="40" as="geometry" />
        </mxCell>
        <mxCell id="3z6edAKmwaeDPocG3Skz-21" style="edgeStyle=orthogonalEdgeStyle;rounded=0;orthogonalLoop=1;jettySize=auto;html=1;exitX=0;exitY=0.5;exitDx=0;exitDy=0;entryX=0.5;entryY=0;entryDx=0;entryDy=0;" parent="1" source="3z6edAKmwaeDPocG3Skz-17" target="3z6edAKmwaeDPocG3Skz-20" edge="1">
          <mxGeometry relative="1" as="geometry" />
        </mxCell>
        <mxCell id="3z6edAKmwaeDPocG3Skz-36" value="是" style="edgeLabel;html=1;align=center;verticalAlign=middle;resizable=0;points=[];" parent="3z6edAKmwaeDPocG3Skz-21" vertex="1" connectable="0">
          <mxGeometry x="-0.3333" y="-4" relative="1" as="geometry">
            <mxPoint x="-77" y="-6" as="offset" />
          </mxGeometry>
        </mxCell>
        <mxCell id="3z6edAKmwaeDPocG3Skz-35" style="edgeStyle=orthogonalEdgeStyle;rounded=0;orthogonalLoop=1;jettySize=auto;html=1;exitX=1;exitY=0.5;exitDx=0;exitDy=0;entryX=0.5;entryY=0;entryDx=0;entryDy=0;" parent="1" source="3z6edAKmwaeDPocG3Skz-17" target="3z6edAKmwaeDPocG3Skz-5" edge="1">
          <mxGeometry relative="1" as="geometry" />
        </mxCell>
        <mxCell id="3z6edAKmwaeDPocG3Skz-37" value="否" style="edgeLabel;html=1;align=center;verticalAlign=middle;resizable=0;points=[];" parent="3z6edAKmwaeDPocG3Skz-35" vertex="1" connectable="0">
          <mxGeometry x="0.3333" y="-2" relative="1" as="geometry">
            <mxPoint x="70" y="-12" as="offset" />
          </mxGeometry>
        </mxCell>
        <mxCell id="3z6edAKmwaeDPocG3Skz-17" value="存在&lt;br&gt;mediaid&lt;br&gt;字段" style="rhombus;whiteSpace=wrap;html=1;rounded=1;" parent="1" vertex="1">
          <mxGeometry x="340" y="280" width="80" height="80" as="geometry" />
        </mxCell>
        <mxCell id="3z6edAKmwaeDPocG3Skz-24" style="edgeStyle=orthogonalEdgeStyle;rounded=0;orthogonalLoop=1;jettySize=auto;html=1;exitX=0.5;exitY=1;exitDx=0;exitDy=0;entryX=0.5;entryY=0;entryDx=0;entryDy=0;" parent="1" source="3z6edAKmwaeDPocG3Skz-20" target="3z6edAKmwaeDPocG3Skz-23" edge="1">
          <mxGeometry relative="1" as="geometry" />
        </mxCell>
        <mxCell id="3z6edAKmwaeDPocG3Skz-20" value="区分 typeCode" style="whiteSpace=wrap;html=1;rounded=1;" parent="1" vertex="1">
          <mxGeometry x="160" y="360" width="120" height="40" as="geometry" />
        </mxCell>
        <mxCell id="3z6edAKmwaeDPocG3Skz-27" value="" style="edgeStyle=orthogonalEdgeStyle;rounded=0;orthogonalLoop=1;jettySize=auto;html=1;" parent="1" source="3z6edAKmwaeDPocG3Skz-22" target="3z6edAKmwaeDPocG3Skz-26" edge="1">
          <mxGeometry relative="1" as="geometry" />
        </mxCell>
        <mxCell id="3z6edAKmwaeDPocG3Skz-22" value="获取媒资播放的 url" style="whiteSpace=wrap;html=1;rounded=1;" parent="1" vertex="1">
          <mxGeometry x="160" y="520" width="120" height="40" as="geometry" />
        </mxCell>
        <mxCell id="3z6edAKmwaeDPocG3Skz-25" style="edgeStyle=orthogonalEdgeStyle;rounded=0;orthogonalLoop=1;jettySize=auto;html=1;exitX=0.5;exitY=1;exitDx=0;exitDy=0;entryX=0.5;entryY=0;entryDx=0;entryDy=0;" parent="1" source="3z6edAKmwaeDPocG3Skz-23" target="3z6edAKmwaeDPocG3Skz-22" edge="1">
          <mxGeometry relative="1" as="geometry" />
        </mxCell>
        <mxCell id="3z6edAKmwaeDPocG3Skz-40" style="edgeStyle=orthogonalEdgeStyle;rounded=0;orthogonalLoop=1;jettySize=auto;html=1;exitX=0.5;exitY=1;exitDx=0;exitDy=0;dashed=1;" parent="1" source="3z6edAKmwaeDPocG3Skz-23" edge="1">
          <mxGeometry relative="1" as="geometry">
            <mxPoint x="220" y="420" as="targetPoint" />
          </mxGeometry>
        </mxCell>
        <mxCell id="3z6edAKmwaeDPocG3Skz-41" value="失败重试" style="edgeLabel;html=1;align=center;verticalAlign=middle;resizable=0;points=[];" parent="3z6edAKmwaeDPocG3Skz-40" vertex="1" connectable="0">
          <mxGeometry x="0.1538" y="2" relative="1" as="geometry">
            <mxPoint x="-28" y="10" as="offset" />
          </mxGeometry>
        </mxCell>
        <mxCell id="3z6edAKmwaeDPocG3Skz-23" value="请求媒资信息" style="whiteSpace=wrap;html=1;rounded=1;" parent="1" vertex="1">
          <mxGeometry x="160" y="440" width="120" height="40" as="geometry" />
        </mxCell>
        <mxCell id="3z6edAKmwaeDPocG3Skz-31" style="edgeStyle=orthogonalEdgeStyle;rounded=0;orthogonalLoop=1;jettySize=auto;html=1;exitX=0;exitY=0.5;exitDx=0;exitDy=0;entryX=0.5;entryY=0;entryDx=0;entryDy=0;" parent="1" source="3z6edAKmwaeDPocG3Skz-26" target="3z6edAKmwaeDPocG3Skz-29" edge="1">
          <mxGeometry relative="1" as="geometry" />
        </mxCell>
        <mxCell id="3z6edAKmwaeDPocG3Skz-33" value="60001&lt;br&gt;60004" style="edgeLabel;html=1;align=center;verticalAlign=middle;resizable=0;points=[];" parent="3z6edAKmwaeDPocG3Skz-31" vertex="1" connectable="0">
          <mxGeometry x="-0.15" y="-3" relative="1" as="geometry">
            <mxPoint x="-17" y="-11" as="offset" />
          </mxGeometry>
        </mxCell>
        <mxCell id="3z6edAKmwaeDPocG3Skz-32" style="edgeStyle=orthogonalEdgeStyle;rounded=0;orthogonalLoop=1;jettySize=auto;html=1;exitX=1;exitY=0.5;exitDx=0;exitDy=0;entryX=0.5;entryY=0;entryDx=0;entryDy=0;" parent="1" source="3z6edAKmwaeDPocG3Skz-26" target="3z6edAKmwaeDPocG3Skz-30" edge="1">
          <mxGeometry relative="1" as="geometry" />
        </mxCell>
        <mxCell id="3z6edAKmwaeDPocG3Skz-34" value="60007" style="edgeLabel;html=1;align=center;verticalAlign=middle;resizable=0;points=[];" parent="3z6edAKmwaeDPocG3Skz-32" vertex="1" connectable="0">
          <mxGeometry x="-0.2833" y="1" relative="1" as="geometry">
            <mxPoint x="19" y="-3" as="offset" />
          </mxGeometry>
        </mxCell>
        <mxCell id="3z6edAKmwaeDPocG3Skz-26" value="判断&lt;br&gt;typeCode" style="rhombus;whiteSpace=wrap;html=1;rounded=1;" parent="1" vertex="1">
          <mxGeometry x="180" y="600" width="80" height="80" as="geometry" />
        </mxCell>
        <mxCell id="IKw-rPSomzAikYHAmwpF-20" style="edgeStyle=orthogonalEdgeStyle;rounded=0;orthogonalLoop=1;jettySize=auto;html=1;exitX=0.5;exitY=1;exitDx=0;exitDy=0;" parent="1" source="3z6edAKmwaeDPocG3Skz-29" target="IKw-rPSomzAikYHAmwpF-13" edge="1">
          <mxGeometry relative="1" as="geometry" />
        </mxCell>
        <mxCell id="3z6edAKmwaeDPocG3Skz-29" value="构造 VOD 参数" style="whiteSpace=wrap;html=1;rounded=1;fillColor=#d5e8d4;strokeColor=#82b366;fillStyle=auto;dashed=1;gradientColor=none;gradientDirection=north;" parent="1" vertex="1">
          <mxGeometry x="80" y="720" width="120" height="40" as="geometry" />
        </mxCell>
        <mxCell id="IKw-rPSomzAikYHAmwpF-21" style="edgeStyle=orthogonalEdgeStyle;rounded=0;orthogonalLoop=1;jettySize=auto;html=1;exitX=0.5;exitY=1;exitDx=0;exitDy=0;" parent="1" source="3z6edAKmwaeDPocG3Skz-30" target="IKw-rPSomzAikYHAmwpF-13" edge="1">
          <mxGeometry relative="1" as="geometry" />
        </mxCell>
        <mxCell id="3z6edAKmwaeDPocG3Skz-30" value="构造 LIVE 参数" style="whiteSpace=wrap;html=1;rounded=1;fillColor=#dae8fc;strokeColor=#6c8ebf;dashed=1;" parent="1" vertex="1">
          <mxGeometry x="240" y="720" width="120" height="40" as="geometry" />
        </mxCell>
        <mxCell id="3z6edAKmwaeDPocG3Skz-43" value="U7 新增" style="text;html=1;strokeColor=#d79b00;fillColor=#ffe6cc;align=center;verticalAlign=middle;whiteSpace=wrap;rounded=0;dashed=1;" parent="1" vertex="1">
          <mxGeometry x="60" y="240" width="60" height="30" as="geometry" />
        </mxCell>
        <mxCell id="IKw-rPSomzAikYHAmwpF-2" value="U6及之前逻辑" style="text;html=1;strokeColor=#999999;fillColor=#E6E6E6;align=center;verticalAlign=middle;whiteSpace=wrap;rounded=0;dashed=1;" parent="1" vertex="1">
          <mxGeometry x="910" y="240" width="90" height="30" as="geometry" />
        </mxCell>
        <mxCell id="IKw-rPSomzAikYHAmwpF-6" style="edgeStyle=orthogonalEdgeStyle;rounded=0;orthogonalLoop=1;jettySize=auto;html=1;exitX=0;exitY=0.5;exitDx=0;exitDy=0;entryX=0.5;entryY=0;entryDx=0;entryDy=0;" parent="1" source="IKw-rPSomzAikYHAmwpF-3" target="IKw-rPSomzAikYHAmwpF-4" edge="1">
          <mxGeometry relative="1" as="geometry" />
        </mxCell>
        <mxCell id="IKw-rPSomzAikYHAmwpF-7" value="是" style="edgeLabel;html=1;align=center;verticalAlign=middle;resizable=0;points=[];" parent="IKw-rPSomzAikYHAmwpF-6" vertex="1" connectable="0">
          <mxGeometry x="-0.3889" y="-2" relative="1" as="geometry">
            <mxPoint x="-15" y="-8" as="offset" />
          </mxGeometry>
        </mxCell>
        <mxCell id="IKw-rPSomzAikYHAmwpF-9" style="edgeStyle=orthogonalEdgeStyle;rounded=0;orthogonalLoop=1;jettySize=auto;html=1;exitX=1;exitY=0.5;exitDx=0;exitDy=0;entryX=0.5;entryY=0;entryDx=0;entryDy=0;" parent="1" source="IKw-rPSomzAikYHAmwpF-3" target="IKw-rPSomzAikYHAmwpF-8" edge="1">
          <mxGeometry relative="1" as="geometry" />
        </mxCell>
        <mxCell id="IKw-rPSomzAikYHAmwpF-36" value="否" style="edgeLabel;html=1;align=center;verticalAlign=middle;resizable=0;points=[];fontColor=#000000;" parent="IKw-rPSomzAikYHAmwpF-9" vertex="1" connectable="0">
          <mxGeometry x="-0.4111" relative="1" as="geometry">
            <mxPoint x="17" y="-10" as="offset" />
          </mxGeometry>
        </mxCell>
        <mxCell id="IKw-rPSomzAikYHAmwpF-3" value="存在&lt;br&gt;infoData&lt;br&gt;字段" style="rhombus;whiteSpace=wrap;html=1;rounded=1;" parent="1" vertex="1">
          <mxGeometry x="760" y="480" width="80" height="80" as="geometry" />
        </mxCell>
        <mxCell id="IKw-rPSomzAikYHAmwpF-11" style="edgeStyle=orthogonalEdgeStyle;rounded=0;orthogonalLoop=1;jettySize=auto;html=1;exitX=0.5;exitY=1;exitDx=0;exitDy=0;entryX=0.5;entryY=0;entryDx=0;entryDy=0;" parent="1" source="IKw-rPSomzAikYHAmwpF-4" target="IKw-rPSomzAikYHAmwpF-5" edge="1">
          <mxGeometry relative="1" as="geometry" />
        </mxCell>
        <mxCell id="IKw-rPSomzAikYHAmwpF-4" value="解析 infoData 中的 url" style="whiteSpace=wrap;html=1;rounded=1;" parent="1" vertex="1">
          <mxGeometry x="640" y="640" width="120" height="40" as="geometry" />
        </mxCell>
        <mxCell id="IKw-rPSomzAikYHAmwpF-24" style="edgeStyle=orthogonalEdgeStyle;rounded=0;orthogonalLoop=1;jettySize=auto;html=1;exitX=0.5;exitY=1;exitDx=0;exitDy=0;entryX=0.5;entryY=0;entryDx=0;entryDy=0;" parent="1" source="IKw-rPSomzAikYHAmwpF-5" target="IKw-rPSomzAikYHAmwpF-13" edge="1">
          <mxGeometry relative="1" as="geometry" />
        </mxCell>
        <mxCell id="IKw-rPSomzAikYHAmwpF-5" value="构造 VOD 参数" style="whiteSpace=wrap;html=1;rounded=1;fillColor=#d5e8d4;strokeColor=#82b366;dashed=1;" parent="1" vertex="1">
          <mxGeometry x="640" y="720" width="120" height="40" as="geometry" />
        </mxCell>
        <mxCell id="IKw-rPSomzAikYHAmwpF-12" style="edgeStyle=orthogonalEdgeStyle;rounded=0;orthogonalLoop=1;jettySize=auto;html=1;exitX=0.5;exitY=1;exitDx=0;exitDy=0;entryX=0.5;entryY=0;entryDx=0;entryDy=0;" parent="1" source="IKw-rPSomzAikYHAmwpF-8" target="IKw-rPSomzAikYHAmwpF-10" edge="1">
          <mxGeometry relative="1" as="geometry" />
        </mxCell>
        <mxCell id="IKw-rPSomzAikYHAmwpF-8" value="解析 Route.Query" style="whiteSpace=wrap;html=1;rounded=1;" parent="1" vertex="1">
          <mxGeometry x="840" y="640" width="120" height="40" as="geometry" />
        </mxCell>
        <mxCell id="IKw-rPSomzAikYHAmwpF-25" style="edgeStyle=orthogonalEdgeStyle;rounded=0;orthogonalLoop=1;jettySize=auto;html=1;exitX=0.5;exitY=1;exitDx=0;exitDy=0;entryX=0.5;entryY=0;entryDx=0;entryDy=0;" parent="1" source="IKw-rPSomzAikYHAmwpF-10" target="IKw-rPSomzAikYHAmwpF-13" edge="1">
          <mxGeometry relative="1" as="geometry" />
        </mxCell>
        <mxCell id="IKw-rPSomzAikYHAmwpF-10" value="构造 VOD 参数" style="whiteSpace=wrap;html=1;rounded=1;fillColor=#d5e8d4;strokeColor=#82b366;dashed=1;" parent="1" vertex="1">
          <mxGeometry x="840" y="720" width="120" height="40" as="geometry" />
        </mxCell>
        <mxCell id="IKw-rPSomzAikYHAmwpF-16" style="edgeStyle=orthogonalEdgeStyle;rounded=0;orthogonalLoop=1;jettySize=auto;html=1;exitX=0;exitY=0.5;exitDx=0;exitDy=0;entryX=0.5;entryY=0;entryDx=0;entryDy=0;" parent="1" source="IKw-rPSomzAikYHAmwpF-13" target="IKw-rPSomzAikYHAmwpF-28" edge="1">
          <mxGeometry relative="1" as="geometry">
            <mxPoint x="260" y="1000" as="targetPoint" />
          </mxGeometry>
        </mxCell>
        <mxCell id="IKw-rPSomzAikYHAmwpF-18" value="是 VOD 参数" style="edgeLabel;html=1;align=center;verticalAlign=middle;resizable=0;points=[];labelBackgroundColor=#D5E8D4;labelBorderColor=#D5E8D4;" parent="IKw-rPSomzAikYHAmwpF-16" vertex="1" connectable="0">
          <mxGeometry x="-0.19" y="1" relative="1" as="geometry">
            <mxPoint x="-71" y="-15" as="offset" />
          </mxGeometry>
        </mxCell>
        <mxCell id="IKw-rPSomzAikYHAmwpF-17" style="edgeStyle=orthogonalEdgeStyle;rounded=0;orthogonalLoop=1;jettySize=auto;html=1;exitX=1;exitY=0.5;exitDx=0;exitDy=0;entryX=0.5;entryY=0;entryDx=0;entryDy=0;" parent="1" source="IKw-rPSomzAikYHAmwpF-13" target="IKw-rPSomzAikYHAmwpF-15" edge="1">
          <mxGeometry relative="1" as="geometry" />
        </mxCell>
        <mxCell id="IKw-rPSomzAikYHAmwpF-19" value="是 LIVE 参数" style="edgeLabel;html=1;align=center;verticalAlign=middle;resizable=0;points=[];labelBackgroundColor=#DAE8FC;labelBorderColor=#DAE8FC;" parent="IKw-rPSomzAikYHAmwpF-17" vertex="1" connectable="0">
          <mxGeometry x="-0.29" y="1" relative="1" as="geometry">
            <mxPoint x="39" y="-18" as="offset" />
          </mxGeometry>
        </mxCell>
        <mxCell id="IKw-rPSomzAikYHAmwpF-13" value="判断&lt;br&gt;参数类型" style="rhombus;whiteSpace=wrap;html=1;rounded=1;" parent="1" vertex="1">
          <mxGeometry x="340" y="880" width="80" height="80" as="geometry" />
        </mxCell>
        <mxCell id="IKw-rPSomzAikYHAmwpF-15" value="&lt;b&gt;启动 LIVE&lt;/b&gt;" style="whiteSpace=wrap;html=1;rounded=1;fillColor=#dae8fc;strokeColor=#6c8ebf;" parent="1" vertex="1">
          <mxGeometry x="420" y="1080" width="120" height="40" as="geometry" />
        </mxCell>
        <mxCell id="IKw-rPSomzAikYHAmwpF-26" value="&lt;b&gt;启动 VOD&lt;/b&gt;" style="whiteSpace=wrap;html=1;rounded=1;fillColor=#d5e8d4;strokeColor=#82b366;" parent="1" vertex="1">
          <mxGeometry x="120" y="1080" width="120" height="40" as="geometry" />
        </mxCell>
        <mxCell id="IKw-rPSomzAikYHAmwpF-31" style="edgeStyle=orthogonalEdgeStyle;rounded=0;orthogonalLoop=1;jettySize=auto;html=1;exitX=0;exitY=0.5;exitDx=0;exitDy=0;entryX=0.5;entryY=0;entryDx=0;entryDy=0;" parent="1" source="IKw-rPSomzAikYHAmwpF-28" target="IKw-rPSomzAikYHAmwpF-26" edge="1">
          <mxGeometry relative="1" as="geometry" />
        </mxCell>
        <mxCell id="IKw-rPSomzAikYHAmwpF-34" value="是" style="edgeLabel;html=1;align=center;verticalAlign=middle;resizable=0;points=[];fontColor=#000000;" parent="IKw-rPSomzAikYHAmwpF-31" vertex="1" connectable="0">
          <mxGeometry x="-0.3667" y="1" relative="1" as="geometry">
            <mxPoint x="-12" y="-11" as="offset" />
          </mxGeometry>
        </mxCell>
        <mxCell id="IKw-rPSomzAikYHAmwpF-32" style="edgeStyle=orthogonalEdgeStyle;rounded=0;orthogonalLoop=1;jettySize=auto;html=1;exitX=1;exitY=0.5;exitDx=0;exitDy=0;entryX=0;entryY=0.5;entryDx=0;entryDy=0;" parent="1" source="IKw-rPSomzAikYHAmwpF-28" target="IKw-rPSomzAikYHAmwpF-15" edge="1">
          <mxGeometry relative="1" as="geometry">
            <mxPoint x="340" y="1080" as="targetPoint" />
          </mxGeometry>
        </mxCell>
        <mxCell id="IKw-rPSomzAikYHAmwpF-35" value="否" style="edgeLabel;html=1;align=center;verticalAlign=middle;resizable=0;points=[];fontColor=#000000;" parent="IKw-rPSomzAikYHAmwpF-32" vertex="1" connectable="0">
          <mxGeometry x="-0.3333" y="-1" relative="1" as="geometry">
            <mxPoint x="11" y="-23" as="offset" />
          </mxGeometry>
        </mxCell>
        <mxCell id="IKw-rPSomzAikYHAmwpF-28" value="是否为&lt;br&gt;广告" style="rhombus;whiteSpace=wrap;html=1;rounded=1;" parent="1" vertex="1">
          <mxGeometry x="220" y="960" width="80" height="80" as="geometry" />
        </mxCell>
      </root>
    </mxGraphModel>
  </diagram>
  <diagram id="wtBTAhjfNURCUj2oTOO8" name="应用启动时序图">
    <mxGraphModel dx="1434" dy="758" grid="1" gridSize="10" guides="1" tooltips="1" connect="1" arrows="1" fold="1" page="1" pageScale="1" pageWidth="850" pageHeight="1100" math="0" shadow="0">
      <root>
        <mxCell id="0" />
        <mxCell id="1" parent="0" />
        <mxCell id="yKrE4251kxUDyiFwJNv8-1" value="" style="shape=umlLifeline;perimeter=lifelinePerimeter;whiteSpace=wrap;html=1;container=1;dropTarget=0;collapsible=0;recursiveResize=0;outlineConnect=0;portConstraint=eastwest;newEdgeStyle={&quot;edgeStyle&quot;:&quot;elbowEdgeStyle&quot;,&quot;elbow&quot;:&quot;vertical&quot;,&quot;curved&quot;:0,&quot;rounded&quot;:0};participant=umlActor;size=60;fillColor=#f8cecc;strokeColor=#b85450;strokeWidth=2;" vertex="1" parent="1">
          <mxGeometry x="40" y="80" width="40" height="680" as="geometry" />
        </mxCell>
        <mxCell id="yKrE4251kxUDyiFwJNv8-2" value="HiPlayer" style="shape=umlLifeline;perimeter=lifelinePerimeter;whiteSpace=wrap;html=1;container=1;dropTarget=0;collapsible=0;recursiveResize=0;outlineConnect=0;portConstraint=eastwest;newEdgeStyle={&quot;edgeStyle&quot;:&quot;elbowEdgeStyle&quot;,&quot;elbow&quot;:&quot;vertical&quot;,&quot;curved&quot;:0,&quot;rounded&quot;:0};size=60;fillColor=#d5e8d4;strokeColor=#82b366;strokeWidth=2;" vertex="1" parent="1">
          <mxGeometry x="360" y="80" width="120" height="680" as="geometry" />
        </mxCell>
        <mxCell id="yKrE4251kxUDyiFwJNv8-35" value="" style="html=1;points=[];perimeter=orthogonalPerimeter;outlineConnect=0;targetShapes=umlLifeline;portConstraint=eastwest;newEdgeStyle={&quot;edgeStyle&quot;:&quot;elbowEdgeStyle&quot;,&quot;elbow&quot;:&quot;vertical&quot;,&quot;curved&quot;:0,&quot;rounded&quot;:0};" vertex="1" parent="yKrE4251kxUDyiFwJNv8-2">
          <mxGeometry x="55" y="120" width="10" height="40" as="geometry" />
        </mxCell>
        <mxCell id="yKrE4251kxUDyiFwJNv8-40" value="" style="html=1;points=[];perimeter=orthogonalPerimeter;outlineConnect=0;targetShapes=umlLifeline;portConstraint=eastwest;newEdgeStyle={&quot;edgeStyle&quot;:&quot;elbowEdgeStyle&quot;,&quot;elbow&quot;:&quot;vertical&quot;,&quot;curved&quot;:0,&quot;rounded&quot;:0};" vertex="1" parent="yKrE4251kxUDyiFwJNv8-2">
          <mxGeometry x="55" y="200" width="10" height="80" as="geometry" />
        </mxCell>
        <mxCell id="yKrE4251kxUDyiFwJNv8-41" value="3. 处理启动 URL 链接" style="html=1;align=left;spacingLeft=2;endArrow=block;rounded=0;edgeStyle=orthogonalEdgeStyle;curved=0;rounded=0;dashed=1;" edge="1" target="yKrE4251kxUDyiFwJNv8-40" parent="yKrE4251kxUDyiFwJNv8-2" source="yKrE4251kxUDyiFwJNv8-35">
          <mxGeometry relative="1" as="geometry">
            <mxPoint x="60" y="140" as="sourcePoint" />
            <Array as="points">
              <mxPoint x="90" y="140" />
              <mxPoint x="90" y="200" />
            </Array>
            <mxPoint as="offset" />
          </mxGeometry>
        </mxCell>
        <mxCell id="yKrE4251kxUDyiFwJNv8-60" value="" style="html=1;points=[];perimeter=orthogonalPerimeter;outlineConnect=0;targetShapes=umlLifeline;portConstraint=eastwest;newEdgeStyle={&quot;edgeStyle&quot;:&quot;elbowEdgeStyle&quot;,&quot;elbow&quot;:&quot;vertical&quot;,&quot;curved&quot;:0,&quot;rounded&quot;:0};" vertex="1" parent="yKrE4251kxUDyiFwJNv8-2">
          <mxGeometry x="55" y="440" width="10" height="80" as="geometry" />
        </mxCell>
        <mxCell id="yKrE4251kxUDyiFwJNv8-8" value="1. 打开媒资应用" style="html=1;verticalAlign=bottom;startArrow=oval;endArrow=block;startSize=8;edgeStyle=elbowEdgeStyle;elbow=vertical;curved=0;rounded=0;" edge="1" parent="1" source="yKrE4251kxUDyiFwJNv8-1" target="yKrE4251kxUDyiFwJNv8-34">
          <mxGeometry x="-0.0096" relative="1" as="geometry">
            <mxPoint x="150" y="160" as="sourcePoint" />
            <mxPoint as="offset" />
          </mxGeometry>
        </mxCell>
        <mxCell id="yKrE4251kxUDyiFwJNv8-9" value="&amp;nbsp; &amp;nbsp; &amp;nbsp; Other Media App" style="shape=umlLifeline;perimeter=lifelinePerimeter;whiteSpace=wrap;html=1;container=1;dropTarget=0;collapsible=0;recursiveResize=0;outlineConnect=0;portConstraint=eastwest;newEdgeStyle={&quot;edgeStyle&quot;:&quot;elbowEdgeStyle&quot;,&quot;elbow&quot;:&quot;vertical&quot;,&quot;curved&quot;:0,&quot;rounded&quot;:0};participant=umlBoundary;size=60;fillColor=#fff2cc;strokeColor=#d6b656;strokeWidth=2;" vertex="1" parent="1">
          <mxGeometry x="160" y="80" width="120" height="680" as="geometry" />
        </mxCell>
        <mxCell id="yKrE4251kxUDyiFwJNv8-34" value="" style="html=1;points=[];perimeter=orthogonalPerimeter;outlineConnect=0;targetShapes=umlLifeline;portConstraint=eastwest;newEdgeStyle={&quot;edgeStyle&quot;:&quot;elbowEdgeStyle&quot;,&quot;elbow&quot;:&quot;vertical&quot;,&quot;curved&quot;:0,&quot;rounded&quot;:0};" vertex="1" parent="yKrE4251kxUDyiFwJNv8-9">
          <mxGeometry x="55" y="80" width="10" height="40" as="geometry" />
        </mxCell>
        <mxCell id="yKrE4251kxUDyiFwJNv8-22" value="&amp;nbsp; &amp;nbsp;JHK Cloud" style="shape=umlLifeline;perimeter=lifelinePerimeter;whiteSpace=wrap;html=1;container=1;dropTarget=0;collapsible=0;recursiveResize=0;outlineConnect=0;portConstraint=eastwest;newEdgeStyle={&quot;edgeStyle&quot;:&quot;elbowEdgeStyle&quot;,&quot;elbow&quot;:&quot;vertical&quot;,&quot;curved&quot;:0,&quot;rounded&quot;:0};participant=umlBoundary;size=60;fillColor=#fff2cc;strokeColor=#d6b656;strokeWidth=2;" vertex="1" parent="1">
          <mxGeometry x="600" y="80" width="80" height="680" as="geometry" />
        </mxCell>
        <mxCell id="yKrE4251kxUDyiFwJNv8-42" value="" style="html=1;points=[];perimeter=orthogonalPerimeter;outlineConnect=0;targetShapes=umlLifeline;portConstraint=eastwest;newEdgeStyle={&quot;edgeStyle&quot;:&quot;elbowEdgeStyle&quot;,&quot;elbow&quot;:&quot;vertical&quot;,&quot;curved&quot;:0,&quot;rounded&quot;:0};" vertex="1" parent="yKrE4251kxUDyiFwJNv8-22">
          <mxGeometry x="35" y="200" width="10" height="80" as="geometry" />
        </mxCell>
        <mxCell id="yKrE4251kxUDyiFwJNv8-36" value="2. 打开 JHK 媒资" style="html=1;verticalAlign=bottom;startArrow=oval;endArrow=block;startSize=8;edgeStyle=elbowEdgeStyle;elbow=vertical;curved=0;rounded=0;" edge="1" target="yKrE4251kxUDyiFwJNv8-35" parent="1" source="yKrE4251kxUDyiFwJNv8-9">
          <mxGeometry x="0.0051" relative="1" as="geometry">
            <mxPoint x="355" y="200" as="sourcePoint" />
            <mxPoint as="offset" />
          </mxGeometry>
        </mxCell>
        <mxCell id="yKrE4251kxUDyiFwJNv8-43" value="4. 请求 JHK 云端数据&lt;br&gt;（若 typecode 为 600001 或 600004）" style="html=1;verticalAlign=bottom;startArrow=oval;endArrow=block;startSize=8;edgeStyle=elbowEdgeStyle;elbow=vertical;curved=0;rounded=0;" edge="1" target="yKrE4251kxUDyiFwJNv8-42" parent="1" source="yKrE4251kxUDyiFwJNv8-2">
          <mxGeometry x="0.0008" relative="1" as="geometry">
            <mxPoint x="535" y="280" as="sourcePoint" />
            <mxPoint as="offset" />
          </mxGeometry>
        </mxCell>
        <mxCell id="yKrE4251kxUDyiFwJNv8-44" value="5. 返回 JHK 媒资信息" style="html=1;verticalAlign=bottom;endArrow=open;dashed=1;endSize=8;edgeStyle=elbowEdgeStyle;elbow=vertical;curved=0;rounded=0;" edge="1" parent="1" target="yKrE4251kxUDyiFwJNv8-2">
          <mxGeometry relative="1" as="geometry">
            <mxPoint x="644.57" y="360" as="sourcePoint" />
            <mxPoint x="424.9985714285713" y="360.1428571428571" as="targetPoint" />
          </mxGeometry>
        </mxCell>
        <mxCell id="yKrE4251kxUDyiFwJNv8-48" value="&amp;nbsp; &amp;nbsp; &amp;nbsp; Odin Browser" style="shape=umlLifeline;perimeter=lifelinePerimeter;whiteSpace=wrap;html=1;container=1;dropTarget=0;collapsible=0;recursiveResize=0;outlineConnect=0;portConstraint=eastwest;newEdgeStyle={&quot;edgeStyle&quot;:&quot;elbowEdgeStyle&quot;,&quot;elbow&quot;:&quot;vertical&quot;,&quot;curved&quot;:0,&quot;rounded&quot;:0};participant=umlBoundary;size=60;fillColor=#fff2cc;strokeColor=#d6b656;strokeWidth=2;" vertex="1" parent="1">
          <mxGeometry x="760" y="80" width="120" height="680" as="geometry" />
        </mxCell>
        <mxCell id="yKrE4251kxUDyiFwJNv8-52" value="" style="html=1;points=[];perimeter=orthogonalPerimeter;outlineConnect=0;targetShapes=umlLifeline;portConstraint=eastwest;newEdgeStyle={&quot;edgeStyle&quot;:&quot;elbowEdgeStyle&quot;,&quot;elbow&quot;:&quot;vertical&quot;,&quot;curved&quot;:0,&quot;rounded&quot;:0};" vertex="1" parent="yKrE4251kxUDyiFwJNv8-48">
          <mxGeometry x="55" y="320" width="10" height="40" as="geometry" />
        </mxCell>
        <mxCell id="yKrE4251kxUDyiFwJNv8-61" value="" style="html=1;points=[];perimeter=orthogonalPerimeter;outlineConnect=0;targetShapes=umlLifeline;portConstraint=eastwest;newEdgeStyle={&quot;edgeStyle&quot;:&quot;elbowEdgeStyle&quot;,&quot;elbow&quot;:&quot;vertical&quot;,&quot;curved&quot;:0,&quot;rounded&quot;:0};" vertex="1" parent="yKrE4251kxUDyiFwJNv8-48">
          <mxGeometry x="55" y="480" width="10" height="40" as="geometry" />
        </mxCell>
        <mxCell id="yKrE4251kxUDyiFwJNv8-50" value="&amp;nbsp; &amp;nbsp; &amp;nbsp;Play BackEnd" style="shape=umlLifeline;perimeter=lifelinePerimeter;whiteSpace=wrap;html=1;container=1;dropTarget=0;collapsible=0;recursiveResize=0;outlineConnect=0;portConstraint=eastwest;newEdgeStyle={&quot;edgeStyle&quot;:&quot;elbowEdgeStyle&quot;,&quot;elbow&quot;:&quot;vertical&quot;,&quot;curved&quot;:0,&quot;rounded&quot;:0};participant=umlBoundary;size=60;fillColor=#fff2cc;strokeColor=#d6b656;strokeWidth=2;" vertex="1" parent="1">
          <mxGeometry x="920" y="80" width="120" height="680" as="geometry" />
        </mxCell>
        <mxCell id="yKrE4251kxUDyiFwJNv8-55" value="" style="html=1;points=[];perimeter=orthogonalPerimeter;outlineConnect=0;targetShapes=umlLifeline;portConstraint=eastwest;newEdgeStyle={&quot;edgeStyle&quot;:&quot;elbowEdgeStyle&quot;,&quot;elbow&quot;:&quot;vertical&quot;,&quot;curved&quot;:0,&quot;rounded&quot;:0};" vertex="1" parent="yKrE4251kxUDyiFwJNv8-50">
          <mxGeometry x="55" y="360" width="10" height="80" as="geometry" />
        </mxCell>
        <mxCell id="yKrE4251kxUDyiFwJNv8-63" value="" style="html=1;points=[];perimeter=orthogonalPerimeter;outlineConnect=0;targetShapes=umlLifeline;portConstraint=eastwest;newEdgeStyle={&quot;edgeStyle&quot;:&quot;elbowEdgeStyle&quot;,&quot;elbow&quot;:&quot;vertical&quot;,&quot;curved&quot;:0,&quot;rounded&quot;:0};" vertex="1" parent="yKrE4251kxUDyiFwJNv8-50">
          <mxGeometry x="55" y="520" width="10" height="80" as="geometry" />
        </mxCell>
        <mxCell id="yKrE4251kxUDyiFwJNv8-53" value="6. 调用 VideoElement 的 load 方法，设置 video source" style="html=1;verticalAlign=bottom;startArrow=oval;endArrow=block;startSize=8;edgeStyle=elbowEdgeStyle;elbow=vertical;curved=0;rounded=0;" edge="1" target="yKrE4251kxUDyiFwJNv8-52" parent="1" source="yKrE4251kxUDyiFwJNv8-2">
          <mxGeometry relative="1" as="geometry">
            <mxPoint x="755" y="400" as="sourcePoint" />
          </mxGeometry>
        </mxCell>
        <mxCell id="yKrE4251kxUDyiFwJNv8-56" value="7. 通知底层下载 Metadata 信息" style="html=1;verticalAlign=bottom;startArrow=oval;endArrow=block;startSize=8;edgeStyle=elbowEdgeStyle;elbow=vertical;curved=0;rounded=0;" edge="1" target="yKrE4251kxUDyiFwJNv8-55" parent="1" source="yKrE4251kxUDyiFwJNv8-48">
          <mxGeometry relative="1" as="geometry">
            <mxPoint x="915" y="440" as="sourcePoint" />
          </mxGeometry>
        </mxCell>
        <mxCell id="yKrE4251kxUDyiFwJNv8-57" value="9. 抛出 canplay 消息" style="html=1;verticalAlign=bottom;endArrow=open;dashed=1;endSize=8;edgeStyle=elbowEdgeStyle;elbow=vertical;curved=0;rounded=0;" edge="1" parent="1">
          <mxGeometry relative="1" as="geometry">
            <mxPoint x="980" y="520" as="sourcePoint" />
            <mxPoint x="820" y="520" as="targetPoint" />
          </mxGeometry>
        </mxCell>
        <mxCell id="yKrE4251kxUDyiFwJNv8-59" value="10. 透传 canplay 消息" style="html=1;verticalAlign=bottom;endArrow=open;dashed=1;endSize=8;edgeStyle=elbowEdgeStyle;elbow=vertical;curved=0;rounded=0;" edge="1" parent="1" target="yKrE4251kxUDyiFwJNv8-2">
          <mxGeometry relative="1" as="geometry">
            <mxPoint x="820" y="540" as="sourcePoint" />
            <mxPoint x="740" y="540" as="targetPoint" />
          </mxGeometry>
        </mxCell>
        <mxCell id="yKrE4251kxUDyiFwJNv8-62" value="11. 调用 VideoElement 的 play 方法，准备开始播放" style="html=1;verticalAlign=bottom;startArrow=oval;endArrow=block;startSize=8;edgeStyle=elbowEdgeStyle;elbow=vertical;curved=0;rounded=0;" edge="1" target="yKrE4251kxUDyiFwJNv8-61" parent="1" source="yKrE4251kxUDyiFwJNv8-60">
          <mxGeometry relative="1" as="geometry">
            <mxPoint x="755" y="560" as="sourcePoint" />
          </mxGeometry>
        </mxCell>
        <mxCell id="yKrE4251kxUDyiFwJNv8-64" value="12. 通知底层开始播放" style="html=1;verticalAlign=bottom;startArrow=oval;endArrow=block;startSize=8;edgeStyle=elbowEdgeStyle;elbow=vertical;curved=0;rounded=0;" edge="1" target="yKrE4251kxUDyiFwJNv8-63" parent="1" source="yKrE4251kxUDyiFwJNv8-48">
          <mxGeometry relative="1" as="geometry">
            <mxPoint x="915" y="600" as="sourcePoint" />
          </mxGeometry>
        </mxCell>
        <mxCell id="yKrE4251kxUDyiFwJNv8-65" value="13. 抛出 playing 消息" style="html=1;verticalAlign=bottom;endArrow=open;dashed=1;endSize=8;edgeStyle=elbowEdgeStyle;elbow=vertical;curved=0;rounded=0;" edge="1" parent="1">
          <mxGeometry x="-0.0021" relative="1" as="geometry">
            <mxPoint x="980" y="680" as="sourcePoint" />
            <mxPoint x="820" y="680" as="targetPoint" />
            <mxPoint as="offset" />
          </mxGeometry>
        </mxCell>
        <mxCell id="yKrE4251kxUDyiFwJNv8-66" value="14. 透传 playing 消息" style="html=1;verticalAlign=bottom;endArrow=open;dashed=1;endSize=8;edgeStyle=elbowEdgeStyle;elbow=vertical;curved=0;rounded=0;" edge="1" parent="1">
          <mxGeometry relative="1" as="geometry">
            <mxPoint x="820" y="700" as="sourcePoint" />
            <mxPoint x="420" y="700" as="targetPoint" />
          </mxGeometry>
        </mxCell>
        <mxCell id="yKrE4251kxUDyiFwJNv8-67" value="15. HiPlayer 画面开始播放，并展示在屏幕上" style="html=1;verticalAlign=bottom;endArrow=open;dashed=1;endSize=8;edgeStyle=elbowEdgeStyle;elbow=vertical;curved=0;rounded=0;" edge="1" parent="1" target="yKrE4251kxUDyiFwJNv8-1">
          <mxGeometry relative="1" as="geometry">
            <mxPoint x="420" y="720" as="sourcePoint" />
            <mxPoint x="340" y="720" as="targetPoint" />
          </mxGeometry>
        </mxCell>
      </root>
    </mxGraphModel>
  </diagram>
  <diagram id="IKXFsnNdH3VgLHm4jKHy" name="Context Diagram 上下文图">
    <mxGraphModel dx="2284" dy="758" grid="1" gridSize="10" guides="1" tooltips="1" connect="1" arrows="1" fold="1" page="1" pageScale="1" pageWidth="850" pageHeight="1100" background="none" math="0" shadow="0">
      <root>
        <mxCell id="0" />
        <mxCell id="1" parent="0" />
        <mxCell id="MlX5gU0QkiREP9J341Ql-1" style="rounded=0;orthogonalLoop=1;jettySize=auto;html=1;exitX=0.25;exitY=1;exitDx=0;exitDy=0;exitPerimeter=0;entryX=0.5;entryY=0;entryDx=0;entryDy=0;entryPerimeter=0;dashed=1;snapToPoint=0;" parent="1" source="MlX5gU0QkiREP9J341Ql-5" target="MlX5gU0QkiREP9J341Ql-8" edge="1">
          <mxGeometry relative="1" as="geometry">
            <Array as="points" />
          </mxGeometry>
        </mxCell>
        <mxCell id="MlX5gU0QkiREP9J341Ql-2" value="View Media" style="edgeLabel;html=1;align=center;verticalAlign=middle;resizable=0;points=[];snapToPoint=0;" parent="MlX5gU0QkiREP9J341Ql-1" vertex="1" connectable="0">
          <mxGeometry x="-0.2552" y="1" relative="1" as="geometry">
            <mxPoint x="-11" y="2" as="offset" />
          </mxGeometry>
        </mxCell>
        <mxCell id="MlX5gU0QkiREP9J341Ql-3" style="edgeStyle=none;rounded=0;orthogonalLoop=1;jettySize=auto;html=1;exitX=0.75;exitY=1;exitDx=0;exitDy=0;exitPerimeter=0;entryX=0.5;entryY=0;entryDx=0;entryDy=0;entryPerimeter=0;dashed=1;snapToPoint=0;" parent="1" source="MlX5gU0QkiREP9J341Ql-5" target="MlX5gU0QkiREP9J341Ql-14" edge="1">
          <mxGeometry relative="1" as="geometry" />
        </mxCell>
        <mxCell id="MlX5gU0QkiREP9J341Ql-4" value="Operating Application" style="edgeLabel;html=1;align=center;verticalAlign=middle;resizable=0;points=[];snapToPoint=0;" parent="MlX5gU0QkiREP9J341Ql-3" vertex="1" connectable="0">
          <mxGeometry x="-0.2912" y="2" relative="1" as="geometry">
            <mxPoint x="12" y="6" as="offset" />
          </mxGeometry>
        </mxCell>
        <object c4Name="User" c4Type="Person" c4Description="Users of TV." label="&lt;font style=&quot;font-size: 16px&quot;&gt;&lt;b&gt;%c4Name%&lt;/b&gt;&lt;/font&gt;&lt;div&gt;[%c4Type%]&lt;/div&gt;&lt;br&gt;&lt;div&gt;&lt;font style=&quot;font-size: 11px&quot;&gt;&lt;font color=&quot;#cccccc&quot;&gt;%c4Description%&lt;/font&gt;&lt;/div&gt;" placeholders="1" id="MlX5gU0QkiREP9J341Ql-5">
          <mxCell style="html=1;fontSize=11;dashed=0;whitespace=wrap;fillColor=#083F75;strokeColor=#06315C;fontColor=#ffffff;shape=mxgraph.c4.person2;align=center;metaEdit=1;points=[[0.5,0,0],[1,0.5,0],[1,0.75,0],[0.75,1,0],[0.5,1,0],[0.25,1,0],[0,0.75,0],[0,0.5,0]];resizable=0;snapToPoint=0;" parent="1" vertex="1">
            <mxGeometry x="-650" y="20" width="200" height="180" as="geometry" />
          </mxCell>
        </object>
        <mxCell id="MlX5gU0QkiREP9J341Ql-6" style="edgeStyle=none;rounded=0;orthogonalLoop=1;jettySize=auto;html=1;exitX=1;exitY=0.5;exitDx=0;exitDy=0;exitPerimeter=0;entryX=0;entryY=0.5;entryDx=0;entryDy=0;entryPerimeter=0;dashed=1;snapToPoint=0;" parent="1" source="MlX5gU0QkiREP9J341Ql-8" target="MlX5gU0QkiREP9J341Ql-14" edge="1">
          <mxGeometry relative="1" as="geometry" />
        </mxCell>
        <mxCell id="MlX5gU0QkiREP9J341Ql-7" value="Playback" style="edgeLabel;html=1;align=center;verticalAlign=middle;resizable=0;points=[];snapToPoint=0;" parent="MlX5gU0QkiREP9J341Ql-6" vertex="1" connectable="0">
          <mxGeometry x="-0.3461" y="-1" relative="1" as="geometry">
            <mxPoint x="14" y="-1" as="offset" />
          </mxGeometry>
        </mxCell>
        <object placeholders="1" c4Name="VIDAA App" c4Type="Container: Vue" c4Description="VIDAA Free, Store, Sports, Vidaa Plus, launcher etc." label="&lt;font style=&quot;font-size: 16px&quot;&gt;&lt;b&gt;%c4Name%&lt;/b&gt;&lt;/font&gt;&lt;div&gt;[%c4Type%]&lt;/div&gt;&lt;br&gt;&lt;div&gt;&lt;font style=&quot;font-size: 11px&quot;&gt;&lt;font color=&quot;#cccccc&quot;&gt;%c4Description%&lt;/font&gt;&lt;/div&gt;" id="MlX5gU0QkiREP9J341Ql-8">
          <mxCell style="rounded=1;whiteSpace=wrap;html=1;labelBackgroundColor=none;fillColor=#8C8496;fontColor=#333333;align=center;arcSize=10;strokeColor=#736782;metaEdit=1;resizable=0;points=[[0.25,0,0],[0.5,0,0],[0.75,0,0],[1,0.25,0],[1,0.5,0],[1,0.75,0],[0.75,1,0],[0.5,1,0],[0.25,1,0],[0,0.75,0],[0,0.5,0],[0,0.25,0]];snapToPoint=0;" parent="1" vertex="1">
            <mxGeometry x="-720" y="360" width="240" height="120" as="geometry" />
          </mxCell>
        </object>
        <object placeholders="1" c4Name="JHK Cloud" c4Type="Server System" c4Description="Save media asset information, watch history, and advertising content." label="&lt;font style=&quot;font-size: 16px&quot;&gt;&lt;b&gt;%c4Name%&lt;/b&gt;&lt;/font&gt;&lt;div&gt;[%c4Type%]&lt;/div&gt;&lt;br&gt;&lt;div&gt;&lt;font style=&quot;font-size: 11px&quot;&gt;&lt;font color=&quot;#cccccc&quot;&gt;%c4Description%&lt;/font&gt;&lt;/div&gt;" id="MlX5gU0QkiREP9J341Ql-9">
          <mxCell style="rounded=1;whiteSpace=wrap;html=1;labelBackgroundColor=none;fillColor=#8C8496;align=center;arcSize=10;strokeColor=#736782;metaEdit=1;resizable=0;points=[[0.25,0,0],[0.5,0,0],[0.75,0,0],[1,0.25,0],[1,0.5,0],[1,0.75,0],[0.75,1,0],[0.5,1,0],[0.25,1,0],[0,0.75,0],[0,0.5,0],[0,0.25,0]];fontColor=#333333;snapToPoint=0;" parent="1" vertex="1">
            <mxGeometry x="40" y="160" width="240" height="120" as="geometry" />
          </mxCell>
        </object>
        <mxCell id="MlX5gU0QkiREP9J341Ql-10" style="edgeStyle=none;rounded=0;orthogonalLoop=1;jettySize=auto;html=1;exitX=1;exitY=0.25;exitDx=0;exitDy=0;exitPerimeter=0;entryX=0;entryY=0.5;entryDx=0;entryDy=0;entryPerimeter=0;dashed=1;snapToPoint=0;" parent="1" source="MlX5gU0QkiREP9J341Ql-14" target="MlX5gU0QkiREP9J341Ql-9" edge="1">
          <mxGeometry relative="1" as="geometry" />
        </mxCell>
        <mxCell id="MlX5gU0QkiREP9J341Ql-11" value="Request Media&lt;br&gt;Information" style="edgeLabel;html=1;align=center;verticalAlign=middle;resizable=0;points=[];snapToPoint=0;" parent="MlX5gU0QkiREP9J341Ql-10" vertex="1" connectable="0">
          <mxGeometry x="0.3382" y="-2" relative="1" as="geometry">
            <mxPoint x="-8" y="9" as="offset" />
          </mxGeometry>
        </mxCell>
        <mxCell id="MlX5gU0QkiREP9J341Ql-12" style="edgeStyle=none;rounded=0;orthogonalLoop=1;jettySize=auto;html=1;exitX=1;exitY=0.75;exitDx=0;exitDy=0;exitPerimeter=0;entryX=0;entryY=0.5;entryDx=0;entryDy=0;entryPerimeter=0;dashed=1;snapToPoint=0;" parent="1" source="MlX5gU0QkiREP9J341Ql-14" target="MlX5gU0QkiREP9J341Ql-15" edge="1">
          <mxGeometry relative="1" as="geometry" />
        </mxCell>
        <mxCell id="MlX5gU0QkiREP9J341Ql-13" value="Playback&lt;br&gt;Streaming Media" style="edgeLabel;html=1;align=center;verticalAlign=middle;resizable=0;points=[];snapToPoint=0;" parent="MlX5gU0QkiREP9J341Ql-12" vertex="1" connectable="0">
          <mxGeometry x="0.2284" y="2" relative="1" as="geometry">
            <mxPoint y="1" as="offset" />
          </mxGeometry>
        </mxCell>
        <object placeholders="1" c4Name="HiPlayer" c4Type="Container: Vue,Video" c4Description="Play streaming media of HLS, DASH protocol." label="&lt;font style=&quot;font-size: 16px&quot;&gt;&lt;b&gt;%c4Name%&lt;/b&gt;&lt;/font&gt;&lt;div&gt;[%c4Type%]&lt;/div&gt;&lt;br&gt;&lt;div&gt;&lt;font style=&quot;font-size: 11px&quot;&gt;&lt;font color=&quot;#cccccc&quot;&gt;%c4Description%&lt;/font&gt;&lt;/div&gt;" id="MlX5gU0QkiREP9J341Ql-14">
          <mxCell style="rounded=1;whiteSpace=wrap;html=1;labelBackgroundColor=none;fillColor=#3162AF;fontColor=#ffffff;align=center;arcSize=10;strokeColor=#0D5091;metaEdit=1;resizable=0;points=[[0.25,0,0],[0.5,0,0],[0.75,0,0],[1,0.25,0],[1,0.5,0],[1,0.75,0],[0.75,1,0],[0.5,1,0],[0.25,1,0],[0,0.75,0],[0,0.5,0],[0,0.25,0]];snapToPoint=0;" parent="1" vertex="1">
            <mxGeometry x="-400" y="360" width="240" height="120" as="geometry" />
          </mxCell>
        </object>
        <object placeholders="1" c4Name="Odin/Vewd Broswer" c4Type="Software System" c4Description="Provide streaming media parsing protocol stack." label="&lt;font style=&quot;font-size: 16px&quot;&gt;&lt;b&gt;%c4Name%&lt;/b&gt;&lt;/font&gt;&lt;div&gt;[%c4Type%]&lt;/div&gt;&lt;br&gt;&lt;div&gt;&lt;font style=&quot;font-size: 11px&quot;&gt;&lt;font color=&quot;#cccccc&quot;&gt;%c4Description%&lt;/font&gt;&lt;/div&gt;" id="MlX5gU0QkiREP9J341Ql-15">
          <mxCell style="rounded=1;whiteSpace=wrap;html=1;labelBackgroundColor=none;fillColor=#8C8496;fontColor=#333333;align=center;arcSize=10;strokeColor=#736782;metaEdit=1;resizable=0;points=[[0.25,0,0],[0.5,0,0],[0.75,0,0],[1,0.25,0],[1,0.5,0],[1,0.75,0],[0.75,1,0],[0.5,1,0],[0.25,1,0],[0,0.75,0],[0,0.5,0],[0,0.25,0]];snapToPoint=0;" parent="1" vertex="1">
            <mxGeometry x="40" y="360" width="240" height="120" as="geometry" />
          </mxCell>
        </object>
        <mxCell id="LMwZtQpDXyXudcFwoByV-1" value="Legend" style="shape=table;startSize=30;container=1;collapsible=0;childLayout=tableLayout;fontSize=16;align=left;verticalAlign=top;fillColor=none;strokeColor=none;fontColor=#4D4D4D;fontStyle=1;spacingLeft=6;spacing=0;resizable=0;rounded=1;labelBackgroundColor=none;hachureGap=4;fontFamily=Architects Daughter;fontSource=https%3A%2F%2Ffonts.googleapis.com%2Fcss%3Ffamily%3DArchitects%2BDaughter;html=1;snapToPoint=0;" parent="1" vertex="1">
          <mxGeometry x="-280" y="10" width="180" height="180" as="geometry" />
        </mxCell>
        <mxCell id="LMwZtQpDXyXudcFwoByV-2" value="" style="shape=tableRow;horizontal=0;startSize=0;swimlaneHead=0;swimlaneBody=0;strokeColor=inherit;top=0;left=0;bottom=0;right=0;collapsible=0;dropTarget=0;fillColor=none;points=[[0,0.5],[1,0.5]];portConstraint=eastwest;fontSize=12;rounded=1;labelBackgroundColor=none;hachureGap=4;fontFamily=Architects Daughter;fontSource=https%3A%2F%2Ffonts.googleapis.com%2Fcss%3Ffamily%3DArchitects%2BDaughter;fontColor=#ffffff;html=1;snapToPoint=0;" parent="LMwZtQpDXyXudcFwoByV-1" vertex="1">
          <mxGeometry y="30" width="180" height="30" as="geometry" />
        </mxCell>
        <mxCell id="LMwZtQpDXyXudcFwoByV-3" value="Person" style="shape=partialRectangle;html=1;whiteSpace=wrap;connectable=0;strokeColor=inherit;overflow=hidden;fillColor=#083F75;top=0;left=0;bottom=0;right=0;pointerEvents=1;fontSize=12;align=left;fontColor=#FFFFFF;gradientColor=none;spacingLeft=10;spacingRight=4;rounded=1;labelBackgroundColor=none;hachureGap=4;fontFamily=Architects Daughter;fontSource=https%3A%2F%2Ffonts.googleapis.com%2Fcss%3Ffamily%3DArchitects%2BDaughter;snapToPoint=0;" parent="LMwZtQpDXyXudcFwoByV-2" vertex="1">
          <mxGeometry width="180" height="30" as="geometry">
            <mxRectangle width="180" height="30" as="alternateBounds" />
          </mxGeometry>
        </mxCell>
        <mxCell id="LMwZtQpDXyXudcFwoByV-4" value="" style="shape=tableRow;horizontal=0;startSize=0;swimlaneHead=0;swimlaneBody=0;strokeColor=inherit;top=0;left=0;bottom=0;right=0;collapsible=0;dropTarget=0;fillColor=none;points=[[0,0.5],[1,0.5]];portConstraint=eastwest;fontSize=12;rounded=1;labelBackgroundColor=none;hachureGap=4;fontFamily=Architects Daughter;fontSource=https%3A%2F%2Ffonts.googleapis.com%2Fcss%3Ffamily%3DArchitects%2BDaughter;fontColor=#ffffff;html=1;snapToPoint=0;" parent="LMwZtQpDXyXudcFwoByV-1" vertex="1">
          <mxGeometry y="60" width="180" height="30" as="geometry" />
        </mxCell>
        <mxCell id="LMwZtQpDXyXudcFwoByV-5" value="Software System" style="shape=partialRectangle;html=1;whiteSpace=wrap;connectable=0;strokeColor=inherit;overflow=hidden;fillColor=#3162AF;top=0;left=0;bottom=0;right=0;pointerEvents=1;fontSize=12;align=left;fontColor=#FFFFFF;gradientColor=none;spacingLeft=10;spacingRight=4;rounded=1;labelBackgroundColor=none;hachureGap=4;fontFamily=Architects Daughter;fontSource=https%3A%2F%2Ffonts.googleapis.com%2Fcss%3Ffamily%3DArchitects%2BDaughter;snapToPoint=0;" parent="LMwZtQpDXyXudcFwoByV-4" vertex="1">
          <mxGeometry width="180" height="30" as="geometry">
            <mxRectangle width="180" height="30" as="alternateBounds" />
          </mxGeometry>
        </mxCell>
        <mxCell id="LMwZtQpDXyXudcFwoByV-6" value="" style="shape=tableRow;horizontal=0;startSize=0;swimlaneHead=0;swimlaneBody=0;strokeColor=inherit;top=0;left=0;bottom=0;right=0;collapsible=0;dropTarget=0;fillColor=none;points=[[0,0.5],[1,0.5]];portConstraint=eastwest;fontSize=12;rounded=1;labelBackgroundColor=none;hachureGap=4;fontFamily=Architects Daughter;fontSource=https%3A%2F%2Ffonts.googleapis.com%2Fcss%3Ffamily%3DArchitects%2BDaughter;fontColor=#ffffff;html=1;snapToPoint=0;" parent="LMwZtQpDXyXudcFwoByV-1" vertex="1">
          <mxGeometry y="90" width="180" height="30" as="geometry" />
        </mxCell>
        <mxCell id="LMwZtQpDXyXudcFwoByV-7" value="Container" style="shape=partialRectangle;html=1;whiteSpace=wrap;connectable=0;strokeColor=inherit;overflow=hidden;fillColor=#23A2D9;top=0;left=0;bottom=0;right=0;pointerEvents=1;fontSize=12;align=left;fontColor=#FFFFFF;gradientColor=none;spacingLeft=10;spacingRight=4;rounded=1;labelBackgroundColor=none;hachureGap=4;fontFamily=Architects Daughter;fontSource=https%3A%2F%2Ffonts.googleapis.com%2Fcss%3Ffamily%3DArchitects%2BDaughter;snapToPoint=0;" parent="LMwZtQpDXyXudcFwoByV-6" vertex="1">
          <mxGeometry width="180" height="30" as="geometry">
            <mxRectangle width="180" height="30" as="alternateBounds" />
          </mxGeometry>
        </mxCell>
        <mxCell id="LMwZtQpDXyXudcFwoByV-8" value="" style="shape=tableRow;horizontal=0;startSize=0;swimlaneHead=0;swimlaneBody=0;strokeColor=inherit;top=0;left=0;bottom=0;right=0;collapsible=0;dropTarget=0;fillColor=none;points=[[0,0.5],[1,0.5]];portConstraint=eastwest;fontSize=12;rounded=1;labelBackgroundColor=none;hachureGap=4;fontFamily=Architects Daughter;fontSource=https%3A%2F%2Ffonts.googleapis.com%2Fcss%3Ffamily%3DArchitects%2BDaughter;fontColor=#ffffff;html=1;snapToPoint=0;" parent="LMwZtQpDXyXudcFwoByV-1" vertex="1">
          <mxGeometry y="120" width="180" height="30" as="geometry" />
        </mxCell>
        <mxCell id="LMwZtQpDXyXudcFwoByV-9" value="Component" style="shape=partialRectangle;html=1;whiteSpace=wrap;connectable=0;strokeColor=inherit;overflow=hidden;fillColor=#63BEF2;top=0;left=0;bottom=0;right=0;pointerEvents=1;fontSize=12;align=left;fontColor=#FFFFFF;gradientColor=none;spacingLeft=10;spacingRight=4;rounded=1;labelBackgroundColor=none;hachureGap=4;fontFamily=Architects Daughter;fontSource=https%3A%2F%2Ffonts.googleapis.com%2Fcss%3Ffamily%3DArchitects%2BDaughter;snapToPoint=0;" parent="LMwZtQpDXyXudcFwoByV-8" vertex="1">
          <mxGeometry width="180" height="30" as="geometry">
            <mxRectangle width="180" height="30" as="alternateBounds" />
          </mxGeometry>
        </mxCell>
        <mxCell id="LMwZtQpDXyXudcFwoByV-10" value="" style="shape=tableRow;horizontal=0;startSize=0;swimlaneHead=0;swimlaneBody=0;strokeColor=inherit;top=0;left=0;bottom=0;right=0;collapsible=0;dropTarget=0;fillColor=none;points=[[0,0.5],[1,0.5]];portConstraint=eastwest;fontSize=12;rounded=1;labelBackgroundColor=none;hachureGap=4;fontFamily=Architects Daughter;fontSource=https%3A%2F%2Ffonts.googleapis.com%2Fcss%3Ffamily%3DArchitects%2BDaughter;fontColor=#ffffff;html=1;snapToPoint=0;" parent="LMwZtQpDXyXudcFwoByV-1" vertex="1">
          <mxGeometry y="150" width="180" height="30" as="geometry" />
        </mxCell>
        <mxCell id="LMwZtQpDXyXudcFwoByV-11" value="External Software System" style="shape=partialRectangle;html=1;whiteSpace=wrap;connectable=0;strokeColor=inherit;overflow=hidden;fillColor=#8C8496;top=0;left=0;bottom=0;right=0;pointerEvents=1;fontSize=12;align=left;fontColor=#FFFFFF;gradientColor=none;spacingLeft=10;spacingRight=4;rounded=1;labelBackgroundColor=none;hachureGap=4;fontFamily=Architects Daughter;fontSource=https%3A%2F%2Ffonts.googleapis.com%2Fcss%3Ffamily%3DArchitects%2BDaughter;snapToPoint=0;" parent="LMwZtQpDXyXudcFwoByV-10" vertex="1">
          <mxGeometry width="180" height="30" as="geometry">
            <mxRectangle width="180" height="30" as="alternateBounds" />
          </mxGeometry>
        </mxCell>
      </root>
    </mxGraphModel>
  </diagram>
  <diagram id="tMlcBi685zTQghpppUxc" name="Container Diagram 容器图">
    <mxGraphModel dx="2537" dy="892" grid="1" gridSize="10" guides="1" tooltips="1" connect="1" arrows="1" fold="1" page="1" pageScale="1" pageWidth="850" pageHeight="1100" math="0" shadow="0">
      <root>
        <mxCell id="0" />
        <mxCell id="1" parent="0" />
        <mxCell id="qAhF0RHkh9mFL0z07ujq-1" style="rounded=0;orthogonalLoop=1;jettySize=auto;html=1;exitX=0.25;exitY=1;exitDx=0;exitDy=0;exitPerimeter=0;entryX=0.5;entryY=0;entryDx=0;entryDy=0;entryPerimeter=0;dashed=1;" parent="1" source="qAhF0RHkh9mFL0z07ujq-5" target="5_775ze1f49_cxB21c7C-2" edge="1">
          <mxGeometry relative="1" as="geometry">
            <Array as="points" />
          </mxGeometry>
        </mxCell>
        <mxCell id="qAhF0RHkh9mFL0z07ujq-2" value="View Media" style="edgeLabel;html=1;align=center;verticalAlign=middle;resizable=0;points=[];" parent="qAhF0RHkh9mFL0z07ujq-1" vertex="1" connectable="0">
          <mxGeometry x="-0.2552" y="1" relative="1" as="geometry">
            <mxPoint x="-11" y="2" as="offset" />
          </mxGeometry>
        </mxCell>
        <object c4Name="User" c4Type="Person" c4Description="Users of TV." label="&lt;font style=&quot;font-size: 16px&quot;&gt;&lt;b&gt;%c4Name%&lt;/b&gt;&lt;/font&gt;&lt;div&gt;[%c4Type%]&lt;/div&gt;&lt;br&gt;&lt;div&gt;&lt;font style=&quot;font-size: 11px&quot;&gt;&lt;font color=&quot;#cccccc&quot;&gt;%c4Description%&lt;/font&gt;&lt;/div&gt;" placeholders="1" id="qAhF0RHkh9mFL0z07ujq-5">
          <mxCell style="html=1;fontSize=11;dashed=0;whitespace=wrap;fillColor=#083F75;strokeColor=#06315C;fontColor=#ffffff;shape=mxgraph.c4.person2;align=center;metaEdit=1;points=[[0.5,0,0],[1,0.5,0],[1,0.75,0],[0.75,1,0],[0.5,1,0],[0.25,1,0],[0,0.75,0],[0,0.5,0]];resizable=0;" parent="1" vertex="1">
            <mxGeometry x="-760" y="60" width="200" height="180" as="geometry" />
          </mxCell>
        </object>
        <mxCell id="qAhF0RHkh9mFL0z07ujq-6" style="edgeStyle=none;rounded=0;orthogonalLoop=1;jettySize=auto;html=1;exitX=1;exitY=0.5;exitDx=0;exitDy=0;exitPerimeter=0;dashed=1;" parent="1" source="5_775ze1f49_cxB21c7C-2" edge="1">
          <mxGeometry relative="1" as="geometry">
            <mxPoint x="-520" y="440" as="targetPoint" />
          </mxGeometry>
        </mxCell>
        <mxCell id="qAhF0RHkh9mFL0z07ujq-7" value="Playback" style="edgeLabel;html=1;align=center;verticalAlign=middle;resizable=0;points=[];" parent="qAhF0RHkh9mFL0z07ujq-6" vertex="1" connectable="0">
          <mxGeometry x="-0.3461" y="-1" relative="1" as="geometry">
            <mxPoint x="14" y="-1" as="offset" />
          </mxGeometry>
        </mxCell>
        <object placeholders="1" c4Name="JHK Cloud" c4Type="External System" c4Description="Save media asset information, watch history, and advertising content." label="&lt;font style=&quot;font-size: 16px&quot;&gt;&lt;b&gt;%c4Name%&lt;/b&gt;&lt;/font&gt;&lt;div&gt;[%c4Type%]&lt;/div&gt;&lt;br&gt;&lt;div&gt;&lt;font style=&quot;font-size: 11px&quot;&gt;&lt;font color=&quot;#cccccc&quot;&gt;%c4Description%&lt;/font&gt;&lt;/div&gt;" id="qAhF0RHkh9mFL0z07ujq-9">
          <mxCell style="rounded=1;whiteSpace=wrap;html=1;labelBackgroundColor=none;fillColor=#8C8496;align=center;arcSize=10;strokeColor=#736782;metaEdit=1;resizable=0;points=[[0.25,0,0],[0.5,0,0],[0.75,0,0],[1,0.25,0],[1,0.5,0],[1,0.75,0],[0.75,1,0],[0.5,1,0],[0.25,1,0],[0,0.75,0],[0,0.5,0],[0,0.25,0]];fontColor=#333333;" parent="1" vertex="1">
            <mxGeometry x="560" y="280" width="240" height="120" as="geometry" />
          </mxCell>
        </object>
        <mxCell id="qAhF0RHkh9mFL0z07ujq-10" style="edgeStyle=none;rounded=0;orthogonalLoop=1;jettySize=auto;html=1;entryX=0;entryY=0.5;entryDx=0;entryDy=0;entryPerimeter=0;dashed=1;" parent="1" target="qAhF0RHkh9mFL0z07ujq-9" edge="1">
          <mxGeometry relative="1" as="geometry">
            <mxPoint x="400" y="400" as="sourcePoint" />
          </mxGeometry>
        </mxCell>
        <mxCell id="qAhF0RHkh9mFL0z07ujq-11" value="Request Media&lt;br&gt;Information" style="edgeLabel;html=1;align=center;verticalAlign=middle;resizable=0;points=[];" parent="qAhF0RHkh9mFL0z07ujq-10" vertex="1" connectable="0">
          <mxGeometry x="0.3382" y="-2" relative="1" as="geometry">
            <mxPoint x="-8" y="9" as="offset" />
          </mxGeometry>
        </mxCell>
        <mxCell id="qAhF0RHkh9mFL0z07ujq-12" style="edgeStyle=none;rounded=0;orthogonalLoop=1;jettySize=auto;html=1;entryX=0;entryY=0.5;entryDx=0;entryDy=0;entryPerimeter=0;dashed=1;" parent="1" target="qAhF0RHkh9mFL0z07ujq-15" edge="1">
          <mxGeometry relative="1" as="geometry">
            <mxPoint x="400" y="560" as="sourcePoint" />
          </mxGeometry>
        </mxCell>
        <mxCell id="qAhF0RHkh9mFL0z07ujq-13" value="Playback&lt;br&gt;Streaming Media" style="edgeLabel;html=1;align=center;verticalAlign=middle;resizable=0;points=[];" parent="qAhF0RHkh9mFL0z07ujq-12" vertex="1" connectable="0">
          <mxGeometry x="0.2284" y="2" relative="1" as="geometry">
            <mxPoint y="1" as="offset" />
          </mxGeometry>
        </mxCell>
        <object placeholders="1" c4Name="Odin/Vewd Broswer" c4Type="External System" c4Description="Provide streaming media parsing protocol stack." label="&lt;font style=&quot;font-size: 16px&quot;&gt;&lt;b&gt;%c4Name%&lt;/b&gt;&lt;/font&gt;&lt;div&gt;[%c4Type%]&lt;/div&gt;&lt;br&gt;&lt;div&gt;&lt;font style=&quot;font-size: 11px&quot;&gt;&lt;font color=&quot;#cccccc&quot;&gt;%c4Description%&lt;/font&gt;&lt;/div&gt;" id="qAhF0RHkh9mFL0z07ujq-15">
          <mxCell style="rounded=1;whiteSpace=wrap;html=1;labelBackgroundColor=none;fillColor=#8C8496;fontColor=#333333;align=center;arcSize=10;strokeColor=#736782;metaEdit=1;resizable=0;points=[[0.25,0,0],[0.5,0,0],[0.75,0,0],[1,0.25,0],[1,0.5,0],[1,0.75,0],[0.75,1,0],[0.5,1,0],[0.25,1,0],[0,0.75,0],[0,0.5,0],[0,0.25,0]];" parent="1" vertex="1">
            <mxGeometry x="560" y="560" width="240" height="120" as="geometry" />
          </mxCell>
        </object>
        <object placeholders="1" c4Name="VIDAA HiPlayer" c4Type="ContainerScopeBoundary" c4Application="Container" label="&lt;font style=&quot;font-size: 16px&quot;&gt;&lt;b&gt;&lt;div style=&quot;text-align: left&quot;&gt;%c4Name%&lt;/div&gt;&lt;/b&gt;&lt;/font&gt;&lt;div style=&quot;text-align: left&quot;&gt;[%c4Application%]&lt;/div&gt;" id="qAhF0RHkh9mFL0z07ujq-16">
          <mxCell style="rounded=1;fontSize=11;whiteSpace=wrap;html=1;dashed=1;arcSize=20;fillColor=none;strokeColor=#666666;fontColor=#333333;labelBackgroundColor=none;align=left;verticalAlign=bottom;labelBorderColor=none;spacingTop=0;spacing=10;dashPattern=8 4;metaEdit=1;rotatable=0;perimeter=rectanglePerimeter;noLabel=0;labelPadding=0;allowArrows=0;connectable=0;expand=0;recursiveResize=0;editable=1;pointerEvents=0;absoluteArcSize=1;points=[[0.25,0,0],[0.5,0,0],[0.75,0,0],[1,0.25,0],[1,0.5,0],[1,0.75,0],[0.75,1,0],[0.5,1,0],[0.25,1,0],[0,0.75,0],[0,0.5,0],[0,0.25,0]];" parent="1" vertex="1">
            <mxGeometry x="-520" y="240" width="920" height="680" as="geometry" />
          </mxCell>
        </object>
        <mxCell id="RmwASyD4USrBqrYl8Xqp-11" value="Legend" style="shape=table;startSize=30;container=1;collapsible=0;childLayout=tableLayout;fontSize=16;align=left;verticalAlign=top;fillColor=none;strokeColor=none;fontColor=#4D4D4D;fontStyle=1;spacingLeft=6;spacing=0;resizable=0;rounded=1;labelBackgroundColor=none;hachureGap=4;fontFamily=Architects Daughter;fontSource=https%3A%2F%2Ffonts.googleapis.com%2Fcss%3Ffamily%3DArchitects%2BDaughter;html=1;" parent="1" vertex="1">
          <mxGeometry x="-200" y="20" width="180" height="180" as="geometry" />
        </mxCell>
        <mxCell id="RmwASyD4USrBqrYl8Xqp-12" value="" style="shape=tableRow;horizontal=0;startSize=0;swimlaneHead=0;swimlaneBody=0;strokeColor=inherit;top=0;left=0;bottom=0;right=0;collapsible=0;dropTarget=0;fillColor=none;points=[[0,0.5],[1,0.5]];portConstraint=eastwest;fontSize=12;rounded=1;labelBackgroundColor=none;hachureGap=4;fontFamily=Architects Daughter;fontSource=https%3A%2F%2Ffonts.googleapis.com%2Fcss%3Ffamily%3DArchitects%2BDaughter;fontColor=#ffffff;html=1;" parent="RmwASyD4USrBqrYl8Xqp-11" vertex="1">
          <mxGeometry y="30" width="180" height="30" as="geometry" />
        </mxCell>
        <mxCell id="RmwASyD4USrBqrYl8Xqp-13" value="Person" style="shape=partialRectangle;html=1;whiteSpace=wrap;connectable=0;strokeColor=inherit;overflow=hidden;fillColor=#083F75;top=0;left=0;bottom=0;right=0;pointerEvents=1;fontSize=12;align=left;fontColor=#FFFFFF;gradientColor=none;spacingLeft=10;spacingRight=4;rounded=1;labelBackgroundColor=none;hachureGap=4;fontFamily=Architects Daughter;fontSource=https%3A%2F%2Ffonts.googleapis.com%2Fcss%3Ffamily%3DArchitects%2BDaughter;" parent="RmwASyD4USrBqrYl8Xqp-12" vertex="1">
          <mxGeometry width="180" height="30" as="geometry">
            <mxRectangle width="180" height="30" as="alternateBounds" />
          </mxGeometry>
        </mxCell>
        <mxCell id="RmwASyD4USrBqrYl8Xqp-14" value="" style="shape=tableRow;horizontal=0;startSize=0;swimlaneHead=0;swimlaneBody=0;strokeColor=inherit;top=0;left=0;bottom=0;right=0;collapsible=0;dropTarget=0;fillColor=none;points=[[0,0.5],[1,0.5]];portConstraint=eastwest;fontSize=12;rounded=1;labelBackgroundColor=none;hachureGap=4;fontFamily=Architects Daughter;fontSource=https%3A%2F%2Ffonts.googleapis.com%2Fcss%3Ffamily%3DArchitects%2BDaughter;fontColor=#ffffff;html=1;" parent="RmwASyD4USrBqrYl8Xqp-11" vertex="1">
          <mxGeometry y="60" width="180" height="30" as="geometry" />
        </mxCell>
        <mxCell id="RmwASyD4USrBqrYl8Xqp-15" value="Software System" style="shape=partialRectangle;html=1;whiteSpace=wrap;connectable=0;strokeColor=inherit;overflow=hidden;fillColor=#3162AF;top=0;left=0;bottom=0;right=0;pointerEvents=1;fontSize=12;align=left;fontColor=#FFFFFF;gradientColor=none;spacingLeft=10;spacingRight=4;rounded=1;labelBackgroundColor=none;hachureGap=4;fontFamily=Architects Daughter;fontSource=https%3A%2F%2Ffonts.googleapis.com%2Fcss%3Ffamily%3DArchitects%2BDaughter;" parent="RmwASyD4USrBqrYl8Xqp-14" vertex="1">
          <mxGeometry width="180" height="30" as="geometry">
            <mxRectangle width="180" height="30" as="alternateBounds" />
          </mxGeometry>
        </mxCell>
        <mxCell id="RmwASyD4USrBqrYl8Xqp-16" value="" style="shape=tableRow;horizontal=0;startSize=0;swimlaneHead=0;swimlaneBody=0;strokeColor=inherit;top=0;left=0;bottom=0;right=0;collapsible=0;dropTarget=0;fillColor=none;points=[[0,0.5],[1,0.5]];portConstraint=eastwest;fontSize=12;rounded=1;labelBackgroundColor=none;hachureGap=4;fontFamily=Architects Daughter;fontSource=https%3A%2F%2Ffonts.googleapis.com%2Fcss%3Ffamily%3DArchitects%2BDaughter;fontColor=#ffffff;html=1;" parent="RmwASyD4USrBqrYl8Xqp-11" vertex="1">
          <mxGeometry y="90" width="180" height="30" as="geometry" />
        </mxCell>
        <mxCell id="RmwASyD4USrBqrYl8Xqp-17" value="Container" style="shape=partialRectangle;html=1;whiteSpace=wrap;connectable=0;strokeColor=inherit;overflow=hidden;fillColor=#23A2D9;top=0;left=0;bottom=0;right=0;pointerEvents=1;fontSize=12;align=left;fontColor=#FFFFFF;gradientColor=none;spacingLeft=10;spacingRight=4;rounded=1;labelBackgroundColor=none;hachureGap=4;fontFamily=Architects Daughter;fontSource=https%3A%2F%2Ffonts.googleapis.com%2Fcss%3Ffamily%3DArchitects%2BDaughter;" parent="RmwASyD4USrBqrYl8Xqp-16" vertex="1">
          <mxGeometry width="180" height="30" as="geometry">
            <mxRectangle width="180" height="30" as="alternateBounds" />
          </mxGeometry>
        </mxCell>
        <mxCell id="RmwASyD4USrBqrYl8Xqp-18" value="" style="shape=tableRow;horizontal=0;startSize=0;swimlaneHead=0;swimlaneBody=0;strokeColor=inherit;top=0;left=0;bottom=0;right=0;collapsible=0;dropTarget=0;fillColor=none;points=[[0,0.5],[1,0.5]];portConstraint=eastwest;fontSize=12;rounded=1;labelBackgroundColor=none;hachureGap=4;fontFamily=Architects Daughter;fontSource=https%3A%2F%2Ffonts.googleapis.com%2Fcss%3Ffamily%3DArchitects%2BDaughter;fontColor=#ffffff;html=1;" parent="RmwASyD4USrBqrYl8Xqp-11" vertex="1">
          <mxGeometry y="120" width="180" height="30" as="geometry" />
        </mxCell>
        <mxCell id="RmwASyD4USrBqrYl8Xqp-19" value="Component" style="shape=partialRectangle;html=1;whiteSpace=wrap;connectable=0;strokeColor=inherit;overflow=hidden;fillColor=#63BEF2;top=0;left=0;bottom=0;right=0;pointerEvents=1;fontSize=12;align=left;fontColor=#FFFFFF;gradientColor=none;spacingLeft=10;spacingRight=4;rounded=1;labelBackgroundColor=none;hachureGap=4;fontFamily=Architects Daughter;fontSource=https%3A%2F%2Ffonts.googleapis.com%2Fcss%3Ffamily%3DArchitects%2BDaughter;" parent="RmwASyD4USrBqrYl8Xqp-18" vertex="1">
          <mxGeometry width="180" height="30" as="geometry">
            <mxRectangle width="180" height="30" as="alternateBounds" />
          </mxGeometry>
        </mxCell>
        <mxCell id="RmwASyD4USrBqrYl8Xqp-22" value="" style="shape=tableRow;horizontal=0;startSize=0;swimlaneHead=0;swimlaneBody=0;strokeColor=inherit;top=0;left=0;bottom=0;right=0;collapsible=0;dropTarget=0;fillColor=none;points=[[0,0.5],[1,0.5]];portConstraint=eastwest;fontSize=12;rounded=1;labelBackgroundColor=none;hachureGap=4;fontFamily=Architects Daughter;fontSource=https%3A%2F%2Ffonts.googleapis.com%2Fcss%3Ffamily%3DArchitects%2BDaughter;fontColor=#ffffff;html=1;" parent="RmwASyD4USrBqrYl8Xqp-11" vertex="1">
          <mxGeometry y="150" width="180" height="30" as="geometry" />
        </mxCell>
        <mxCell id="RmwASyD4USrBqrYl8Xqp-23" value="External Software System" style="shape=partialRectangle;html=1;whiteSpace=wrap;connectable=0;strokeColor=inherit;overflow=hidden;fillColor=#8C8496;top=0;left=0;bottom=0;right=0;pointerEvents=1;fontSize=12;align=left;fontColor=#FFFFFF;gradientColor=none;spacingLeft=10;spacingRight=4;rounded=1;labelBackgroundColor=none;hachureGap=4;fontFamily=Architects Daughter;fontSource=https%3A%2F%2Ffonts.googleapis.com%2Fcss%3Ffamily%3DArchitects%2BDaughter;" parent="RmwASyD4USrBqrYl8Xqp-22" vertex="1">
          <mxGeometry width="180" height="30" as="geometry">
            <mxRectangle width="180" height="30" as="alternateBounds" />
          </mxGeometry>
        </mxCell>
        <mxCell id="SdhfKQSbrVZETk5CoLpW-1" style="edgeStyle=none;rounded=0;orthogonalLoop=1;jettySize=auto;html=1;dashed=1;exitX=1;exitY=0.75;exitDx=0;exitDy=0;exitPerimeter=0;" parent="1" source="qAhF0RHkh9mFL0z07ujq-5" edge="1">
          <mxGeometry relative="1" as="geometry">
            <mxPoint x="-540" y="180" as="sourcePoint" />
            <mxPoint x="-320" y="240" as="targetPoint" />
          </mxGeometry>
        </mxCell>
        <mxCell id="SdhfKQSbrVZETk5CoLpW-2" value="Operating Application" style="edgeLabel;html=1;align=center;verticalAlign=middle;resizable=0;points=[];" parent="SdhfKQSbrVZETk5CoLpW-1" vertex="1" connectable="0">
          <mxGeometry x="-0.2912" y="2" relative="1" as="geometry">
            <mxPoint x="12" y="6" as="offset" />
          </mxGeometry>
        </mxCell>
        <object placeholders="1" c4Name="HiPlayer UI" c4Type="Business Module" c4Description="Provide streaming media parsing protocol stack." label="&lt;font style=&quot;font-size: 16px&quot;&gt;&lt;b&gt;%c4Name%&lt;/b&gt;&lt;/font&gt;&lt;div&gt;[%c4Type%]&lt;/div&gt;&lt;br&gt;&lt;div&gt;&lt;font style=&quot;font-size: 11px&quot;&gt;&lt;font color=&quot;#cccccc&quot;&gt;%c4Description%&lt;/font&gt;&lt;/div&gt;" id="5_775ze1f49_cxB21c7C-1">
          <mxCell style="rounded=1;whiteSpace=wrap;html=1;labelBackgroundColor=none;fillColor=#3162AF;fontColor=#ffffff;align=center;arcSize=10;strokeColor=#2E5BA3;metaEdit=1;resizable=0;points=[[0.25,0,0],[0.5,0,0],[0.75,0,0],[1,0.25,0],[1,0.5,0],[1,0.75,0],[0.75,1,0],[0.5,1,0],[0.25,1,0],[0,0.75,0],[0,0.5,0],[0,0.25,0]];fontSize=11;hachureGap=4;" vertex="1" parent="1">
            <mxGeometry x="-400" y="440" width="240" height="120" as="geometry" />
          </mxCell>
        </object>
        <object placeholders="1" c4Name="VIDAA App" c4Type="Business Module" c4Description="Provide streaming media parsing protocol stack." label="&lt;font style=&quot;font-size: 16px&quot;&gt;&lt;b&gt;%c4Name%&lt;/b&gt;&lt;/font&gt;&lt;div&gt;[%c4Type%]&lt;/div&gt;&lt;br&gt;&lt;div&gt;&lt;font style=&quot;font-size: 11px&quot;&gt;&lt;font color=&quot;#cccccc&quot;&gt;%c4Description%&lt;/font&gt;&lt;/div&gt;" id="5_775ze1f49_cxB21c7C-2">
          <mxCell style="rounded=1;whiteSpace=wrap;html=1;labelBackgroundColor=none;fillColor=#8C8496;fontColor=#333333;align=center;arcSize=10;strokeColor=#736782;metaEdit=1;resizable=0;points=[[0.25,0,0],[0.5,0,0],[0.75,0,0],[1,0.25,0],[1,0.5,0],[1,0.75,0],[0.75,1,0],[0.5,1,0],[0.25,1,0],[0,0.75,0],[0,0.5,0],[0,0.25,0]];fontSize=12;hachureGap=4;" vertex="1" parent="1">
            <mxGeometry x="-840" y="480" width="240" height="120" as="geometry" />
          </mxCell>
        </object>
        <object placeholders="1" c4Name="adService" c4Type="Technical Module" c4Description="Providing requests and processing of advertisements." label="&lt;font style=&quot;font-size: 16px&quot;&gt;&lt;b&gt;%c4Name%&lt;/b&gt;&lt;/font&gt;&lt;div&gt;[%c4Type%]&lt;/div&gt;&lt;br&gt;&lt;div&gt;&lt;font style=&quot;font-size: 11px&quot;&gt;&lt;font color=&quot;#cccccc&quot;&gt;%c4Description%&lt;/font&gt;&lt;/div&gt;" id="5_775ze1f49_cxB21c7C-3">
          <mxCell style="rounded=1;whiteSpace=wrap;html=1;labelBackgroundColor=none;fillColor=#3162AF;fontColor=#ffffff;align=center;arcSize=10;strokeColor=#2E5BA3;metaEdit=1;resizable=0;points=[[0.25,0,0],[0.5,0,0],[0.75,0,0],[1,0.25,0],[1,0.5,0],[1,0.75,0],[0.75,1,0],[0.5,1,0],[0.25,1,0],[0,0.75,0],[0,0.5,0],[0,0.25,0]];fontSize=11;hachureGap=4;" vertex="1" parent="1">
            <mxGeometry x="-80" y="440" width="240" height="120" as="geometry" />
          </mxCell>
        </object>
        <object placeholders="1" c4Name="Phoenix (vidaatvjs)" c4Type="Technical Module" c4Description="Wrapping browser-provided methods." label="&lt;font style=&quot;font-size: 16px&quot;&gt;&lt;b&gt;%c4Name%&lt;/b&gt;&lt;/font&gt;&lt;div&gt;[%c4Type%]&lt;/div&gt;&lt;br&gt;&lt;div&gt;&lt;font style=&quot;font-size: 11px&quot;&gt;&lt;font color=&quot;#cccccc&quot;&gt;%c4Description%&lt;/font&gt;&lt;/div&gt;" id="5_775ze1f49_cxB21c7C-4">
          <mxCell style="rounded=1;whiteSpace=wrap;html=1;labelBackgroundColor=none;fillColor=#3162AF;fontColor=#ffffff;align=center;arcSize=10;strokeColor=#2E5BA3;metaEdit=1;resizable=0;points=[[0.25,0,0],[0.5,0,0],[0.75,0,0],[1,0.25,0],[1,0.5,0],[1,0.75,0],[0.75,1,0],[0.5,1,0],[0.25,1,0],[0,0.75,0],[0,0.5,0],[0,0.25,0]];fontSize=11;hachureGap=4;" vertex="1" parent="1">
            <mxGeometry x="-80" y="640" width="240" height="120" as="geometry" />
          </mxCell>
        </object>
      </root>
    </mxGraphModel>
  </diagram>
  <diagram id="9L0FWrzDX2zQI-Vsafr3" name="Component Diagram 组件图">
    <mxGraphModel dx="2284" dy="758" grid="1" gridSize="10" guides="1" tooltips="1" connect="1" arrows="1" fold="1" page="1" pageScale="1" pageWidth="850" pageHeight="1100" math="0" shadow="0">
      <root>
        <mxCell id="0" />
        <mxCell id="1" parent="0" />
        <mxCell id="k1WLU0-9MoZQOYw-hYBC-75" style="rounded=0;orthogonalLoop=1;jettySize=auto;html=1;exitX=0.25;exitY=1;exitDx=0;exitDy=0;exitPerimeter=0;entryX=0.5;entryY=0;entryDx=0;entryDy=0;entryPerimeter=0;dashed=1;" edge="1" parent="1" source="k1WLU0-9MoZQOYw-hYBC-77" target="k1WLU0-9MoZQOYw-hYBC-80">
          <mxGeometry relative="1" as="geometry">
            <Array as="points" />
          </mxGeometry>
        </mxCell>
        <mxCell id="k1WLU0-9MoZQOYw-hYBC-76" value="View Media" style="edgeLabel;html=1;align=center;verticalAlign=middle;resizable=0;points=[];" vertex="1" connectable="0" parent="k1WLU0-9MoZQOYw-hYBC-75">
          <mxGeometry x="-0.2552" y="1" relative="1" as="geometry">
            <mxPoint x="-11" y="2" as="offset" />
          </mxGeometry>
        </mxCell>
        <object c4Name="User" c4Type="Person" c4Description="Users of TV." label="&lt;font style=&quot;font-size: 16px&quot;&gt;&lt;b&gt;%c4Name%&lt;/b&gt;&lt;/font&gt;&lt;div&gt;[%c4Type%]&lt;/div&gt;&lt;br&gt;&lt;div&gt;&lt;font style=&quot;font-size: 11px&quot;&gt;&lt;font color=&quot;#cccccc&quot;&gt;%c4Description%&lt;/font&gt;&lt;/div&gt;" placeholders="1" id="k1WLU0-9MoZQOYw-hYBC-77">
          <mxCell style="html=1;fontSize=11;dashed=0;whitespace=wrap;fillColor=#083F75;strokeColor=#06315C;fontColor=#ffffff;shape=mxgraph.c4.person2;align=center;metaEdit=1;points=[[0.5,0,0],[1,0.5,0],[1,0.75,0],[0.75,1,0],[0.5,1,0],[0.25,1,0],[0,0.75,0],[0,0.5,0]];resizable=0;" vertex="1" parent="1">
            <mxGeometry x="-720" y="80" width="200" height="180" as="geometry" />
          </mxCell>
        </object>
        <mxCell id="k1WLU0-9MoZQOYw-hYBC-78" style="edgeStyle=none;rounded=0;orthogonalLoop=1;jettySize=auto;html=1;exitX=1;exitY=0.5;exitDx=0;exitDy=0;exitPerimeter=0;dashed=1;" edge="1" parent="1" source="k1WLU0-9MoZQOYw-hYBC-80">
          <mxGeometry relative="1" as="geometry">
            <mxPoint x="-480" y="460" as="targetPoint" />
          </mxGeometry>
        </mxCell>
        <mxCell id="k1WLU0-9MoZQOYw-hYBC-79" value="Playback" style="edgeLabel;html=1;align=center;verticalAlign=middle;resizable=0;points=[];" vertex="1" connectable="0" parent="k1WLU0-9MoZQOYw-hYBC-78">
          <mxGeometry x="-0.3461" y="-1" relative="1" as="geometry">
            <mxPoint x="14" y="-1" as="offset" />
          </mxGeometry>
        </mxCell>
        <object placeholders="1" c4Name="VIDAA App" c4Type="Container: Vue" c4Description="VIDAA Free, Store, Sports, Vidaa Plus, launcher etc." label="&lt;font style=&quot;font-size: 16px&quot;&gt;&lt;b&gt;%c4Name%&lt;/b&gt;&lt;/font&gt;&lt;div&gt;[%c4Type%]&lt;/div&gt;&lt;br&gt;&lt;div&gt;&lt;font style=&quot;font-size: 11px&quot;&gt;&lt;font color=&quot;#cccccc&quot;&gt;%c4Description%&lt;/font&gt;&lt;/div&gt;" id="k1WLU0-9MoZQOYw-hYBC-80">
          <mxCell style="rounded=1;whiteSpace=wrap;html=1;labelBackgroundColor=none;fillColor=#8C8496;fontColor=#333333;align=center;arcSize=10;strokeColor=#736782;metaEdit=1;resizable=0;points=[[0.25,0,0],[0.5,0,0],[0.75,0,0],[1,0.25,0],[1,0.5,0],[1,0.75,0],[0.75,1,0],[0.5,1,0],[0.25,1,0],[0,0.75,0],[0,0.5,0],[0,0.25,0]];" vertex="1" parent="1">
            <mxGeometry x="-800" y="560" width="240" height="120" as="geometry" />
          </mxCell>
        </object>
        <object placeholders="1" c4Name="JHK Cloud" c4Type="Server System" c4Description="Save media asset information, watch history, and advertising content." label="&lt;font style=&quot;font-size: 16px&quot;&gt;&lt;b&gt;%c4Name%&lt;/b&gt;&lt;/font&gt;&lt;div&gt;[%c4Type%]&lt;/div&gt;&lt;br&gt;&lt;div&gt;&lt;font style=&quot;font-size: 11px&quot;&gt;&lt;font color=&quot;#cccccc&quot;&gt;%c4Description%&lt;/font&gt;&lt;/div&gt;" id="k1WLU0-9MoZQOYw-hYBC-81">
          <mxCell style="rounded=1;whiteSpace=wrap;html=1;labelBackgroundColor=none;fillColor=#8C8496;align=center;arcSize=10;strokeColor=#736782;metaEdit=1;resizable=0;points=[[0.25,0,0],[0.5,0,0],[0.75,0,0],[1,0.25,0],[1,0.5,0],[1,0.75,0],[0.75,1,0],[0.5,1,0],[0.25,1,0],[0,0.75,0],[0,0.5,0],[0,0.25,0]];fontColor=#333333;" vertex="1" parent="1">
            <mxGeometry x="600" y="300" width="240" height="120" as="geometry" />
          </mxCell>
        </object>
        <mxCell id="k1WLU0-9MoZQOYw-hYBC-82" style="edgeStyle=none;rounded=0;orthogonalLoop=1;jettySize=auto;html=1;entryX=0;entryY=0.5;entryDx=0;entryDy=0;entryPerimeter=0;dashed=1;" edge="1" parent="1" target="k1WLU0-9MoZQOYw-hYBC-81">
          <mxGeometry relative="1" as="geometry">
            <mxPoint x="440" y="420" as="sourcePoint" />
          </mxGeometry>
        </mxCell>
        <mxCell id="k1WLU0-9MoZQOYw-hYBC-83" value="Request Media&lt;br&gt;Information" style="edgeLabel;html=1;align=center;verticalAlign=middle;resizable=0;points=[];" vertex="1" connectable="0" parent="k1WLU0-9MoZQOYw-hYBC-82">
          <mxGeometry x="0.3382" y="-2" relative="1" as="geometry">
            <mxPoint x="-8" y="9" as="offset" />
          </mxGeometry>
        </mxCell>
        <mxCell id="k1WLU0-9MoZQOYw-hYBC-84" style="edgeStyle=none;rounded=0;orthogonalLoop=1;jettySize=auto;html=1;entryX=0;entryY=0.5;entryDx=0;entryDy=0;entryPerimeter=0;dashed=1;" edge="1" parent="1" target="k1WLU0-9MoZQOYw-hYBC-86">
          <mxGeometry relative="1" as="geometry">
            <mxPoint x="440" y="580" as="sourcePoint" />
          </mxGeometry>
        </mxCell>
        <mxCell id="k1WLU0-9MoZQOYw-hYBC-85" value="Playback&lt;br&gt;Streaming Media" style="edgeLabel;html=1;align=center;verticalAlign=middle;resizable=0;points=[];" vertex="1" connectable="0" parent="k1WLU0-9MoZQOYw-hYBC-84">
          <mxGeometry x="0.2284" y="2" relative="1" as="geometry">
            <mxPoint y="1" as="offset" />
          </mxGeometry>
        </mxCell>
        <object placeholders="1" c4Name="Odin/Vewd Broswer" c4Type="Software System" c4Description="Provide streaming media parsing protocol stack." label="&lt;font style=&quot;font-size: 16px&quot;&gt;&lt;b&gt;%c4Name%&lt;/b&gt;&lt;/font&gt;&lt;div&gt;[%c4Type%]&lt;/div&gt;&lt;br&gt;&lt;div&gt;&lt;font style=&quot;font-size: 11px&quot;&gt;&lt;font color=&quot;#cccccc&quot;&gt;%c4Description%&lt;/font&gt;&lt;/div&gt;" id="k1WLU0-9MoZQOYw-hYBC-86">
          <mxCell style="rounded=1;whiteSpace=wrap;html=1;labelBackgroundColor=none;fillColor=#8C8496;fontColor=#333333;align=center;arcSize=10;strokeColor=#736782;metaEdit=1;resizable=0;points=[[0.25,0,0],[0.5,0,0],[0.75,0,0],[1,0.25,0],[1,0.5,0],[1,0.75,0],[0.75,1,0],[0.5,1,0],[0.25,1,0],[0,0.75,0],[0,0.5,0],[0,0.25,0]];" vertex="1" parent="1">
            <mxGeometry x="600" y="580" width="240" height="120" as="geometry" />
          </mxCell>
        </object>
        <object placeholders="1" c4Name="VIDAA HiPlayer" c4Type="ContainerScopeBoundary" c4Application="Container" label="&lt;font style=&quot;font-size: 16px&quot;&gt;&lt;b&gt;&lt;div style=&quot;text-align: left&quot;&gt;%c4Name%&lt;/div&gt;&lt;/b&gt;&lt;/font&gt;&lt;div style=&quot;text-align: left&quot;&gt;[%c4Application%]&lt;/div&gt;" id="k1WLU0-9MoZQOYw-hYBC-87">
          <mxCell style="rounded=1;fontSize=11;whiteSpace=wrap;html=1;dashed=1;arcSize=20;fillColor=none;strokeColor=#666666;fontColor=#333333;labelBackgroundColor=none;align=left;verticalAlign=bottom;labelBorderColor=none;spacingTop=0;spacing=10;dashPattern=8 4;metaEdit=1;rotatable=0;perimeter=rectanglePerimeter;noLabel=0;labelPadding=0;allowArrows=0;connectable=0;expand=0;recursiveResize=0;editable=1;pointerEvents=0;absoluteArcSize=1;points=[[0.25,0,0],[0.5,0,0],[0.75,0,0],[1,0.25,0],[1,0.5,0],[1,0.75,0],[0.75,1,0],[0.5,1,0],[0.25,1,0],[0,0.75,0],[0,0.5,0],[0,0.25,0]];" vertex="1" parent="1">
            <mxGeometry x="-480" y="260" width="920" height="680" as="geometry" />
          </mxCell>
        </object>
        <object placeholders="1" c4Name="InitLogic.js" c4Type="Component" c4Technology="JavaScript" c4Description="Initialize media playback logic." label="&lt;font style=&quot;font-size: 16px&quot;&gt;&lt;b&gt;%c4Name%&lt;/b&gt;&lt;/font&gt;&lt;div&gt;[%c4Type%: %c4Technology%]&lt;/div&gt;&lt;br&gt;&lt;div&gt;&lt;font style=&quot;font-size: 11px&quot;&gt;%c4Description%&lt;/font&gt;&lt;/div&gt;" id="k1WLU0-9MoZQOYw-hYBC-88">
          <mxCell style="rounded=1;whiteSpace=wrap;html=1;labelBackgroundColor=none;fillColor=#63BEF2;fontColor=#ffffff;align=center;arcSize=6;strokeColor=#2086C9;metaEdit=1;resizable=0;points=[[0.25,0,0],[0.5,0,0],[0.75,0,0],[1,0.25,0],[1,0.5,0],[1,0.75,0],[0.75,1,0],[0.5,1,0],[0.25,1,0],[0,0.75,0],[0,0.5,0],[0,0.25,0]];hachureGap=4;fontFamily=Helvetica;fontSize=20;" vertex="1" parent="1">
            <mxGeometry x="-160" y="460" width="240" height="120" as="geometry" />
          </mxCell>
        </object>
        <object placeholders="1" c4Name="ApplicationVideo" c4Type="Container" c4Technology="Vue" c4Description="Playback VOD streams from the application." label="&lt;font style=&quot;font-size: 16px&quot;&gt;&lt;b&gt;%c4Name%&lt;/b&gt;&lt;/font&gt;&lt;div&gt;[%c4Type%: %c4Technology%]&lt;/div&gt;&lt;br&gt;&lt;div&gt;&lt;font style=&quot;font-size: 11px&quot;&gt;&lt;font color=&quot;#E6E6E6&quot;&gt;%c4Description%&lt;/font&gt;&lt;/font&gt;&lt;/div&gt;" id="k1WLU0-9MoZQOYw-hYBC-89">
          <mxCell style="rounded=1;whiteSpace=wrap;html=1;fontSize=11;labelBackgroundColor=none;fillColor=#23A2D9;fontColor=#ffffff;align=center;arcSize=10;strokeColor=#0E7DAD;metaEdit=1;resizable=0;points=[[0.25,0,0],[0.5,0,0],[0.75,0,0],[1,0.25,0],[1,0.5,0],[1,0.75,0],[0.75,1,0],[0.5,1,0],[0.25,1,0],[0,0.75,0],[0,0.5,0],[0,0.25,0]];hachureGap=4;fontFamily=Helvetica;" vertex="1" parent="1">
            <mxGeometry x="-440" y="300" width="240" height="120" as="geometry" />
          </mxCell>
        </object>
        <object placeholders="1" c4Name="OTTVideo" c4Type="Container" c4Technology="Vue" c4Description="Playback LIVE streams from the VIDAA PLUS." label="&lt;font style=&quot;font-size: 16px&quot;&gt;&lt;b&gt;%c4Name%&lt;/b&gt;&lt;/font&gt;&lt;div&gt;[%c4Type%: %c4Technology%]&lt;/div&gt;&lt;br&gt;&lt;div&gt;&lt;font style=&quot;font-size: 11px&quot;&gt;&lt;font color=&quot;#E6E6E6&quot;&gt;%c4Description%&lt;/font&gt;&lt;/font&gt;&lt;/div&gt;" id="k1WLU0-9MoZQOYw-hYBC-90">
          <mxCell style="rounded=1;whiteSpace=wrap;html=1;fontSize=11;labelBackgroundColor=none;fillColor=#23A2D9;fontColor=#ffffff;align=center;arcSize=10;strokeColor=#0E7DAD;metaEdit=1;resizable=0;points=[[0.25,0,0],[0.5,0,0],[0.75,0,0],[1,0.25,0],[1,0.5,0],[1,0.75,0],[0.75,1,0],[0.5,1,0],[0.25,1,0],[0,0.75,0],[0,0.5,0],[0,0.25,0]];hachureGap=4;fontFamily=Helvetica;" vertex="1" parent="1">
            <mxGeometry x="-440" y="460" width="240" height="120" as="geometry" />
          </mxCell>
        </object>
        <object placeholders="1" c4Type="PlatformEventListener" c4Container="Container" c4Technology="JavaScript" c4Description="Handling browser message notifications." label="&lt;font style=&quot;font-size: 16px&quot;&gt;&lt;b&gt;%c4Type%&lt;/b&gt;&lt;/font&gt;&lt;div&gt;[%c4Container%:&amp;nbsp;%c4Technology%]&lt;/div&gt;&lt;br&gt;&lt;div&gt;&lt;font style=&quot;font-size: 11px&quot;&gt;&lt;font color=&quot;#E6E6E6&quot;&gt;%c4Description%&lt;/font&gt;&lt;/font&gt;&lt;/div&gt;" id="k1WLU0-9MoZQOYw-hYBC-91">
          <mxCell style="shape=cylinder3;size=15;direction=south;whiteSpace=wrap;html=1;boundedLbl=1;rounded=0;labelBackgroundColor=none;fillColor=#23A2D9;fontSize=12;fontColor=#ffffff;align=center;strokeColor=#0E7DAD;metaEdit=1;points=[[0.5,0,0],[1,0.25,0],[1,0.5,0],[1,0.75,0],[0.5,1,0],[0,0.75,0],[0,0.5,0],[0,0.25,0]];resizable=0;hachureGap=4;fontFamily=Helvetica;" vertex="1" parent="1">
            <mxGeometry x="-440" y="620" width="240" height="120" as="geometry" />
          </mxCell>
        </object>
        <object placeholders="1" c4Name="api/jhk/detail.js" c4Type="Component" c4Technology="Axios" c4Description="Encapsulation of JHK&#39;s interfaces." label="&lt;font style=&quot;font-size: 16px&quot;&gt;&lt;b&gt;%c4Name%&lt;/b&gt;&lt;/font&gt;&lt;div&gt;[%c4Type%: %c4Technology%]&lt;/div&gt;&lt;br&gt;&lt;div&gt;&lt;font style=&quot;font-size: 11px&quot;&gt;%c4Description%&lt;/font&gt;&lt;/div&gt;" id="k1WLU0-9MoZQOYw-hYBC-92">
          <mxCell style="rounded=1;whiteSpace=wrap;html=1;labelBackgroundColor=none;fillColor=#63BEF2;fontColor=#ffffff;align=center;arcSize=6;strokeColor=#2086C9;metaEdit=1;resizable=0;points=[[0.25,0,0],[0.5,0,0],[0.75,0,0],[1,0.25,0],[1,0.5,0],[1,0.75,0],[0.75,1,0],[0.5,1,0],[0.25,1,0],[0,0.75,0],[0,0.5,0],[0,0.25,0]];hachureGap=4;fontFamily=Helvetica;fontSize=20;" vertex="1" parent="1">
            <mxGeometry x="-160" y="620" width="240" height="120" as="geometry" />
          </mxCell>
        </object>
        <object placeholders="1" c4Name="store.js" c4Type="Package" c4Technology="Vuex" c4Description="Store all responsive data." label="&lt;font style=&quot;font-size: 16px&quot;&gt;&lt;b&gt;%c4Name%&lt;/b&gt;&lt;/font&gt;&lt;div&gt;[%c4Type%: %c4Technology%]&lt;/div&gt;&lt;br&gt;&lt;div&gt;&lt;font style=&quot;font-size: 11px&quot;&gt;%c4Description%&lt;/font&gt;&lt;/div&gt;" id="k1WLU0-9MoZQOYw-hYBC-93">
          <mxCell style="rounded=1;whiteSpace=wrap;html=1;labelBackgroundColor=none;fillColor=#63BEF2;fontColor=#ffffff;align=center;arcSize=6;strokeColor=#2086C9;metaEdit=1;resizable=0;points=[[0.25,0,0],[0.5,0,0],[0.75,0,0],[1,0.25,0],[1,0.5,0],[1,0.75,0],[0.75,1,0],[0.5,1,0],[0.25,1,0],[0,0.75,0],[0,0.5,0],[0,0.25,0]];hachureGap=4;fontFamily=Helvetica;fontSize=20;" vertex="1" parent="1">
            <mxGeometry x="160" y="460" width="240" height="120" as="geometry" />
          </mxCell>
        </object>
        <object placeholders="1" c4Name="route.js" c4Type="Package" c4Technology="Vue-Router" c4Description="Define all routes and rules." label="&lt;font style=&quot;font-size: 16px&quot;&gt;&lt;b&gt;%c4Name%&lt;/b&gt;&lt;/font&gt;&lt;div&gt;[%c4Type%: %c4Technology%]&lt;/div&gt;&lt;br&gt;&lt;div&gt;&lt;font style=&quot;font-size: 11px&quot;&gt;%c4Description%&lt;/font&gt;&lt;/div&gt;" id="k1WLU0-9MoZQOYw-hYBC-94">
          <mxCell style="rounded=1;whiteSpace=wrap;html=1;labelBackgroundColor=none;fillColor=#63BEF2;fontColor=#ffffff;align=center;arcSize=6;strokeColor=#2086C9;metaEdit=1;resizable=0;points=[[0.25,0,0],[0.5,0,0],[0.75,0,0],[1,0.25,0],[1,0.5,0],[1,0.75,0],[0.75,1,0],[0.5,1,0],[0.25,1,0],[0,0.75,0],[0,0.5,0],[0,0.25,0]];hachureGap=4;fontFamily=Helvetica;fontSize=20;" vertex="1" parent="1">
            <mxGeometry x="160" y="300" width="240" height="120" as="geometry" />
          </mxCell>
        </object>
        <mxCell id="k1WLU0-9MoZQOYw-hYBC-95" value="Legend" style="shape=table;startSize=30;container=1;collapsible=0;childLayout=tableLayout;fontSize=16;align=left;verticalAlign=top;fillColor=none;strokeColor=none;fontColor=#4D4D4D;fontStyle=1;spacingLeft=6;spacing=0;resizable=0;rounded=1;labelBackgroundColor=none;hachureGap=4;fontFamily=Architects Daughter;fontSource=https%3A%2F%2Ffonts.googleapis.com%2Fcss%3Ffamily%3DArchitects%2BDaughter;html=1;" vertex="1" parent="1">
          <mxGeometry x="-160" y="40" width="180" height="180" as="geometry" />
        </mxCell>
        <mxCell id="k1WLU0-9MoZQOYw-hYBC-96" value="" style="shape=tableRow;horizontal=0;startSize=0;swimlaneHead=0;swimlaneBody=0;strokeColor=inherit;top=0;left=0;bottom=0;right=0;collapsible=0;dropTarget=0;fillColor=none;points=[[0,0.5],[1,0.5]];portConstraint=eastwest;fontSize=12;rounded=1;labelBackgroundColor=none;hachureGap=4;fontFamily=Architects Daughter;fontSource=https%3A%2F%2Ffonts.googleapis.com%2Fcss%3Ffamily%3DArchitects%2BDaughter;fontColor=#ffffff;html=1;" vertex="1" parent="k1WLU0-9MoZQOYw-hYBC-95">
          <mxGeometry y="30" width="180" height="30" as="geometry" />
        </mxCell>
        <mxCell id="k1WLU0-9MoZQOYw-hYBC-97" value="Person" style="shape=partialRectangle;html=1;whiteSpace=wrap;connectable=0;strokeColor=inherit;overflow=hidden;fillColor=#083F75;top=0;left=0;bottom=0;right=0;pointerEvents=1;fontSize=12;align=left;fontColor=#FFFFFF;gradientColor=none;spacingLeft=10;spacingRight=4;rounded=1;labelBackgroundColor=none;hachureGap=4;fontFamily=Architects Daughter;fontSource=https%3A%2F%2Ffonts.googleapis.com%2Fcss%3Ffamily%3DArchitects%2BDaughter;" vertex="1" parent="k1WLU0-9MoZQOYw-hYBC-96">
          <mxGeometry width="180" height="30" as="geometry">
            <mxRectangle width="180" height="30" as="alternateBounds" />
          </mxGeometry>
        </mxCell>
        <mxCell id="k1WLU0-9MoZQOYw-hYBC-98" value="" style="shape=tableRow;horizontal=0;startSize=0;swimlaneHead=0;swimlaneBody=0;strokeColor=inherit;top=0;left=0;bottom=0;right=0;collapsible=0;dropTarget=0;fillColor=none;points=[[0,0.5],[1,0.5]];portConstraint=eastwest;fontSize=12;rounded=1;labelBackgroundColor=none;hachureGap=4;fontFamily=Architects Daughter;fontSource=https%3A%2F%2Ffonts.googleapis.com%2Fcss%3Ffamily%3DArchitects%2BDaughter;fontColor=#ffffff;html=1;" vertex="1" parent="k1WLU0-9MoZQOYw-hYBC-95">
          <mxGeometry y="60" width="180" height="30" as="geometry" />
        </mxCell>
        <mxCell id="k1WLU0-9MoZQOYw-hYBC-99" value="Software System" style="shape=partialRectangle;html=1;whiteSpace=wrap;connectable=0;strokeColor=inherit;overflow=hidden;fillColor=#3162AF;top=0;left=0;bottom=0;right=0;pointerEvents=1;fontSize=12;align=left;fontColor=#FFFFFF;gradientColor=none;spacingLeft=10;spacingRight=4;rounded=1;labelBackgroundColor=none;hachureGap=4;fontFamily=Architects Daughter;fontSource=https%3A%2F%2Ffonts.googleapis.com%2Fcss%3Ffamily%3DArchitects%2BDaughter;" vertex="1" parent="k1WLU0-9MoZQOYw-hYBC-98">
          <mxGeometry width="180" height="30" as="geometry">
            <mxRectangle width="180" height="30" as="alternateBounds" />
          </mxGeometry>
        </mxCell>
        <mxCell id="k1WLU0-9MoZQOYw-hYBC-100" value="" style="shape=tableRow;horizontal=0;startSize=0;swimlaneHead=0;swimlaneBody=0;strokeColor=inherit;top=0;left=0;bottom=0;right=0;collapsible=0;dropTarget=0;fillColor=none;points=[[0,0.5],[1,0.5]];portConstraint=eastwest;fontSize=12;rounded=1;labelBackgroundColor=none;hachureGap=4;fontFamily=Architects Daughter;fontSource=https%3A%2F%2Ffonts.googleapis.com%2Fcss%3Ffamily%3DArchitects%2BDaughter;fontColor=#ffffff;html=1;" vertex="1" parent="k1WLU0-9MoZQOYw-hYBC-95">
          <mxGeometry y="90" width="180" height="30" as="geometry" />
        </mxCell>
        <mxCell id="k1WLU0-9MoZQOYw-hYBC-101" value="Container" style="shape=partialRectangle;html=1;whiteSpace=wrap;connectable=0;strokeColor=inherit;overflow=hidden;fillColor=#23A2D9;top=0;left=0;bottom=0;right=0;pointerEvents=1;fontSize=12;align=left;fontColor=#FFFFFF;gradientColor=none;spacingLeft=10;spacingRight=4;rounded=1;labelBackgroundColor=none;hachureGap=4;fontFamily=Architects Daughter;fontSource=https%3A%2F%2Ffonts.googleapis.com%2Fcss%3Ffamily%3DArchitects%2BDaughter;" vertex="1" parent="k1WLU0-9MoZQOYw-hYBC-100">
          <mxGeometry width="180" height="30" as="geometry">
            <mxRectangle width="180" height="30" as="alternateBounds" />
          </mxGeometry>
        </mxCell>
        <mxCell id="k1WLU0-9MoZQOYw-hYBC-102" value="" style="shape=tableRow;horizontal=0;startSize=0;swimlaneHead=0;swimlaneBody=0;strokeColor=inherit;top=0;left=0;bottom=0;right=0;collapsible=0;dropTarget=0;fillColor=none;points=[[0,0.5],[1,0.5]];portConstraint=eastwest;fontSize=12;rounded=1;labelBackgroundColor=none;hachureGap=4;fontFamily=Architects Daughter;fontSource=https%3A%2F%2Ffonts.googleapis.com%2Fcss%3Ffamily%3DArchitects%2BDaughter;fontColor=#ffffff;html=1;" vertex="1" parent="k1WLU0-9MoZQOYw-hYBC-95">
          <mxGeometry y="120" width="180" height="30" as="geometry" />
        </mxCell>
        <mxCell id="k1WLU0-9MoZQOYw-hYBC-103" value="Component" style="shape=partialRectangle;html=1;whiteSpace=wrap;connectable=0;strokeColor=inherit;overflow=hidden;fillColor=#63BEF2;top=0;left=0;bottom=0;right=0;pointerEvents=1;fontSize=12;align=left;fontColor=#FFFFFF;gradientColor=none;spacingLeft=10;spacingRight=4;rounded=1;labelBackgroundColor=none;hachureGap=4;fontFamily=Architects Daughter;fontSource=https%3A%2F%2Ffonts.googleapis.com%2Fcss%3Ffamily%3DArchitects%2BDaughter;" vertex="1" parent="k1WLU0-9MoZQOYw-hYBC-102">
          <mxGeometry width="180" height="30" as="geometry">
            <mxRectangle width="180" height="30" as="alternateBounds" />
          </mxGeometry>
        </mxCell>
        <mxCell id="k1WLU0-9MoZQOYw-hYBC-104" value="" style="shape=tableRow;horizontal=0;startSize=0;swimlaneHead=0;swimlaneBody=0;strokeColor=inherit;top=0;left=0;bottom=0;right=0;collapsible=0;dropTarget=0;fillColor=none;points=[[0,0.5],[1,0.5]];portConstraint=eastwest;fontSize=12;rounded=1;labelBackgroundColor=none;hachureGap=4;fontFamily=Architects Daughter;fontSource=https%3A%2F%2Ffonts.googleapis.com%2Fcss%3Ffamily%3DArchitects%2BDaughter;fontColor=#ffffff;html=1;" vertex="1" parent="k1WLU0-9MoZQOYw-hYBC-95">
          <mxGeometry y="150" width="180" height="30" as="geometry" />
        </mxCell>
        <mxCell id="k1WLU0-9MoZQOYw-hYBC-105" value="External Software System" style="shape=partialRectangle;html=1;whiteSpace=wrap;connectable=0;strokeColor=inherit;overflow=hidden;fillColor=#8C8496;top=0;left=0;bottom=0;right=0;pointerEvents=1;fontSize=12;align=left;fontColor=#FFFFFF;gradientColor=none;spacingLeft=10;spacingRight=4;rounded=1;labelBackgroundColor=none;hachureGap=4;fontFamily=Architects Daughter;fontSource=https%3A%2F%2Ffonts.googleapis.com%2Fcss%3Ffamily%3DArchitects%2BDaughter;" vertex="1" parent="k1WLU0-9MoZQOYw-hYBC-104">
          <mxGeometry width="180" height="30" as="geometry">
            <mxRectangle width="180" height="30" as="alternateBounds" />
          </mxGeometry>
        </mxCell>
        <object placeholders="1" c4Name="v-list.vue" c4Type="Component" c4Technology="Vue" c4Description="displaying subset lists." label="&lt;font style=&quot;font-size: 16px&quot;&gt;&lt;b&gt;%c4Name%&lt;/b&gt;&lt;/font&gt;&lt;div&gt;[%c4Type%: %c4Technology%]&lt;/div&gt;&lt;br&gt;&lt;div&gt;&lt;font style=&quot;font-size: 11px&quot;&gt;%c4Description%&lt;/font&gt;&lt;/div&gt;" id="k1WLU0-9MoZQOYw-hYBC-106">
          <mxCell style="rounded=1;whiteSpace=wrap;html=1;labelBackgroundColor=none;fillColor=#63BEF2;fontColor=#ffffff;align=center;arcSize=6;strokeColor=#2086C9;metaEdit=1;resizable=0;points=[[0.25,0,0],[0.5,0,0],[0.75,0,0],[1,0.25,0],[1,0.5,0],[1,0.75,0],[0.75,1,0],[0.5,1,0],[0.25,1,0],[0,0.75,0],[0,0.5,0],[0,0.25,0]];hachureGap=4;fontFamily=Helvetica;fontSize=20;" vertex="1" parent="1">
            <mxGeometry x="-160" y="300" width="240" height="120" as="geometry" />
          </mxCell>
        </object>
        <object placeholders="1" c4Name="adService.js" c4Type="Package" c4Technology="CDN" c4Description="Handling of advertising-related business." label="&lt;font style=&quot;font-size: 16px&quot;&gt;&lt;b&gt;%c4Name%&lt;/b&gt;&lt;/font&gt;&lt;div&gt;[%c4Type%: %c4Technology%]&lt;/div&gt;&lt;br&gt;&lt;div&gt;&lt;font style=&quot;font-size: 11px&quot;&gt;%c4Description%&lt;/font&gt;&lt;/div&gt;" id="k1WLU0-9MoZQOYw-hYBC-107">
          <mxCell style="rounded=1;whiteSpace=wrap;html=1;labelBackgroundColor=none;fillColor=#8C8496;fontColor=#ffffff;align=center;arcSize=6;strokeColor=#736782;metaEdit=1;resizable=0;points=[[0.25,0,0],[0.5,0,0],[0.75,0,0],[1,0.25,0],[1,0.5,0],[1,0.75,0],[0.75,1,0],[0.5,1,0],[0.25,1,0],[0,0.75,0],[0,0.5,0],[0,0.25,0]];hachureGap=4;fontFamily=Helvetica;fontSize=20;" vertex="1" parent="1">
            <mxGeometry x="160" y="620" width="240" height="120" as="geometry" />
          </mxCell>
        </object>
        <object placeholders="1" c4Name="vidaatvjs.js" c4Type="Package" c4Technology="NPM" c4Description="Provide platform underlying relevant interfaces." label="&lt;font style=&quot;font-size: 16px&quot;&gt;&lt;b&gt;%c4Name%&lt;/b&gt;&lt;/font&gt;&lt;div&gt;[%c4Type%: %c4Technology%]&lt;/div&gt;&lt;br&gt;&lt;div&gt;&lt;font style=&quot;font-size: 11px&quot;&gt;%c4Description%&lt;/font&gt;&lt;/div&gt;" id="k1WLU0-9MoZQOYw-hYBC-108">
          <mxCell style="rounded=1;whiteSpace=wrap;html=1;labelBackgroundColor=none;fillColor=#8C8496;fontColor=#ffffff;align=center;arcSize=6;strokeColor=#736782;metaEdit=1;resizable=0;points=[[0.25,0,0],[0.5,0,0],[0.75,0,0],[1,0.25,0],[1,0.5,0],[1,0.75,0],[0.75,1,0],[0.5,1,0],[0.25,1,0],[0,0.75,0],[0,0.5,0],[0,0.25,0]];hachureGap=4;fontFamily=Helvetica;fontSize=20;" vertex="1" parent="1">
            <mxGeometry x="160" y="780" width="240" height="120" as="geometry" />
          </mxCell>
        </object>
        <object placeholders="1" c4Name="mock.js" c4Type="Component" c4Technology="JavaScript" c4Description="Links to simulate different startup scenarios." label="&lt;font style=&quot;font-size: 16px&quot;&gt;&lt;b&gt;%c4Name%&lt;/b&gt;&lt;/font&gt;&lt;div&gt;[%c4Type%: %c4Technology%]&lt;/div&gt;&lt;br&gt;&lt;div&gt;&lt;font style=&quot;font-size: 11px&quot;&gt;%c4Description%&lt;/font&gt;&lt;/div&gt;" id="k1WLU0-9MoZQOYw-hYBC-109">
          <mxCell style="rounded=1;whiteSpace=wrap;html=1;labelBackgroundColor=none;fillColor=#63BEF2;fontColor=#ffffff;align=center;arcSize=6;strokeColor=#2086C9;metaEdit=1;resizable=0;points=[[0.25,0,0],[0.5,0,0],[0.75,0,0],[1,0.25,0],[1,0.5,0],[1,0.75,0],[0.75,1,0],[0.5,1,0],[0.25,1,0],[0,0.75,0],[0,0.5,0],[0,0.25,0]];hachureGap=4;fontFamily=Helvetica;fontSize=20;" vertex="1" parent="1">
            <mxGeometry x="-160" y="780" width="240" height="120" as="geometry" />
          </mxCell>
        </object>
        <mxCell id="k1WLU0-9MoZQOYw-hYBC-110" style="edgeStyle=none;rounded=0;orthogonalLoop=1;jettySize=auto;html=1;dashed=1;exitX=1;exitY=0.75;exitDx=0;exitDy=0;exitPerimeter=0;" edge="1" parent="1" source="k1WLU0-9MoZQOYw-hYBC-77">
          <mxGeometry relative="1" as="geometry">
            <mxPoint x="-500" y="200" as="sourcePoint" />
            <mxPoint x="-280" y="260" as="targetPoint" />
          </mxGeometry>
        </mxCell>
        <mxCell id="k1WLU0-9MoZQOYw-hYBC-111" value="Operating Application" style="edgeLabel;html=1;align=center;verticalAlign=middle;resizable=0;points=[];" vertex="1" connectable="0" parent="k1WLU0-9MoZQOYw-hYBC-110">
          <mxGeometry x="-0.2912" y="2" relative="1" as="geometry">
            <mxPoint x="12" y="6" as="offset" />
          </mxGeometry>
        </mxCell>
      </root>
    </mxGraphModel>
  </diagram>
  <diagram id="ZwwozVA57k8F08vw1X60" name="Class Diagram 类图">
    <mxGraphModel dx="2284" dy="758" grid="1" gridSize="10" guides="1" tooltips="1" connect="1" arrows="1" fold="1" page="1" pageScale="1" pageWidth="850" pageHeight="1100" math="0" shadow="0">
      <root>
        <mxCell id="0" />
        <mxCell id="1" parent="0" />
        <mxCell id="PHNsvNdRmOcWkAGZYs6u-1" style="rounded=0;orthogonalLoop=1;jettySize=auto;html=1;exitX=0.25;exitY=1;exitDx=0;exitDy=0;exitPerimeter=0;entryX=0.5;entryY=0;entryDx=0;entryDy=0;entryPerimeter=0;dashed=1;" parent="1" source="PHNsvNdRmOcWkAGZYs6u-3" target="PHNsvNdRmOcWkAGZYs6u-6" edge="1">
          <mxGeometry relative="1" as="geometry">
            <Array as="points" />
          </mxGeometry>
        </mxCell>
        <mxCell id="PHNsvNdRmOcWkAGZYs6u-2" value="View Media" style="edgeLabel;html=1;align=center;verticalAlign=middle;resizable=0;points=[];" parent="PHNsvNdRmOcWkAGZYs6u-1" vertex="1" connectable="0">
          <mxGeometry x="-0.2552" y="1" relative="1" as="geometry">
            <mxPoint x="-11" y="2" as="offset" />
          </mxGeometry>
        </mxCell>
        <object c4Name="User" c4Type="Person" c4Description="Users of TV." label="&lt;font style=&quot;font-size: 16px&quot;&gt;&lt;b&gt;%c4Name%&lt;/b&gt;&lt;/font&gt;&lt;div&gt;[%c4Type%]&lt;/div&gt;&lt;br&gt;&lt;div&gt;&lt;font style=&quot;font-size: 11px&quot;&gt;&lt;font color=&quot;#cccccc&quot;&gt;%c4Description%&lt;/font&gt;&lt;/div&gt;" placeholders="1" id="PHNsvNdRmOcWkAGZYs6u-3">
          <mxCell style="html=1;fontSize=11;dashed=0;whitespace=wrap;fillColor=#083F75;strokeColor=#06315C;fontColor=#ffffff;shape=mxgraph.c4.person2;align=center;metaEdit=1;points=[[0.5,0,0],[1,0.5,0],[1,0.75,0],[0.75,1,0],[0.5,1,0],[0.25,1,0],[0,0.75,0],[0,0.5,0]];resizable=0;" parent="1" vertex="1">
            <mxGeometry x="-760" y="60" width="200" height="180" as="geometry" />
          </mxCell>
        </object>
        <mxCell id="PHNsvNdRmOcWkAGZYs6u-4" style="edgeStyle=none;rounded=0;orthogonalLoop=1;jettySize=auto;html=1;exitX=1;exitY=0.5;exitDx=0;exitDy=0;exitPerimeter=0;dashed=1;" parent="1" source="PHNsvNdRmOcWkAGZYs6u-6" edge="1">
          <mxGeometry relative="1" as="geometry">
            <mxPoint x="-520" y="440" as="targetPoint" />
          </mxGeometry>
        </mxCell>
        <mxCell id="PHNsvNdRmOcWkAGZYs6u-5" value="Playback" style="edgeLabel;html=1;align=center;verticalAlign=middle;resizable=0;points=[];" parent="PHNsvNdRmOcWkAGZYs6u-4" vertex="1" connectable="0">
          <mxGeometry x="-0.3461" y="-1" relative="1" as="geometry">
            <mxPoint x="14" y="-1" as="offset" />
          </mxGeometry>
        </mxCell>
        <object placeholders="1" c4Name="VIDAA App" c4Type="Container: Vue" c4Description="VIDAA Free, Store, Sports, Vidaa Plus, launcher etc." label="&lt;font style=&quot;font-size: 16px&quot;&gt;&lt;b&gt;%c4Name%&lt;/b&gt;&lt;/font&gt;&lt;div&gt;[%c4Type%]&lt;/div&gt;&lt;br&gt;&lt;div&gt;&lt;font style=&quot;font-size: 11px&quot;&gt;&lt;font color=&quot;#cccccc&quot;&gt;%c4Description%&lt;/font&gt;&lt;/div&gt;" id="PHNsvNdRmOcWkAGZYs6u-6">
          <mxCell style="rounded=1;whiteSpace=wrap;html=1;labelBackgroundColor=none;fillColor=#8C8496;fontColor=#333333;align=center;arcSize=10;strokeColor=#736782;metaEdit=1;resizable=0;points=[[0.25,0,0],[0.5,0,0],[0.75,0,0],[1,0.25,0],[1,0.5,0],[1,0.75,0],[0.75,1,0],[0.5,1,0],[0.25,1,0],[0,0.75,0],[0,0.5,0],[0,0.25,0]];" parent="1" vertex="1">
            <mxGeometry x="-840" y="540" width="240" height="120" as="geometry" />
          </mxCell>
        </object>
        <object placeholders="1" c4Name="JHK Cloud" c4Type="Server System" c4Description="Save media asset information, watch history, and advertising content." label="&lt;font style=&quot;font-size: 16px&quot;&gt;&lt;b&gt;%c4Name%&lt;/b&gt;&lt;/font&gt;&lt;div&gt;[%c4Type%]&lt;/div&gt;&lt;br&gt;&lt;div&gt;&lt;font style=&quot;font-size: 11px&quot;&gt;&lt;font color=&quot;#cccccc&quot;&gt;%c4Description%&lt;/font&gt;&lt;/div&gt;" id="PHNsvNdRmOcWkAGZYs6u-7">
          <mxCell style="rounded=1;whiteSpace=wrap;html=1;labelBackgroundColor=none;fillColor=#8C8496;align=center;arcSize=10;strokeColor=#736782;metaEdit=1;resizable=0;points=[[0.25,0,0],[0.5,0,0],[0.75,0,0],[1,0.25,0],[1,0.5,0],[1,0.75,0],[0.75,1,0],[0.5,1,0],[0.25,1,0],[0,0.75,0],[0,0.5,0],[0,0.25,0]];fontColor=#333333;" parent="1" vertex="1">
            <mxGeometry x="560" y="280" width="240" height="120" as="geometry" />
          </mxCell>
        </object>
        <mxCell id="PHNsvNdRmOcWkAGZYs6u-8" style="edgeStyle=none;rounded=0;orthogonalLoop=1;jettySize=auto;html=1;entryX=0;entryY=0.5;entryDx=0;entryDy=0;entryPerimeter=0;dashed=1;" parent="1" target="PHNsvNdRmOcWkAGZYs6u-7" edge="1">
          <mxGeometry relative="1" as="geometry">
            <mxPoint x="400" y="400" as="sourcePoint" />
          </mxGeometry>
        </mxCell>
        <mxCell id="PHNsvNdRmOcWkAGZYs6u-9" value="Request Media&lt;br&gt;Information" style="edgeLabel;html=1;align=center;verticalAlign=middle;resizable=0;points=[];" parent="PHNsvNdRmOcWkAGZYs6u-8" vertex="1" connectable="0">
          <mxGeometry x="0.3382" y="-2" relative="1" as="geometry">
            <mxPoint x="-8" y="9" as="offset" />
          </mxGeometry>
        </mxCell>
        <mxCell id="PHNsvNdRmOcWkAGZYs6u-10" style="edgeStyle=none;rounded=0;orthogonalLoop=1;jettySize=auto;html=1;entryX=0;entryY=0.5;entryDx=0;entryDy=0;entryPerimeter=0;dashed=1;" parent="1" target="PHNsvNdRmOcWkAGZYs6u-12" edge="1">
          <mxGeometry relative="1" as="geometry">
            <mxPoint x="400" y="560" as="sourcePoint" />
          </mxGeometry>
        </mxCell>
        <mxCell id="PHNsvNdRmOcWkAGZYs6u-11" value="Playback&lt;br&gt;Streaming Media" style="edgeLabel;html=1;align=center;verticalAlign=middle;resizable=0;points=[];" parent="PHNsvNdRmOcWkAGZYs6u-10" vertex="1" connectable="0">
          <mxGeometry x="0.2284" y="2" relative="1" as="geometry">
            <mxPoint y="1" as="offset" />
          </mxGeometry>
        </mxCell>
        <object placeholders="1" c4Name="Odin/Vewd Broswer" c4Type="Software System" c4Description="Provide streaming media parsing protocol stack." label="&lt;font style=&quot;font-size: 16px&quot;&gt;&lt;b&gt;%c4Name%&lt;/b&gt;&lt;/font&gt;&lt;div&gt;[%c4Type%]&lt;/div&gt;&lt;br&gt;&lt;div&gt;&lt;font style=&quot;font-size: 11px&quot;&gt;&lt;font color=&quot;#cccccc&quot;&gt;%c4Description%&lt;/font&gt;&lt;/div&gt;" id="PHNsvNdRmOcWkAGZYs6u-12">
          <mxCell style="rounded=1;whiteSpace=wrap;html=1;labelBackgroundColor=none;fillColor=#8C8496;fontColor=#333333;align=center;arcSize=10;strokeColor=#736782;metaEdit=1;resizable=0;points=[[0.25,0,0],[0.5,0,0],[0.75,0,0],[1,0.25,0],[1,0.5,0],[1,0.75,0],[0.75,1,0],[0.5,1,0],[0.25,1,0],[0,0.75,0],[0,0.5,0],[0,0.25,0]];" parent="1" vertex="1">
            <mxGeometry x="560" y="560" width="240" height="120" as="geometry" />
          </mxCell>
        </object>
        <object placeholders="1" c4Name="VIDAA HiPlayer" c4Type="ContainerScopeBoundary" c4Application="Container" label="&lt;font style=&quot;font-size: 16px&quot;&gt;&lt;b&gt;&lt;div style=&quot;text-align: left&quot;&gt;%c4Name%&lt;/div&gt;&lt;/b&gt;&lt;/font&gt;&lt;div style=&quot;text-align: left&quot;&gt;[%c4Application%]&lt;/div&gt;" id="PHNsvNdRmOcWkAGZYs6u-13">
          <mxCell style="rounded=1;fontSize=11;whiteSpace=wrap;html=1;dashed=1;arcSize=20;fillColor=none;strokeColor=#666666;fontColor=#333333;labelBackgroundColor=none;align=left;verticalAlign=bottom;labelBorderColor=none;spacingTop=0;spacing=10;dashPattern=8 4;metaEdit=1;rotatable=0;perimeter=rectanglePerimeter;noLabel=0;labelPadding=0;allowArrows=0;connectable=0;expand=0;recursiveResize=0;editable=1;pointerEvents=0;absoluteArcSize=1;points=[[0.25,0,0],[0.5,0,0],[0.75,0,0],[1,0.25,0],[1,0.5,0],[1,0.75,0],[0.75,1,0],[0.5,1,0],[0.25,1,0],[0,0.75,0],[0,0.5,0],[0,0.25,0]];" parent="1" vertex="1">
            <mxGeometry x="-520" y="240" width="920" height="1040" as="geometry" />
          </mxCell>
        </object>
        <mxCell id="PHNsvNdRmOcWkAGZYs6u-14" value="Legend" style="shape=table;startSize=30;container=1;collapsible=0;childLayout=tableLayout;fontSize=16;align=left;verticalAlign=top;fillColor=none;strokeColor=none;fontColor=#4D4D4D;fontStyle=1;spacingLeft=6;spacing=0;resizable=0;rounded=1;labelBackgroundColor=none;hachureGap=4;fontFamily=Architects Daughter;fontSource=https%3A%2F%2Ffonts.googleapis.com%2Fcss%3Ffamily%3DArchitects%2BDaughter;html=1;" parent="1" vertex="1">
          <mxGeometry x="-200" y="20" width="180" height="180" as="geometry" />
        </mxCell>
        <mxCell id="PHNsvNdRmOcWkAGZYs6u-15" value="" style="shape=tableRow;horizontal=0;startSize=0;swimlaneHead=0;swimlaneBody=0;strokeColor=inherit;top=0;left=0;bottom=0;right=0;collapsible=0;dropTarget=0;fillColor=none;points=[[0,0.5],[1,0.5]];portConstraint=eastwest;fontSize=12;rounded=1;labelBackgroundColor=none;hachureGap=4;fontFamily=Architects Daughter;fontSource=https%3A%2F%2Ffonts.googleapis.com%2Fcss%3Ffamily%3DArchitects%2BDaughter;fontColor=#ffffff;html=1;" parent="PHNsvNdRmOcWkAGZYs6u-14" vertex="1">
          <mxGeometry y="30" width="180" height="30" as="geometry" />
        </mxCell>
        <mxCell id="PHNsvNdRmOcWkAGZYs6u-16" value="Person" style="shape=partialRectangle;html=1;whiteSpace=wrap;connectable=0;strokeColor=inherit;overflow=hidden;fillColor=#083F75;top=0;left=0;bottom=0;right=0;pointerEvents=1;fontSize=12;align=left;fontColor=#FFFFFF;gradientColor=none;spacingLeft=10;spacingRight=4;rounded=1;labelBackgroundColor=none;hachureGap=4;fontFamily=Architects Daughter;fontSource=https%3A%2F%2Ffonts.googleapis.com%2Fcss%3Ffamily%3DArchitects%2BDaughter;" parent="PHNsvNdRmOcWkAGZYs6u-15" vertex="1">
          <mxGeometry width="180" height="30" as="geometry">
            <mxRectangle width="180" height="30" as="alternateBounds" />
          </mxGeometry>
        </mxCell>
        <mxCell id="PHNsvNdRmOcWkAGZYs6u-17" value="" style="shape=tableRow;horizontal=0;startSize=0;swimlaneHead=0;swimlaneBody=0;strokeColor=inherit;top=0;left=0;bottom=0;right=0;collapsible=0;dropTarget=0;fillColor=none;points=[[0,0.5],[1,0.5]];portConstraint=eastwest;fontSize=12;rounded=1;labelBackgroundColor=none;hachureGap=4;fontFamily=Architects Daughter;fontSource=https%3A%2F%2Ffonts.googleapis.com%2Fcss%3Ffamily%3DArchitects%2BDaughter;fontColor=#ffffff;html=1;" parent="PHNsvNdRmOcWkAGZYs6u-14" vertex="1">
          <mxGeometry y="60" width="180" height="30" as="geometry" />
        </mxCell>
        <mxCell id="PHNsvNdRmOcWkAGZYs6u-18" value="Software System" style="shape=partialRectangle;html=1;whiteSpace=wrap;connectable=0;strokeColor=inherit;overflow=hidden;fillColor=#3162AF;top=0;left=0;bottom=0;right=0;pointerEvents=1;fontSize=12;align=left;fontColor=#FFFFFF;gradientColor=none;spacingLeft=10;spacingRight=4;rounded=1;labelBackgroundColor=none;hachureGap=4;fontFamily=Architects Daughter;fontSource=https%3A%2F%2Ffonts.googleapis.com%2Fcss%3Ffamily%3DArchitects%2BDaughter;" parent="PHNsvNdRmOcWkAGZYs6u-17" vertex="1">
          <mxGeometry width="180" height="30" as="geometry">
            <mxRectangle width="180" height="30" as="alternateBounds" />
          </mxGeometry>
        </mxCell>
        <mxCell id="PHNsvNdRmOcWkAGZYs6u-19" value="" style="shape=tableRow;horizontal=0;startSize=0;swimlaneHead=0;swimlaneBody=0;strokeColor=inherit;top=0;left=0;bottom=0;right=0;collapsible=0;dropTarget=0;fillColor=none;points=[[0,0.5],[1,0.5]];portConstraint=eastwest;fontSize=12;rounded=1;labelBackgroundColor=none;hachureGap=4;fontFamily=Architects Daughter;fontSource=https%3A%2F%2Ffonts.googleapis.com%2Fcss%3Ffamily%3DArchitects%2BDaughter;fontColor=#ffffff;html=1;" parent="PHNsvNdRmOcWkAGZYs6u-14" vertex="1">
          <mxGeometry y="90" width="180" height="30" as="geometry" />
        </mxCell>
        <mxCell id="PHNsvNdRmOcWkAGZYs6u-20" value="Container" style="shape=partialRectangle;html=1;whiteSpace=wrap;connectable=0;strokeColor=inherit;overflow=hidden;fillColor=#23A2D9;top=0;left=0;bottom=0;right=0;pointerEvents=1;fontSize=12;align=left;fontColor=#FFFFFF;gradientColor=none;spacingLeft=10;spacingRight=4;rounded=1;labelBackgroundColor=none;hachureGap=4;fontFamily=Architects Daughter;fontSource=https%3A%2F%2Ffonts.googleapis.com%2Fcss%3Ffamily%3DArchitects%2BDaughter;" parent="PHNsvNdRmOcWkAGZYs6u-19" vertex="1">
          <mxGeometry width="180" height="30" as="geometry">
            <mxRectangle width="180" height="30" as="alternateBounds" />
          </mxGeometry>
        </mxCell>
        <mxCell id="PHNsvNdRmOcWkAGZYs6u-21" value="" style="shape=tableRow;horizontal=0;startSize=0;swimlaneHead=0;swimlaneBody=0;strokeColor=inherit;top=0;left=0;bottom=0;right=0;collapsible=0;dropTarget=0;fillColor=none;points=[[0,0.5],[1,0.5]];portConstraint=eastwest;fontSize=12;rounded=1;labelBackgroundColor=none;hachureGap=4;fontFamily=Architects Daughter;fontSource=https%3A%2F%2Ffonts.googleapis.com%2Fcss%3Ffamily%3DArchitects%2BDaughter;fontColor=#ffffff;html=1;" parent="PHNsvNdRmOcWkAGZYs6u-14" vertex="1">
          <mxGeometry y="120" width="180" height="30" as="geometry" />
        </mxCell>
        <mxCell id="PHNsvNdRmOcWkAGZYs6u-22" value="Component" style="shape=partialRectangle;html=1;whiteSpace=wrap;connectable=0;strokeColor=inherit;overflow=hidden;fillColor=#63BEF2;top=0;left=0;bottom=0;right=0;pointerEvents=1;fontSize=12;align=left;fontColor=#FFFFFF;gradientColor=none;spacingLeft=10;spacingRight=4;rounded=1;labelBackgroundColor=none;hachureGap=4;fontFamily=Architects Daughter;fontSource=https%3A%2F%2Ffonts.googleapis.com%2Fcss%3Ffamily%3DArchitects%2BDaughter;" parent="PHNsvNdRmOcWkAGZYs6u-21" vertex="1">
          <mxGeometry width="180" height="30" as="geometry">
            <mxRectangle width="180" height="30" as="alternateBounds" />
          </mxGeometry>
        </mxCell>
        <mxCell id="PHNsvNdRmOcWkAGZYs6u-23" value="" style="shape=tableRow;horizontal=0;startSize=0;swimlaneHead=0;swimlaneBody=0;strokeColor=inherit;top=0;left=0;bottom=0;right=0;collapsible=0;dropTarget=0;fillColor=none;points=[[0,0.5],[1,0.5]];portConstraint=eastwest;fontSize=12;rounded=1;labelBackgroundColor=none;hachureGap=4;fontFamily=Architects Daughter;fontSource=https%3A%2F%2Ffonts.googleapis.com%2Fcss%3Ffamily%3DArchitects%2BDaughter;fontColor=#ffffff;html=1;" parent="PHNsvNdRmOcWkAGZYs6u-14" vertex="1">
          <mxGeometry y="150" width="180" height="30" as="geometry" />
        </mxCell>
        <mxCell id="PHNsvNdRmOcWkAGZYs6u-24" value="External Software System" style="shape=partialRectangle;html=1;whiteSpace=wrap;connectable=0;strokeColor=inherit;overflow=hidden;fillColor=#8C8496;top=0;left=0;bottom=0;right=0;pointerEvents=1;fontSize=12;align=left;fontColor=#FFFFFF;gradientColor=none;spacingLeft=10;spacingRight=4;rounded=1;labelBackgroundColor=none;hachureGap=4;fontFamily=Architects Daughter;fontSource=https%3A%2F%2Ffonts.googleapis.com%2Fcss%3Ffamily%3DArchitects%2BDaughter;" parent="PHNsvNdRmOcWkAGZYs6u-23" vertex="1">
          <mxGeometry width="180" height="30" as="geometry">
            <mxRectangle width="180" height="30" as="alternateBounds" />
          </mxGeometry>
        </mxCell>
        <mxCell id="PHNsvNdRmOcWkAGZYs6u-25" style="edgeStyle=none;rounded=0;orthogonalLoop=1;jettySize=auto;html=1;dashed=1;exitX=1;exitY=0.75;exitDx=0;exitDy=0;exitPerimeter=0;" parent="1" source="PHNsvNdRmOcWkAGZYs6u-3" edge="1">
          <mxGeometry relative="1" as="geometry">
            <mxPoint x="-540" y="180" as="sourcePoint" />
            <mxPoint x="-320" y="240" as="targetPoint" />
          </mxGeometry>
        </mxCell>
        <mxCell id="PHNsvNdRmOcWkAGZYs6u-26" value="Operating Application" style="edgeLabel;html=1;align=center;verticalAlign=middle;resizable=0;points=[];" parent="PHNsvNdRmOcWkAGZYs6u-25" vertex="1" connectable="0">
          <mxGeometry x="-0.2912" y="2" relative="1" as="geometry">
            <mxPoint x="12" y="6" as="offset" />
          </mxGeometry>
        </mxCell>
        <mxCell id="PHNsvNdRmOcWkAGZYs6u-27" value="«Listener»&lt;br&gt;&lt;b&gt;addPlatEventListener&lt;/b&gt;" style="html=1;whiteSpace=wrap;hachureGap=4;fontFamily=Helvetica;fontSize=20;rounded=1;shadow=0;" parent="1" vertex="1">
          <mxGeometry x="-440" y="540" width="240" height="40" as="geometry" />
        </mxCell>
        <mxCell id="PHNsvNdRmOcWkAGZYs6u-28" value="main.js" style="swimlane;fontStyle=1;align=center;verticalAlign=top;childLayout=stackLayout;horizontal=1;startSize=26;horizontalStack=0;resizeParent=1;resizeParentMax=0;resizeLast=0;collapsible=1;marginBottom=0;whiteSpace=wrap;html=1;rounded=1;shadow=0;hachureGap=4;strokeColor=default;fontFamily=Helvetica;fontSize=20;fontColor=default;fillColor=default;" parent="1" vertex="1">
          <mxGeometry x="-440" y="320" width="320" height="138" as="geometry" />
        </mxCell>
        <mxCell id="PHNsvNdRmOcWkAGZYs6u-29" value="+ route: Vue-Router" style="text;strokeColor=none;fillColor=none;align=left;verticalAlign=top;spacingLeft=4;spacingRight=4;overflow=hidden;rotatable=0;points=[[0,0.5],[1,0.5]];portConstraint=eastwest;whiteSpace=wrap;html=1;fontSize=20;fontFamily=Helvetica;fontColor=default;" parent="PHNsvNdRmOcWkAGZYs6u-28" vertex="1">
          <mxGeometry y="26" width="320" height="26" as="geometry" />
        </mxCell>
        <mxCell id="PHNsvNdRmOcWkAGZYs6u-30" value="+ store: VueX" style="text;strokeColor=none;fillColor=none;align=left;verticalAlign=top;spacingLeft=4;spacingRight=4;overflow=hidden;rotatable=0;points=[[0,0.5],[1,0.5]];portConstraint=eastwest;whiteSpace=wrap;html=1;fontSize=20;fontFamily=Helvetica;fontColor=default;" parent="PHNsvNdRmOcWkAGZYs6u-28" vertex="1">
          <mxGeometry y="52" width="320" height="26" as="geometry" />
        </mxCell>
        <mxCell id="PHNsvNdRmOcWkAGZYs6u-31" value="" style="line;strokeWidth=1;fillColor=none;align=left;verticalAlign=middle;spacingTop=-1;spacingLeft=3;spacingRight=3;rotatable=0;labelPosition=right;points=[];portConstraint=eastwest;strokeColor=inherit;rounded=1;shadow=0;hachureGap=4;fontFamily=Helvetica;fontSize=20;fontColor=default;html=1;" parent="PHNsvNdRmOcWkAGZYs6u-28" vertex="1">
          <mxGeometry y="78" width="320" height="8" as="geometry" />
        </mxCell>
        <mxCell id="PHNsvNdRmOcWkAGZYs6u-32" value="+&amp;nbsp;init&lt;span style=&quot;background-color: initial;&quot;&gt;(): Function&lt;/span&gt;" style="text;strokeColor=none;fillColor=none;align=left;verticalAlign=top;spacingLeft=4;spacingRight=4;overflow=hidden;rotatable=0;points=[[0,0.5],[1,0.5]];portConstraint=eastwest;whiteSpace=wrap;html=1;fontSize=20;fontFamily=Helvetica;fontColor=default;" parent="PHNsvNdRmOcWkAGZYs6u-28" vertex="1">
          <mxGeometry y="86" width="320" height="26" as="geometry" />
        </mxCell>
        <mxCell id="PHNsvNdRmOcWkAGZYs6u-33" value="+ addPlatEventListener&lt;span style=&quot;background-color: initial;&quot;&gt;():&amp;nbsp;&lt;/span&gt;Listener" style="text;strokeColor=none;fillColor=none;align=left;verticalAlign=top;spacingLeft=4;spacingRight=4;overflow=hidden;rotatable=0;points=[[0,0.5],[1,0.5]];portConstraint=eastwest;whiteSpace=wrap;html=1;fontSize=20;fontFamily=Helvetica;fontColor=default;" parent="PHNsvNdRmOcWkAGZYs6u-28" vertex="1">
          <mxGeometry y="112" width="320" height="26" as="geometry" />
        </mxCell>
        <mxCell id="PHNsvNdRmOcWkAGZYs6u-34" style="edgeStyle=orthogonalEdgeStyle;rounded=0;hachureGap=4;orthogonalLoop=1;jettySize=auto;html=1;exitX=1;exitY=0.5;exitDx=0;exitDy=0;entryX=1;entryY=0.5;entryDx=0;entryDy=0;fontFamily=Helvetica;fontSource=https%3A%2F%2Ffonts.googleapis.com%2Fcss%3Ffamily%3DArchitects%2BDaughter;fontSize=20;fontColor=default;" parent="1" source="PHNsvNdRmOcWkAGZYs6u-33" target="PHNsvNdRmOcWkAGZYs6u-27" edge="1">
          <mxGeometry relative="1" as="geometry" />
        </mxCell>
        <mxCell id="PHNsvNdRmOcWkAGZYs6u-35" value="«Function»&lt;br&gt;&lt;b&gt;init&lt;/b&gt;" style="html=1;whiteSpace=wrap;hachureGap=4;fontFamily=Helvetica;fontSize=20;rounded=1;shadow=0;" parent="1" vertex="1">
          <mxGeometry x="-440" y="480" width="160" height="40" as="geometry" />
        </mxCell>
        <mxCell id="PHNsvNdRmOcWkAGZYs6u-36" style="edgeStyle=orthogonalEdgeStyle;rounded=0;hachureGap=4;orthogonalLoop=1;jettySize=auto;html=1;exitX=0;exitY=0.5;exitDx=0;exitDy=0;entryX=0;entryY=0.5;entryDx=0;entryDy=0;fontFamily=Helvetica;fontSource=https%3A%2F%2Ffonts.googleapis.com%2Fcss%3Ffamily%3DArchitects%2BDaughter;fontSize=20;fontColor=default;" parent="1" source="PHNsvNdRmOcWkAGZYs6u-32" target="PHNsvNdRmOcWkAGZYs6u-35" edge="1">
          <mxGeometry relative="1" as="geometry" />
        </mxCell>
        <mxCell id="PHNsvNdRmOcWkAGZYs6u-37" style="edgeStyle=orthogonalEdgeStyle;rounded=0;hachureGap=4;orthogonalLoop=1;jettySize=auto;html=1;exitX=0;exitY=1;exitDx=0;exitDy=0;fontFamily=Helvetica;fontSource=https%3A%2F%2Ffonts.googleapis.com%2Fcss%3Ffamily%3DArchitects%2BDaughter;fontSize=20;fontColor=default;fillColor=#e51400;strokeColor=#B20000;" parent="1" source="PHNsvNdRmOcWkAGZYs6u-39" target="PHNsvNdRmOcWkAGZYs6u-28" edge="1">
          <mxGeometry relative="1" as="geometry" />
        </mxCell>
        <mxCell id="PHNsvNdRmOcWkAGZYs6u-38" style="edgeStyle=orthogonalEdgeStyle;rounded=0;hachureGap=4;orthogonalLoop=1;jettySize=auto;html=1;exitX=1;exitY=1;exitDx=0;exitDy=0;fontFamily=Helvetica;fontSource=https%3A%2F%2Ffonts.googleapis.com%2Fcss%3Ffamily%3DArchitects%2BDaughter;fontSize=20;fontColor=default;fillColor=#e51400;strokeColor=#B20000;" parent="1" source="PHNsvNdRmOcWkAGZYs6u-39" target="PHNsvNdRmOcWkAGZYs6u-50" edge="1">
          <mxGeometry relative="1" as="geometry" />
        </mxCell>
        <mxCell id="PHNsvNdRmOcWkAGZYs6u-39" value="" style="ellipse;html=1;shape=startState;fillColor=#000000;strokeColor=#ff0000;rounded=1;shadow=0;hachureGap=4;fontFamily=Helvetica;fontSize=20;fontColor=default;" parent="1" vertex="1">
          <mxGeometry x="-90" y="260" width="30" height="30" as="geometry" />
        </mxCell>
        <mxCell id="PHNsvNdRmOcWkAGZYs6u-40" value="initLogic.js" style="swimlane;fontStyle=1;align=center;verticalAlign=top;childLayout=stackLayout;horizontal=1;startSize=26;horizontalStack=0;resizeParent=1;resizeParentMax=0;resizeLast=0;collapsible=1;marginBottom=0;whiteSpace=wrap;html=1;rounded=1;shadow=0;hachureGap=4;strokeColor=default;fontFamily=Helvetica;fontSize=20;fontColor=default;fillColor=default;" parent="1" vertex="1">
          <mxGeometry y="480" width="320" height="164" as="geometry" />
        </mxCell>
        <mxCell id="PHNsvNdRmOcWkAGZYs6u-41" value="+ locationURI: String | URL" style="text;strokeColor=none;fillColor=none;align=left;verticalAlign=top;spacingLeft=4;spacingRight=4;overflow=hidden;rotatable=0;points=[[0,0.5],[1,0.5]];portConstraint=eastwest;whiteSpace=wrap;html=1;fontSize=20;fontFamily=Helvetica;fontColor=default;" parent="PHNsvNdRmOcWkAGZYs6u-40" vertex="1">
          <mxGeometry y="26" width="320" height="26" as="geometry" />
        </mxCell>
        <mxCell id="PHNsvNdRmOcWkAGZYs6u-42" value="" style="line;strokeWidth=1;fillColor=none;align=left;verticalAlign=middle;spacingTop=-1;spacingLeft=3;spacingRight=3;rotatable=0;labelPosition=right;points=[];portConstraint=eastwest;strokeColor=inherit;rounded=1;shadow=0;hachureGap=4;fontFamily=Helvetica;fontSize=20;fontColor=default;html=1;" parent="PHNsvNdRmOcWkAGZYs6u-40" vertex="1">
          <mxGeometry y="52" width="320" height="8" as="geometry" />
        </mxCell>
        <mxCell id="PHNsvNdRmOcWkAGZYs6u-43" style="edgeStyle=orthogonalEdgeStyle;rounded=0;hachureGap=4;orthogonalLoop=1;jettySize=auto;html=1;exitX=1;exitY=0.5;exitDx=0;exitDy=0;fontFamily=Helvetica;fontSource=https%3A%2F%2Ffonts.googleapis.com%2Fcss%3Ffamily%3DArchitects%2BDaughter;fontSize=20;fontColor=default;" parent="PHNsvNdRmOcWkAGZYs6u-40" source="PHNsvNdRmOcWkAGZYs6u-46" target="PHNsvNdRmOcWkAGZYs6u-47" edge="1">
          <mxGeometry relative="1" as="geometry" />
        </mxCell>
        <mxCell id="PHNsvNdRmOcWkAGZYs6u-44" style="edgeStyle=orthogonalEdgeStyle;rounded=0;hachureGap=4;orthogonalLoop=1;jettySize=auto;html=1;exitX=1;exitY=0.5;exitDx=0;exitDy=0;fontFamily=Helvetica;fontSource=https%3A%2F%2Ffonts.googleapis.com%2Fcss%3Ffamily%3DArchitects%2BDaughter;fontSize=20;fontColor=default;" parent="PHNsvNdRmOcWkAGZYs6u-40" source="PHNsvNdRmOcWkAGZYs6u-46" target="PHNsvNdRmOcWkAGZYs6u-48" edge="1">
          <mxGeometry relative="1" as="geometry">
            <Array as="points">
              <mxPoint x="360" y="73" />
              <mxPoint x="360" y="125" />
            </Array>
          </mxGeometry>
        </mxCell>
        <mxCell id="PHNsvNdRmOcWkAGZYs6u-45" style="edgeStyle=orthogonalEdgeStyle;rounded=0;hachureGap=4;orthogonalLoop=1;jettySize=auto;html=1;exitX=1;exitY=0.5;exitDx=0;exitDy=0;fontFamily=Helvetica;fontSource=https%3A%2F%2Ffonts.googleapis.com%2Fcss%3Ffamily%3DArchitects%2BDaughter;fontSize=20;fontColor=default;" parent="PHNsvNdRmOcWkAGZYs6u-40" source="PHNsvNdRmOcWkAGZYs6u-46" target="PHNsvNdRmOcWkAGZYs6u-49" edge="1">
          <mxGeometry relative="1" as="geometry">
            <Array as="points">
              <mxPoint x="380" y="73" />
              <mxPoint x="380" y="151" />
            </Array>
          </mxGeometry>
        </mxCell>
        <mxCell id="PHNsvNdRmOcWkAGZYs6u-46" value="+ initHiPlayer(): Function" style="text;strokeColor=none;fillColor=none;align=left;verticalAlign=top;spacingLeft=4;spacingRight=4;overflow=hidden;rotatable=0;points=[[0,0.5],[1,0.5]];portConstraint=eastwest;whiteSpace=wrap;html=1;fontSize=20;fontFamily=Helvetica;fontColor=default;dashed=1;" parent="PHNsvNdRmOcWkAGZYs6u-40" vertex="1">
          <mxGeometry y="60" width="320" height="26" as="geometry" />
        </mxCell>
        <mxCell id="PHNsvNdRmOcWkAGZYs6u-47" value="+ handleLaunchArgs(): Function" style="text;strokeColor=none;fillColor=none;align=left;verticalAlign=top;spacingLeft=4;spacingRight=4;overflow=hidden;rotatable=0;points=[[0,0.5],[1,0.5]];portConstraint=eastwest;whiteSpace=wrap;html=1;fontSize=20;fontFamily=Helvetica;fontColor=default;" parent="PHNsvNdRmOcWkAGZYs6u-40" vertex="1">
          <mxGeometry y="86" width="320" height="26" as="geometry" />
        </mxCell>
        <mxCell id="PHNsvNdRmOcWkAGZYs6u-48" value="+ handleMediaURL(): Function" style="text;strokeColor=none;fillColor=none;align=left;verticalAlign=top;spacingLeft=4;spacingRight=4;overflow=hidden;rotatable=0;points=[[0,0.5],[1,0.5]];portConstraint=eastwest;whiteSpace=wrap;html=1;fontSize=20;fontFamily=Helvetica;fontColor=default;" parent="PHNsvNdRmOcWkAGZYs6u-40" vertex="1">
          <mxGeometry y="112" width="320" height="26" as="geometry" />
        </mxCell>
        <mxCell id="PHNsvNdRmOcWkAGZYs6u-49" value="+ launchWithDiffWays(): Function" style="text;strokeColor=none;fillColor=none;align=left;verticalAlign=top;spacingLeft=4;spacingRight=4;overflow=hidden;rotatable=0;points=[[0,0.5],[1,0.5]];portConstraint=eastwest;whiteSpace=wrap;html=1;fontSize=20;fontFamily=Helvetica;fontColor=default;" parent="PHNsvNdRmOcWkAGZYs6u-40" vertex="1">
          <mxGeometry y="138" width="320" height="26" as="geometry" />
        </mxCell>
        <mxCell id="PHNsvNdRmOcWkAGZYs6u-50" value="index.vue" style="swimlane;fontStyle=1;align=center;verticalAlign=top;childLayout=stackLayout;horizontal=1;startSize=26;horizontalStack=0;resizeParent=1;resizeParentMax=0;resizeLast=0;collapsible=1;marginBottom=0;whiteSpace=wrap;html=1;rounded=1;shadow=0;hachureGap=4;strokeColor=default;fontFamily=Helvetica;fontSize=20;fontColor=default;fillColor=default;" parent="1" vertex="1">
          <mxGeometry y="320" width="320" height="112" as="geometry" />
        </mxCell>
        <mxCell id="PHNsvNdRmOcWkAGZYs6u-51" value="+ applicationVideo(): Component" style="text;strokeColor=none;fillColor=none;align=left;verticalAlign=top;spacingLeft=4;spacingRight=4;overflow=hidden;rotatable=0;points=[[0,0.5],[1,0.5]];portConstraint=eastwest;whiteSpace=wrap;html=1;fontSize=20;fontFamily=Helvetica;fontColor=default;" parent="PHNsvNdRmOcWkAGZYs6u-50" vertex="1">
          <mxGeometry y="26" width="320" height="26" as="geometry" />
        </mxCell>
        <mxCell id="PHNsvNdRmOcWkAGZYs6u-52" value="+ ottVideo(): Component" style="text;strokeColor=none;fillColor=none;align=left;verticalAlign=top;spacingLeft=4;spacingRight=4;overflow=hidden;rotatable=0;points=[[0,0.5],[1,0.5]];portConstraint=eastwest;whiteSpace=wrap;html=1;fontSize=20;fontFamily=Helvetica;fontColor=default;" parent="PHNsvNdRmOcWkAGZYs6u-50" vertex="1">
          <mxGeometry y="52" width="320" height="26" as="geometry" />
        </mxCell>
        <mxCell id="PHNsvNdRmOcWkAGZYs6u-53" value="" style="line;strokeWidth=1;fillColor=none;align=left;verticalAlign=middle;spacingTop=-1;spacingLeft=3;spacingRight=3;rotatable=0;labelPosition=right;points=[];portConstraint=eastwest;strokeColor=inherit;rounded=1;shadow=0;hachureGap=4;fontFamily=Helvetica;fontSize=20;fontColor=default;html=1;" parent="PHNsvNdRmOcWkAGZYs6u-50" vertex="1">
          <mxGeometry y="78" width="320" height="8" as="geometry" />
        </mxCell>
        <mxCell id="PHNsvNdRmOcWkAGZYs6u-54" value="+ initHiPlayer(): Function" style="text;strokeColor=none;fillColor=none;align=left;verticalAlign=top;spacingLeft=4;spacingRight=4;overflow=hidden;rotatable=0;points=[[0,0.5],[1,0.5]];portConstraint=eastwest;whiteSpace=wrap;html=1;fontSize=20;fontFamily=Helvetica;fontColor=default;" parent="PHNsvNdRmOcWkAGZYs6u-50" vertex="1">
          <mxGeometry y="86" width="320" height="26" as="geometry" />
        </mxCell>
        <mxCell id="PHNsvNdRmOcWkAGZYs6u-55" style="edgeStyle=orthogonalEdgeStyle;rounded=0;hachureGap=4;orthogonalLoop=1;jettySize=auto;html=1;exitX=0;exitY=0.5;exitDx=0;exitDy=0;entryX=0;entryY=0.5;entryDx=0;entryDy=0;fontFamily=Helvetica;fontSource=https%3A%2F%2Ffonts.googleapis.com%2Fcss%3Ffamily%3DArchitects%2BDaughter;fontSize=20;fontColor=default;" parent="1" source="PHNsvNdRmOcWkAGZYs6u-54" target="PHNsvNdRmOcWkAGZYs6u-46" edge="1">
          <mxGeometry relative="1" as="geometry" />
        </mxCell>
        <mxCell id="PHNsvNdRmOcWkAGZYs6u-56" value="index.vue" style="swimlane;fontStyle=1;align=center;verticalAlign=top;childLayout=stackLayout;horizontal=1;startSize=26;horizontalStack=0;resizeParent=1;resizeParentMax=0;resizeLast=0;collapsible=1;marginBottom=0;whiteSpace=wrap;html=1;rounded=1;shadow=0;hachureGap=4;strokeColor=default;fontFamily=Helvetica;fontSize=20;fontColor=default;fillColor=default;" parent="1" vertex="1">
          <mxGeometry x="-400" y="680" width="320" height="52" as="geometry" />
        </mxCell>
        <mxCell id="PHNsvNdRmOcWkAGZYs6u-57" value="+ adParamHandler(url): Function" style="text;strokeColor=none;fillColor=none;align=left;verticalAlign=top;spacingLeft=4;spacingRight=4;overflow=hidden;rotatable=0;points=[[0,0.5],[1,0.5]];portConstraint=eastwest;whiteSpace=wrap;html=1;fontSize=20;fontFamily=Helvetica;fontColor=default;" parent="PHNsvNdRmOcWkAGZYs6u-56" vertex="1">
          <mxGeometry y="26" width="320" height="26" as="geometry" />
        </mxCell>
        <mxCell id="PHNsvNdRmOcWkAGZYs6u-58" style="edgeStyle=orthogonalEdgeStyle;rounded=0;hachureGap=4;orthogonalLoop=1;jettySize=auto;html=1;exitX=0;exitY=0.5;exitDx=0;exitDy=0;entryX=0;entryY=0.5;entryDx=0;entryDy=0;fontFamily=Helvetica;fontSource=https%3A%2F%2Ffonts.googleapis.com%2Fcss%3Ffamily%3DArchitects%2BDaughter;fontSize=20;fontColor=default;" parent="1" source="PHNsvNdRmOcWkAGZYs6u-48" target="PHNsvNdRmOcWkAGZYs6u-57" edge="1">
          <mxGeometry relative="1" as="geometry" />
        </mxCell>
        <mxCell id="PHNsvNdRmOcWkAGZYs6u-59" value="vastProcessFunc.js" style="swimlane;fontStyle=1;align=center;verticalAlign=top;childLayout=stackLayout;horizontal=1;startSize=26;horizontalStack=0;resizeParent=1;resizeParentMax=0;resizeLast=0;collapsible=1;marginBottom=0;whiteSpace=wrap;html=1;rounded=1;shadow=0;hachureGap=4;strokeColor=default;fontFamily=Helvetica;fontSize=20;fontColor=default;fillColor=default;" parent="1" vertex="1">
          <mxGeometry y="680" width="320" height="52" as="geometry" />
        </mxCell>
        <mxCell id="PHNsvNdRmOcWkAGZYs6u-60" value="+ initVASTProcess(): Function" style="text;strokeColor=none;fillColor=none;align=left;verticalAlign=top;spacingLeft=4;spacingRight=4;overflow=hidden;rotatable=0;points=[[0,0.5],[1,0.5]];portConstraint=eastwest;whiteSpace=wrap;html=1;fontSize=20;fontFamily=Helvetica;fontColor=default;" parent="PHNsvNdRmOcWkAGZYs6u-59" vertex="1">
          <mxGeometry y="26" width="320" height="26" as="geometry" />
        </mxCell>
        <mxCell id="PHNsvNdRmOcWkAGZYs6u-61" value="store.js" style="swimlane;fontStyle=1;align=center;verticalAlign=top;childLayout=stackLayout;horizontal=1;startSize=26;horizontalStack=0;resizeParent=1;resizeParentMax=0;resizeLast=0;collapsible=1;marginBottom=0;whiteSpace=wrap;html=1;rounded=1;shadow=0;hachureGap=4;strokeColor=default;fontFamily=Helvetica;fontSize=20;fontColor=default;fillColor=default;" parent="1" vertex="1">
          <mxGeometry x="-440" y="800" width="320" height="164" as="geometry" />
        </mxCell>
        <mxCell id="PHNsvNdRmOcWkAGZYs6u-62" value="+ hiplayerVodInstance(): Object" style="text;strokeColor=none;fillColor=none;align=left;verticalAlign=top;spacingLeft=4;spacingRight=4;overflow=hidden;rotatable=0;points=[[0,0.5],[1,0.5]];portConstraint=eastwest;whiteSpace=wrap;html=1;fontSize=20;fontFamily=Helvetica;fontColor=default;" parent="PHNsvNdRmOcWkAGZYs6u-61" vertex="1">
          <mxGeometry y="26" width="320" height="26" as="geometry" />
        </mxCell>
        <mxCell id="PHNsvNdRmOcWkAGZYs6u-63" value="+ videoParaObject(): Object" style="text;strokeColor=none;fillColor=none;align=left;verticalAlign=top;spacingLeft=4;spacingRight=4;overflow=hidden;rotatable=0;points=[[0,0.5],[1,0.5]];portConstraint=eastwest;whiteSpace=wrap;html=1;fontSize=20;fontFamily=Helvetica;fontColor=default;" parent="PHNsvNdRmOcWkAGZYs6u-61" vertex="1">
          <mxGeometry y="52" width="320" height="26" as="geometry" />
        </mxCell>
        <mxCell id="PHNsvNdRmOcWkAGZYs6u-64" value="+ videoParaObjectOTT(): Object" style="text;strokeColor=none;fillColor=none;align=left;verticalAlign=top;spacingLeft=4;spacingRight=4;overflow=hidden;rotatable=0;points=[[0,0.5],[1,0.5]];portConstraint=eastwest;whiteSpace=wrap;html=1;fontSize=20;fontFamily=Helvetica;fontColor=default;" parent="PHNsvNdRmOcWkAGZYs6u-61" vertex="1">
          <mxGeometry y="78" width="320" height="26" as="geometry" />
        </mxCell>
        <mxCell id="PHNsvNdRmOcWkAGZYs6u-65" value="" style="line;strokeWidth=1;fillColor=none;align=left;verticalAlign=middle;spacingTop=-1;spacingLeft=3;spacingRight=3;rotatable=0;labelPosition=right;points=[];portConstraint=eastwest;strokeColor=inherit;rounded=1;shadow=0;hachureGap=4;fontFamily=Helvetica;fontSize=20;fontColor=default;html=1;" parent="PHNsvNdRmOcWkAGZYs6u-61" vertex="1">
          <mxGeometry y="104" width="320" height="8" as="geometry" />
        </mxCell>
        <mxCell id="PHNsvNdRmOcWkAGZYs6u-66" value="+ setVideoParaObject(): Function" style="text;strokeColor=none;fillColor=none;align=left;verticalAlign=top;spacingLeft=4;spacingRight=4;overflow=hidden;rotatable=0;points=[[0,0.5],[1,0.5]];portConstraint=eastwest;whiteSpace=wrap;html=1;fontSize=20;fontFamily=Helvetica;fontColor=default;" parent="PHNsvNdRmOcWkAGZYs6u-61" vertex="1">
          <mxGeometry y="112" width="320" height="26" as="geometry" />
        </mxCell>
        <mxCell id="PHNsvNdRmOcWkAGZYs6u-67" value="+ setVideoParaOTT(): Function" style="text;strokeColor=none;fillColor=none;align=left;verticalAlign=top;spacingLeft=4;spacingRight=4;overflow=hidden;rotatable=0;points=[[0,0.5],[1,0.5]];portConstraint=eastwest;whiteSpace=wrap;html=1;fontSize=20;fontFamily=Helvetica;fontColor=default;" parent="PHNsvNdRmOcWkAGZYs6u-61" vertex="1">
          <mxGeometry y="138" width="320" height="26" as="geometry" />
        </mxCell>
        <mxCell id="PHNsvNdRmOcWkAGZYs6u-68" style="edgeStyle=orthogonalEdgeStyle;rounded=0;hachureGap=4;orthogonalLoop=1;jettySize=auto;html=1;fontFamily=Helvetica;fontSource=https%3A%2F%2Ffonts.googleapis.com%2Fcss%3Ffamily%3DArchitects%2BDaughter;fontSize=20;fontColor=default;" parent="1" source="PHNsvNdRmOcWkAGZYs6u-69" target="PHNsvNdRmOcWkAGZYs6u-77" edge="1">
          <mxGeometry relative="1" as="geometry" />
        </mxCell>
        <mxCell id="PHNsvNdRmOcWkAGZYs6u-69" value="applicationVideo.vue" style="swimlane;fontStyle=1;align=center;verticalAlign=top;childLayout=stackLayout;horizontal=1;startSize=26;horizontalStack=0;resizeParent=1;resizeParentMax=0;resizeLast=0;collapsible=1;marginBottom=0;whiteSpace=wrap;html=1;rounded=1;shadow=0;hachureGap=4;strokeColor=default;fontFamily=Helvetica;fontSize=20;fontColor=default;fillColor=default;" parent="1" vertex="1">
          <mxGeometry y="778" width="320" height="208" as="geometry" />
        </mxCell>
        <mxCell id="PHNsvNdRmOcWkAGZYs6u-70" value="+ videoComponent(): Component" style="text;strokeColor=none;fillColor=none;align=left;verticalAlign=top;spacingLeft=4;spacingRight=4;overflow=hidden;rotatable=0;points=[[0,0.5],[1,0.5]];portConstraint=eastwest;whiteSpace=wrap;html=1;fontSize=20;fontFamily=Helvetica;fontColor=default;" parent="PHNsvNdRmOcWkAGZYs6u-69" vertex="1">
          <mxGeometry y="26" width="320" height="26" as="geometry" />
        </mxCell>
        <mxCell id="PHNsvNdRmOcWkAGZYs6u-71" value="+ continueDialog(): Component" style="text;strokeColor=none;fillColor=none;align=left;verticalAlign=top;spacingLeft=4;spacingRight=4;overflow=hidden;rotatable=0;points=[[0,0.5],[1,0.5]];portConstraint=eastwest;whiteSpace=wrap;html=1;fontSize=20;fontFamily=Helvetica;fontColor=default;" parent="PHNsvNdRmOcWkAGZYs6u-69" vertex="1">
          <mxGeometry y="52" width="320" height="26" as="geometry" />
        </mxCell>
        <mxCell id="PHNsvNdRmOcWkAGZYs6u-72" value="+ videoProgress(): Component" style="text;strokeColor=none;fillColor=none;align=left;verticalAlign=top;spacingLeft=4;spacingRight=4;overflow=hidden;rotatable=0;points=[[0,0.5],[1,0.5]];portConstraint=eastwest;whiteSpace=wrap;html=1;fontSize=20;fontFamily=Helvetica;fontColor=default;" parent="PHNsvNdRmOcWkAGZYs6u-69" vertex="1">
          <mxGeometry y="78" width="320" height="26" as="geometry" />
        </mxCell>
        <mxCell id="PHNsvNdRmOcWkAGZYs6u-73" value="+ btnList(): Component" style="text;strokeColor=none;fillColor=none;align=left;verticalAlign=top;spacingLeft=4;spacingRight=4;overflow=hidden;rotatable=0;points=[[0,0.5],[1,0.5]];portConstraint=eastwest;whiteSpace=wrap;html=1;fontSize=20;fontFamily=Helvetica;fontColor=default;" parent="PHNsvNdRmOcWkAGZYs6u-69" vertex="1">
          <mxGeometry y="104" width="320" height="26" as="geometry" />
        </mxCell>
        <mxCell id="PHNsvNdRmOcWkAGZYs6u-74" value="+ episodeList(): Component" style="text;strokeColor=none;fillColor=none;align=left;verticalAlign=top;spacingLeft=4;spacingRight=4;overflow=hidden;rotatable=0;points=[[0,0.5],[1,0.5]];portConstraint=eastwest;whiteSpace=wrap;html=1;fontSize=20;fontFamily=Helvetica;fontColor=default;" parent="PHNsvNdRmOcWkAGZYs6u-69" vertex="1">
          <mxGeometry y="130" width="320" height="26" as="geometry" />
        </mxCell>
        <mxCell id="PHNsvNdRmOcWkAGZYs6u-75" value="+ audioSubtile(): Component" style="text;strokeColor=none;fillColor=none;align=left;verticalAlign=top;spacingLeft=4;spacingRight=4;overflow=hidden;rotatable=0;points=[[0,0.5],[1,0.5]];portConstraint=eastwest;whiteSpace=wrap;html=1;fontSize=20;fontFamily=Helvetica;fontColor=default;" parent="PHNsvNdRmOcWkAGZYs6u-69" vertex="1">
          <mxGeometry y="156" width="320" height="26" as="geometry" />
        </mxCell>
        <mxCell id="PHNsvNdRmOcWkAGZYs6u-76" value="+ definitionList(): Component" style="text;strokeColor=none;fillColor=none;align=left;verticalAlign=top;spacingLeft=4;spacingRight=4;overflow=hidden;rotatable=0;points=[[0,0.5],[1,0.5]];portConstraint=eastwest;whiteSpace=wrap;html=1;fontSize=20;fontFamily=Helvetica;fontColor=default;" parent="PHNsvNdRmOcWkAGZYs6u-69" vertex="1">
          <mxGeometry y="182" width="320" height="26" as="geometry" />
        </mxCell>
        <mxCell id="PHNsvNdRmOcWkAGZYs6u-77" value="ottVideo.vue" style="swimlane;fontStyle=1;align=center;verticalAlign=top;childLayout=stackLayout;horizontal=1;startSize=26;horizontalStack=0;resizeParent=1;resizeParentMax=0;resizeLast=0;collapsible=1;marginBottom=0;whiteSpace=wrap;html=1;rounded=1;shadow=0;hachureGap=4;strokeColor=default;fontFamily=Helvetica;fontSize=20;fontColor=default;fillColor=default;" parent="1" vertex="1">
          <mxGeometry y="1020" width="320" height="52" as="geometry" />
        </mxCell>
        <mxCell id="PHNsvNdRmOcWkAGZYs6u-78" value="+ video(): HTMLVideoElement" style="text;strokeColor=none;fillColor=none;align=left;verticalAlign=top;spacingLeft=4;spacingRight=4;overflow=hidden;rotatable=0;points=[[0,0.5],[1,0.5]];portConstraint=eastwest;whiteSpace=wrap;html=1;fontSize=20;fontFamily=Helvetica;fontColor=default;" parent="PHNsvNdRmOcWkAGZYs6u-77" vertex="1">
          <mxGeometry y="26" width="320" height="26" as="geometry" />
        </mxCell>
        <mxCell id="PHNsvNdRmOcWkAGZYs6u-79" value="videoComponent.vue" style="swimlane;fontStyle=1;align=center;verticalAlign=top;childLayout=stackLayout;horizontal=1;startSize=26;horizontalStack=0;resizeParent=1;resizeParentMax=0;resizeLast=0;collapsible=1;marginBottom=0;whiteSpace=wrap;html=1;rounded=1;shadow=0;hachureGap=4;strokeColor=default;fontFamily=Helvetica;fontSize=20;fontColor=default;fillColor=default;" parent="1" vertex="1">
          <mxGeometry x="-440" y="1020" width="320" height="52" as="geometry" />
        </mxCell>
        <mxCell id="PHNsvNdRmOcWkAGZYs6u-80" value="+ video(): HTMLVideoElement" style="text;strokeColor=none;fillColor=none;align=left;verticalAlign=top;spacingLeft=4;spacingRight=4;overflow=hidden;rotatable=0;points=[[0,0.5],[1,0.5]];portConstraint=eastwest;whiteSpace=wrap;html=1;fontSize=20;fontFamily=Helvetica;fontColor=default;" parent="PHNsvNdRmOcWkAGZYs6u-79" vertex="1">
          <mxGeometry y="26" width="320" height="26" as="geometry" />
        </mxCell>
        <mxCell id="PHNsvNdRmOcWkAGZYs6u-81" value="HTMLVideoElement" style="swimlane;fontStyle=1;align=center;verticalAlign=top;childLayout=stackLayout;horizontal=1;startSize=26;horizontalStack=0;resizeParent=1;resizeParentMax=0;resizeLast=0;collapsible=1;marginBottom=0;whiteSpace=wrap;html=1;rounded=1;shadow=0;hachureGap=4;strokeColor=default;fontFamily=Helvetica;fontSize=20;fontColor=default;fillColor=default;" parent="1" vertex="1">
          <mxGeometry x="-240" y="1120" width="320" height="112" as="geometry" />
        </mxCell>
        <mxCell id="PHNsvNdRmOcWkAGZYs6u-82" value="+ currentSrc(): NativeProperty" style="text;strokeColor=none;fillColor=none;align=left;verticalAlign=top;spacingLeft=4;spacingRight=4;overflow=hidden;rotatable=0;points=[[0,0.5],[1,0.5]];portConstraint=eastwest;whiteSpace=wrap;html=1;fontSize=20;fontFamily=Helvetica;fontColor=default;" parent="PHNsvNdRmOcWkAGZYs6u-81" vertex="1">
          <mxGeometry y="26" width="320" height="26" as="geometry" />
        </mxCell>
        <mxCell id="PHNsvNdRmOcWkAGZYs6u-83" value="" style="line;strokeWidth=1;fillColor=none;align=left;verticalAlign=middle;spacingTop=-1;spacingLeft=3;spacingRight=3;rotatable=0;labelPosition=right;points=[];portConstraint=eastwest;strokeColor=inherit;rounded=1;shadow=0;hachureGap=4;fontFamily=Helvetica;fontSize=20;fontColor=default;html=1;" parent="PHNsvNdRmOcWkAGZYs6u-81" vertex="1">
          <mxGeometry y="52" width="320" height="8" as="geometry" />
        </mxCell>
        <mxCell id="PHNsvNdRmOcWkAGZYs6u-84" value="+ load(): NativeFunction" style="text;strokeColor=none;fillColor=none;align=left;verticalAlign=top;spacingLeft=4;spacingRight=4;overflow=hidden;rotatable=0;points=[[0,0.5],[1,0.5]];portConstraint=eastwest;whiteSpace=wrap;html=1;fontSize=20;fontFamily=Helvetica;fontColor=default;" parent="PHNsvNdRmOcWkAGZYs6u-81" vertex="1">
          <mxGeometry y="60" width="320" height="26" as="geometry" />
        </mxCell>
        <mxCell id="PHNsvNdRmOcWkAGZYs6u-85" value="+ play(): NativeFunction" style="text;strokeColor=none;fillColor=none;align=left;verticalAlign=top;spacingLeft=4;spacingRight=4;overflow=hidden;rotatable=0;points=[[0,0.5],[1,0.5]];portConstraint=eastwest;whiteSpace=wrap;html=1;fontSize=20;fontFamily=Helvetica;fontColor=default;" parent="PHNsvNdRmOcWkAGZYs6u-81" vertex="1">
          <mxGeometry y="86" width="320" height="26" as="geometry" />
        </mxCell>
        <mxCell id="PHNsvNdRmOcWkAGZYs6u-86" style="edgeStyle=orthogonalEdgeStyle;rounded=0;hachureGap=4;orthogonalLoop=1;jettySize=auto;html=1;exitX=1;exitY=0.5;exitDx=0;exitDy=0;entryX=1;entryY=0.5;entryDx=0;entryDy=0;fontFamily=Helvetica;fontSource=https%3A%2F%2Ffonts.googleapis.com%2Fcss%3Ffamily%3DArchitects%2BDaughter;fontSize=20;fontColor=default;" parent="1" source="PHNsvNdRmOcWkAGZYs6u-78" target="PHNsvNdRmOcWkAGZYs6u-84" edge="1">
          <mxGeometry relative="1" as="geometry" />
        </mxCell>
        <mxCell id="PHNsvNdRmOcWkAGZYs6u-87" style="edgeStyle=orthogonalEdgeStyle;rounded=0;hachureGap=4;orthogonalLoop=1;jettySize=auto;html=1;exitX=0;exitY=0.5;exitDx=0;exitDy=0;entryX=0;entryY=0.5;entryDx=0;entryDy=0;fontFamily=Helvetica;fontSource=https%3A%2F%2Ffonts.googleapis.com%2Fcss%3Ffamily%3DArchitects%2BDaughter;fontSize=20;fontColor=default;" parent="1" source="PHNsvNdRmOcWkAGZYs6u-49" target="PHNsvNdRmOcWkAGZYs6u-66" edge="1">
          <mxGeometry relative="1" as="geometry" />
        </mxCell>
        <mxCell id="PHNsvNdRmOcWkAGZYs6u-88" style="edgeStyle=orthogonalEdgeStyle;rounded=0;hachureGap=4;orthogonalLoop=1;jettySize=auto;html=1;exitX=0;exitY=0.5;exitDx=0;exitDy=0;entryX=0;entryY=0.5;entryDx=0;entryDy=0;fontFamily=Helvetica;fontSource=https%3A%2F%2Ffonts.googleapis.com%2Fcss%3Ffamily%3DArchitects%2BDaughter;fontSize=20;fontColor=default;" parent="1" source="PHNsvNdRmOcWkAGZYs6u-49" target="PHNsvNdRmOcWkAGZYs6u-67" edge="1">
          <mxGeometry relative="1" as="geometry">
            <Array as="points">
              <mxPoint x="-480" y="631" />
              <mxPoint x="-480" y="951" />
            </Array>
          </mxGeometry>
        </mxCell>
        <mxCell id="PHNsvNdRmOcWkAGZYs6u-89" style="edgeStyle=orthogonalEdgeStyle;rounded=0;hachureGap=4;orthogonalLoop=1;jettySize=auto;html=1;exitX=0;exitY=0.5;exitDx=0;exitDy=0;entryX=0;entryY=0.5;entryDx=0;entryDy=0;fontFamily=Helvetica;fontSource=https%3A%2F%2Ffonts.googleapis.com%2Fcss%3Ffamily%3DArchitects%2BDaughter;fontSize=20;fontColor=default;" parent="1" source="PHNsvNdRmOcWkAGZYs6u-49" target="PHNsvNdRmOcWkAGZYs6u-60" edge="1">
          <mxGeometry relative="1" as="geometry">
            <Array as="points">
              <mxPoint x="-40" y="631" />
              <mxPoint x="-40" y="719" />
            </Array>
          </mxGeometry>
        </mxCell>
        <mxCell id="PHNsvNdRmOcWkAGZYs6u-90" style="edgeStyle=orthogonalEdgeStyle;rounded=0;hachureGap=4;orthogonalLoop=1;jettySize=auto;html=1;exitX=1;exitY=0.5;exitDx=0;exitDy=0;fontFamily=Helvetica;fontSource=https%3A%2F%2Ffonts.googleapis.com%2Fcss%3Ffamily%3DArchitects%2BDaughter;fontSize=20;fontColor=default;" parent="1" source="PHNsvNdRmOcWkAGZYs6u-66" target="PHNsvNdRmOcWkAGZYs6u-69" edge="1">
          <mxGeometry relative="1" as="geometry" />
        </mxCell>
        <mxCell id="PHNsvNdRmOcWkAGZYs6u-91" style="edgeStyle=orthogonalEdgeStyle;rounded=0;hachureGap=4;orthogonalLoop=1;jettySize=auto;html=1;exitX=1;exitY=0.5;exitDx=0;exitDy=0;fontFamily=Helvetica;fontSource=https%3A%2F%2Ffonts.googleapis.com%2Fcss%3Ffamily%3DArchitects%2BDaughter;fontSize=20;fontColor=default;" parent="1" source="PHNsvNdRmOcWkAGZYs6u-67" target="PHNsvNdRmOcWkAGZYs6u-79" edge="1">
          <mxGeometry relative="1" as="geometry" />
        </mxCell>
        <mxCell id="PHNsvNdRmOcWkAGZYs6u-92" style="edgeStyle=orthogonalEdgeStyle;rounded=0;hachureGap=4;orthogonalLoop=1;jettySize=auto;html=1;exitX=0;exitY=0.5;exitDx=0;exitDy=0;entryX=0;entryY=0.5;entryDx=0;entryDy=0;fontFamily=Helvetica;fontSource=https%3A%2F%2Ffonts.googleapis.com%2Fcss%3Ffamily%3DArchitects%2BDaughter;fontSize=20;fontColor=default;" parent="1" source="PHNsvNdRmOcWkAGZYs6u-80" target="PHNsvNdRmOcWkAGZYs6u-84" edge="1">
          <mxGeometry relative="1" as="geometry" />
        </mxCell>
        <mxCell id="PHNsvNdRmOcWkAGZYs6u-93" style="edgeStyle=orthogonalEdgeStyle;rounded=0;hachureGap=4;orthogonalLoop=1;jettySize=auto;html=1;exitX=0;exitY=0.5;exitDx=0;exitDy=0;entryX=0;entryY=0.5;entryDx=0;entryDy=0;fontFamily=Helvetica;fontSource=https%3A%2F%2Ffonts.googleapis.com%2Fcss%3Ffamily%3DArchitects%2BDaughter;fontSize=20;fontColor=default;" parent="1" source="PHNsvNdRmOcWkAGZYs6u-80" target="PHNsvNdRmOcWkAGZYs6u-85" edge="1">
          <mxGeometry relative="1" as="geometry">
            <Array as="points">
              <mxPoint x="-480" y="1059" />
              <mxPoint x="-480" y="1219" />
            </Array>
          </mxGeometry>
        </mxCell>
        <mxCell id="PHNsvNdRmOcWkAGZYs6u-94" style="edgeStyle=orthogonalEdgeStyle;rounded=0;hachureGap=4;orthogonalLoop=1;jettySize=auto;html=1;exitX=1;exitY=0.5;exitDx=0;exitDy=0;entryX=1;entryY=0.5;entryDx=0;entryDy=0;fontFamily=Helvetica;fontSource=https%3A%2F%2Ffonts.googleapis.com%2Fcss%3Ffamily%3DArchitects%2BDaughter;fontSize=20;fontColor=default;" parent="1" source="PHNsvNdRmOcWkAGZYs6u-78" target="PHNsvNdRmOcWkAGZYs6u-85" edge="1">
          <mxGeometry relative="1" as="geometry">
            <Array as="points">
              <mxPoint x="360" y="1059" />
              <mxPoint x="360" y="1219" />
            </Array>
          </mxGeometry>
        </mxCell>
      </root>
    </mxGraphModel>
  </diagram>
</mxfile>
